<?xml version="1.0" encoding="UTF-8" standalone="no"?>
<svg
   xmlns:dc="http://purl.org/dc/elements/1.1/"
   xmlns:cc="http://creativecommons.org/ns#"
   xmlns:rdf="http://www.w3.org/1999/02/22-rdf-syntax-ns#"
   xmlns:svg="http://www.w3.org/2000/svg"
   xmlns="http://www.w3.org/2000/svg"
   xmlns:sodipodi="http://sodipodi.sourceforge.net/DTD/sodipodi-0.dtd"
   xmlns:inkscape="http://www.inkscape.org/namespaces/inkscape"
   width="1080"
   height="1080"
   viewBox="0 0 1080 1080"
   fill="none"
   version="1.1"
   id="svg19577"
   sodipodi:docname="lastChance.svg"
   inkscape:version="0.92.3 (2405546, 2018-03-11)">
  <metadata
     id="metadata19581">
    <rdf:RDF>
      <cc:Work
         rdf:about="">
        <dc:format>image/svg+xml</dc:format>
        <dc:type
           rdf:resource="http://purl.org/dc/dcmitype/StillImage" />
      </cc:Work>
    </rdf:RDF>
  </metadata>
  <sodipodi:namedview
     pagecolor="#ffffff"
     bordercolor="#666666"
     borderopacity="1"
     objecttolerance="10"
     gridtolerance="10"
     guidetolerance="10"
     inkscape:pageopacity="0"
     inkscape:pageshadow="2"
     inkscape:window-width="1918"
     inkscape:window-height="1060"
     id="namedview19579"
     showgrid="false"
     inkscape:zoom="0.87407408"
     inkscape:cx="689.01725"
     inkscape:cy="582.93212"
     inkscape:window-x="0"
     inkscape:window-y="18"
     inkscape:window-maximized="0"
     inkscape:current-layer="g19547" />
  <g
     clip-path="url(#clip0)"
     id="g19547">
    <rect
       width="1080"
       height="1080"
       id="rect19521"
       fill="url(#paint0_linear)" />
    <path
       d="m 68.5876,753.768 v 5.04 h 11.136 c -0.672,3.984 -3.408,6.912 -8.016,6.912 -6.192,0 -9.216,-2.832 -9.216,-11.04 0,-8.208 2.784,-11.04 8.64,-11.04 4.704,0 6.816,2.208 7.44,5.712 h 6.192 c -0.48,-6.72 -5.568,-11.472 -13.632,-11.472 -10.368,0 -14.88,7.44 -14.88,16.8 0,9.36 4.512,16.8 14.016,16.8 5.712,0 7.824,-3.168 8.688,-5.04 h 0.768 V 771 h 6.24 v -17.232 z m 43.6254,4.368 c 0,-7.2 -2.976,-12.336 -10.752,-12.336 -7.9678,0 -10.9438,5.52 -10.9438,12.864 0,4.992 1.584,12.816 12.6718,12.816 1.824,0 3.648,0 7.392,-0.864 v -5.664 c -3.312,0.768 -5.472,0.768 -6.912,0.768 -4.7998,0 -6.2878,-1.776 -6.7198,-4.8 h 15.2638 z m -10.848,-6.576 c 3.072,0 4.416,1.44 4.608,4.8 h -9.1678 c 0.192,-3.216 1.584,-4.8 4.5598,-4.8 z m 30.371,0.48 v -5.76 h -6.576 v -8.88 h -6.24 v 8.88 h -3.84 v 5.76 h 3.84 V 771 h 12.816 v -5.76 h -6.576 v -13.2 z m 40.242,-5.76 v 11.52 c 0,3.84 -1.728,5.52 -5.472,5.52 -3.744,0 -5.472,-1.68 -5.472,-5.52 v -11.52 h -6.24 v 11.76 c 0,6.576 2.976,11.04 10.512,11.04 2.88,0 5.232,-1.056 6.672,-2.64 v 6.48 h -13.92 v 5.76 h 20.16 v -32.4 z m 22.741,25.2 c 7.776,0 11.952,-5.328 11.952,-12.864 0,-7.536 -4.176,-12.816 -11.952,-12.816 -7.776,0 -11.952,5.28 -11.952,12.816 0,7.536 4.176,12.864 11.952,12.864 z m 0,-5.76 c -4.224,0 -5.712,-1.824 -5.712,-7.104 0,-5.28 1.488,-7.056 5.712,-7.056 4.224,0 5.712,1.776 5.712,7.056 0,5.28 -1.488,7.104 -5.712,7.104 z m 39.702,-5.28 v -14.16 h -6.24 v 13.68 c 0,4.32 -1.488,5.76 -5.472,5.76 -3.984,0 -5.472,-1.44 -5.472,-5.76 v -13.68 h -6.24 v 14.16 c 0,8.016 4.416,11.04 11.712,11.04 7.296,0 11.712,-3.024 11.712,-11.04 z m 21.001,-14.16 H 239.966 V 771 h 6.24 v -18.96 h 9.216 z m 38.736,5.76 v -5.76 h -6.576 v -8.88 h -6.24 v 8.88 h -3.84 v 5.76 h 3.84 V 771 h 12.816 v -5.76 h -6.576 v -13.2 z m 6.241,-14.64 v 4.8 h 6.24 v -4.8 z m 0,8.88 V 771 h 6.24 v -24.72 z m 10.759,12.336 c 0,7.536 3.696,12.864 11.376,12.864 7.104,0 10.8,-4.848 10.8,-10.56 h -6.24 c -0.192,2.736 -0.96,4.8 -4.464,4.8 -4.224,0 -5.232,-2.304 -5.232,-7.104 0,-4.8 1.008,-7.056 5.232,-7.056 3.504,0 4.272,2.064 4.464,4.8 h 6.24 c 0,-5.712 -3.696,-10.56 -10.8,-10.56 -7.68,0 -11.376,5.28 -11.376,12.816 z m 50.453,-12.336 h -7.488 l -6.48,9.504 h -3.504 V 737.4 h -6.24 V 771 h 6.24 v -9.456 h 3.504 l 6.48,9.456 h 7.488 l -8.496,-12.336 z m 22.899,11.856 c 0,-7.2 -2.976,-12.336 -10.752,-12.336 -7.968,0 -10.944,5.52 -10.944,12.864 0,4.992 1.584,12.816 12.672,12.816 1.824,0 3.648,0 7.392,-0.864 v -5.664 c -3.312,0.768 -5.472,0.768 -6.912,0.768 -4.8,0 -6.288,-1.776 -6.72,-4.8 h 15.264 z m -10.848,-6.576 c 3.072,0 4.416,1.44 4.608,4.8 h -9.168 c 0.192,-3.216 1.584,-4.8 4.56,-4.8 z m 30.371,0.48 v -5.76 h -6.576 v -8.88 h -6.24 v 8.88 h -3.84 v 5.76 h 3.84 V 771 h 12.816 v -5.76 h -6.576 v -13.2 z m 5.058,16.368 c 3.504,2.352 6.912,3.072 10.656,3.072 5.616,0 9.984,-2.832 9.984,-7.728 0,-4.752 -2.736,-6.288 -9.936,-7.776 -3.84,-0.816 -4.464,-1.488 -4.464,-2.688 0,-1.104 0.816,-1.728 2.544,-1.728 2.64,0 6.432,0.768 9.936,2.496 v -5.76 c -2.352,-1.632 -6.24,-2.496 -9.456,-2.496 -5.136,0 -9.264,2.256 -9.264,7.2 0,3.792 2.16,6.768 9.696,7.92 3.84,0.624 4.704,1.296 4.704,2.688 0,1.2 -0.96,2.112 -3.264,2.112 -3.552,0 -6.768,-0.864 -11.136,-3.6 z M 466.506,745.8 c -2.976,0 -5.376,1.056 -7.008,3.456 V 737.4 h -6.24 V 771 h 6.24 v -3.024 c 1.632,2.448 4.032,3.504 7.008,3.504 7.44,0 10.656,-5.808 10.656,-12.864 0,-7.056 -3.216,-12.816 -10.656,-12.816 z m -1.296,19.92 c -3.984,0 -5.712,-2.16 -5.712,-7.104 0,-4.896 1.728,-7.056 5.712,-7.056 3.984,0 5.712,2.16 5.712,7.056 0,4.944 -1.728,7.104 -5.712,7.104 z m 37.238,-7.584 c 0,-7.2 -2.976,-12.336 -10.752,-12.336 -7.968,0 -10.944,5.52 -10.944,12.864 0,4.992 1.584,12.816 12.672,12.816 1.824,0 3.648,0 7.392,-0.864 v -5.664 c -3.312,0.768 -5.472,0.768 -6.912,0.768 -4.8,0 -6.288,-1.776 -6.72,-4.8 h 15.264 z M 491.6,751.56 c 3.072,0 4.416,1.44 4.608,4.8 h -9.168 c 0.192,-3.216 1.584,-4.8 4.56,-4.8 z m 30.61,-8.4 v -5.76 h -13.056 v 9.6 h -3.84 v 5.76 h 3.84 V 771 h 6.24 v -18.24 h 6.816 V 747 h -6.816 v -3.84 z m 14.603,28.32 c 7.776,0 11.952,-5.328 11.952,-12.864 0,-7.536 -4.176,-12.816 -11.952,-12.816 -7.776,0 -11.952,5.28 -11.952,12.816 0,7.536 4.176,12.864 11.952,12.864 z m 0,-5.76 c -4.224,0 -5.712,-1.824 -5.712,-7.104 0,-5.28 1.488,-7.056 5.712,-7.056 4.224,0 5.712,1.776 5.712,7.056 0,5.28 -1.488,7.104 -5.712,7.104 z m 31.453,-19.44 H 552.81 V 771 h 6.24 v -18.96 h 9.216 z m 24.322,11.856 c 0,-7.2 -2.976,-12.336 -10.752,-12.336 -7.968,0 -10.944,5.52 -10.944,12.864 0,4.992 1.584,12.816 12.672,12.816 1.824,0 3.648,0 7.392,-0.864 v -5.664 c -3.312,0.768 -5.472,0.768 -6.912,0.768 -4.8,0 -6.288,-1.776 -6.72,-4.8 h 15.264 z M 581.74,751.56 c 3.072,0 4.416,1.44 4.608,4.8 h -9.168 c 0.192,-3.216 1.584,-4.8 4.56,-4.8 z m 50.058,0.48 v -5.76 h -6.576 v -8.88 h -6.24 v 8.88 h -3.84 v 5.76 h 3.84 V 771 h 12.816 v -5.76 h -6.576 v -13.2 z m 28.099,-5.76 h -16.32 v -8.88 h -6.24 V 771 h 6.24 v -18.96 h 10.08 V 771 h 6.24 z m 26.019,11.856 c 0,-7.2 -2.976,-12.336 -10.752,-12.336 -7.968,0 -10.944,5.52 -10.944,12.864 0,4.992 1.584,12.816 12.672,12.816 1.824,0 3.648,0 7.392,-0.864 v -5.664 c -3.312,0.768 -5.472,0.768 -6.912,0.768 -4.8,0 -6.288,-1.776 -6.72,-4.8 h 15.264 z m -10.848,-6.576 c 3.072,0 4.416,1.44 4.608,4.8 h -9.168 c 0.192,-3.216 1.584,-4.8 4.56,-4.8 z m 32.082,-5.28 v 11.52 c 0,3.84 -1.728,5.52 -5.472,5.52 -3.744,0 -5.472,-1.68 -5.472,-5.52 v -11.52 h -6.24 v 11.76 c 0,6.576 2.976,11.04 10.512,11.04 2.88,0 5.232,-1.056 6.672,-2.64 v 6.48 h -13.92 v 5.76 h 20.16 v -32.4 z M 757.959,765 v -18.72 h -18.72 v 5.52 h 12.48 v 5.28 c -1.2,-1.776 -3.072,-2.88 -6.672,-2.88 -5.856,0 -8.592,4.224 -8.592,8.64 0,4.416 2.736,8.64 8.592,8.64 3.6,0 5.472,-1.152 6.672,-2.88 v 2.4 h 9.36 v -6 z m -10.752,1.296 c -3.264,0 -4.512,-1.536 -4.512,-3.456 0,-1.92 1.248,-3.456 4.512,-3.456 3.264,0 4.512,1.536 4.512,3.456 0,1.92 -1.248,3.456 -4.512,3.456 z M 781.078,746.28 H 765.622 V 771 h 6.24 v -18.96 h 9.216 z m 24.323,11.856 c 0,-7.2 -2.976,-12.336 -10.752,-12.336 -7.968,0 -10.944,5.52 -10.944,12.864 0,4.992 1.584,12.816 12.672,12.816 1.824,0 3.648,0 7.392,-0.864 v -5.664 c -3.312,0.768 -5.472,0.768 -6.912,0.768 -4.8,0 -6.288,-1.776 -6.72,-4.8 h 15.264 z m -10.848,-6.576 c 3.072,0 4.416,1.44 4.608,4.8 h -9.168 c 0.192,-3.216 1.584,-4.8 4.56,-4.8 z m 33.882,16.848 c 3.504,2.352 6.912,3.072 10.656,3.072 5.616,0 9.984,-2.832 9.984,-7.728 0,-4.752 -2.736,-6.288 -9.936,-7.776 -3.84,-0.816 -4.464,-1.488 -4.464,-2.688 0,-1.104 0.816,-1.728 2.544,-1.728 2.64,0 6.432,0.768 9.936,2.496 v -5.76 c -2.352,-1.632 -6.24,-2.496 -9.456,-2.496 -5.136,0 -9.264,2.256 -9.264,7.2 0,3.792 2.16,6.768 9.696,7.92 3.84,0.624 4.704,1.296 4.704,2.688 0,1.2 -0.96,2.112 -3.264,2.112 -3.552,0 -6.768,-0.864 -11.136,-3.6 z m 35.94,3.072 c 7.776,0 11.952,-5.328 11.952,-12.864 0,-7.536 -4.176,-12.816 -11.952,-12.816 -7.776,0 -11.952,5.28 -11.952,12.816 0,7.536 4.176,12.864 11.952,12.864 z m 0,-5.76 c -4.224,0 -5.712,-1.824 -5.712,-7.104 0,-5.28 1.488,-7.056 5.712,-7.056 4.224,0 5.712,1.776 5.712,7.056 0,5.28 -1.488,7.104 -5.712,7.104 z M 880.383,737.4 V 771 h 6.24 v -33.6 z m 28.189,0 v 11.856 c -1.632,-2.4 -4.032,-3.456 -7.008,-3.456 -7.44,0 -10.656,5.76 -10.656,12.816 0,7.056 3.216,12.864 10.656,12.864 2.976,0 5.376,-1.056 7.008,-3.504 V 771 h 6.24 v -33.6 z m -5.712,28.32 c -3.984,0 -5.712,-2.16 -5.712,-7.104 0,-4.896 1.728,-7.056 5.712,-7.056 3.984,0 5.712,2.16 5.712,7.056 0,4.944 -1.728,7.104 -5.712,7.104 z m 46.969,5.76 c 7.776,0 11.952,-5.328 11.952,-12.864 0,-7.536 -4.176,-12.816 -11.952,-12.816 -7.776,0 -11.952,5.28 -11.952,12.816 0,7.536 4.176,12.864 11.952,12.864 z m 0,-5.76 c -4.224,0 -5.712,-1.824 -5.712,-7.104 0,-5.28 1.488,-7.056 5.712,-7.056 4.224,0 5.712,1.776 5.712,7.056 0,5.28 -1.488,7.104 -5.712,7.104 z m 39.702,-5.28 v -14.16 h -6.24 v 13.68 c 0,4.32 -1.488,5.76 -5.472,5.76 -3.984,0 -5.472,-1.44 -5.472,-5.76 v -13.68 h -6.24 v 14.16 c 0,8.016 4.416,11.04 11.712,11.04 7.296,0 11.712,-3.024 11.712,-11.04 z m 20.739,-8.4 v -5.76 h -6.58 v -8.88 h -6.239 v 8.88 h -3.84 v 5.76 h 3.84 V 771 h 12.819 v -5.76 h -6.58 v -13.2 z m 5.76,10.32 h 6.24 v -24 h -6.24 z m 0,3.84 v 4.8 h 6.24 v -4.8 z"
       id="path19525"
       inkscape:connector-curvature="0"
       style="fill:#ffffff" />
    <g
       clip-path="url(#clip1)"
       id="g19539">
      <path
         d="M269.466 676.48V622.72H256.986V688H294.234V676.48H269.466ZM345.324 676V638.56H307.884V649.6H332.844V660.16C330.444 656.608 326.7 654.4 319.5 654.4C307.788 654.4 302.316 662.848 302.316 671.68C302.316 680.512 307.788 688.96 319.5 688.96C326.7 688.96 330.444 686.656 332.844 683.2V688H351.564V676H345.324ZM323.82 678.592C317.292 678.592 314.796 675.52 314.796 671.68C314.796 667.84 317.292 664.768 323.82 664.768C330.348 664.768 332.844 667.84 332.844 671.68C332.844 675.52 330.348 678.592 323.82 678.592ZM360.182 682.816C367.19 687.52 374.006 688.96 381.494 688.96C392.726 688.96 401.462 683.296 401.462 673.504C401.462 664 395.99 660.928 381.59 657.952C373.91 656.32 372.662 654.976 372.662 652.576C372.662 650.368 374.294 649.12 377.75 649.12C383.03 649.12 390.614 650.656 397.622 654.112V642.592C392.918 639.328 385.142 637.6 378.71 637.6C368.438 637.6 360.182 642.112 360.182 652C360.182 659.584 364.502 665.536 379.574 667.84C387.254 669.088 388.982 670.432 388.982 673.216C388.982 675.616 387.062 677.44 382.454 677.44C375.35 677.44 368.918 675.712 360.182 670.24V682.816ZM439.596 650.08V638.56H426.444V620.8H413.964V638.56H406.284V650.08H413.964V688H439.596V676.48H426.444V650.08H439.596ZM484.753 663.232C484.753 678.304 492.145 688.96 507.505 688.96C521.713 688.96 529.105 679.264 529.105 667.84H516.625C516.241 673.312 514.705 677.44 507.697 677.44C499.249 677.44 497.233 672.832 497.233 663.232C497.233 653.632 499.249 649.12 507.697 649.12C514.705 649.12 516.241 653.248 516.625 658.72H529.105C529.105 647.296 521.713 637.6 507.505 637.6C492.145 637.6 484.753 648.16 484.753 663.232ZM583.356 638.56H550.716V620.8H538.236V688H550.716V650.08H570.876V688H583.356V638.56ZM635.48 676V638.56H598.04V649.6H623V660.16C620.6 656.608 616.856 654.4 609.656 654.4C597.944 654.4 592.472 662.848 592.472 671.68C592.472 680.512 597.944 688.96 609.656 688.96C616.856 688.96 620.6 686.656 623 683.2V688H641.72V676H635.48ZM613.976 678.592C607.448 678.592 604.952 675.52 604.952 671.68C604.952 667.84 607.448 664.768 613.976 664.768C620.504 664.768 623 667.84 623 671.68C623 675.52 620.504 678.592 613.976 678.592ZM696.489 638.56H651.369V688H663.849V650.08H684.009V688H696.489V638.56ZM705.066 663.232C705.066 678.304 712.458 688.96 727.818 688.96C742.026 688.96 749.418 679.264 749.418 667.84H736.938C736.554 673.312 735.018 677.44 728.01 677.44C719.562 677.44 717.546 672.832 717.546 663.232C717.546 653.632 719.562 649.12 728.01 649.12C735.018 649.12 736.554 653.248 736.938 658.72H749.418C749.418 647.296 742.026 637.6 727.818 637.6C712.458 637.6 705.066 648.16 705.066 663.232ZM800.02 662.272C800.02 647.872 794.068 637.6 778.516 637.6C762.58 637.6 756.628 648.64 756.628 663.328C756.628 673.312 759.796 688.96 781.972 688.96C785.62 688.96 789.268 688.96 796.756 687.232V675.904C790.132 677.44 785.812 677.44 782.932 677.44C773.332 677.44 770.356 673.888 769.492 667.84H800.02V662.272ZM778.324 649.12C784.468 649.12 787.156 652 787.54 658.72H769.204C769.588 652.288 772.372 649.12 778.324 649.12ZM811.494 670.72H823.974V622.72H811.494V670.72ZM811.494 678.4V688H823.974V678.4H811.494Z"
         id="path19533"
         fill="white" />
      <g
         id="g19537"
         style="fill:#000000;fill-opacity:0.10196079;stroke:none;stroke-opacity:0.02352941;stroke-linejoin:round"
         filter="url(#filter0_d)">
        <path
           d="M332.8 307.808C330.3 308.608 326.8 310.108 325.2 311.208C321.5 313.908 313.8 323.108 312.2 326.808C311.4 328.508 309.6 331.408 308.1 333.308C303.8 338.708 299 349.808 299 354.108C299 360.208 302.6 372.808 305.4 377.008C306.8 379.108 308 381.408 308 382.108C308 383.008 302.3 383.408 284.3 383.608C248.9 384.008 200 383.408 200 382.608C200 381.708 207.9 371.008 208.8 370.708C209.2 370.508 213 371.308 217.3 372.308C221.5 373.308 225 373.808 225 373.508C225 373.208 222.7 371.408 220 369.608C217.2 367.908 215 366.008 215 365.508C215 365.008 215.7 363.308 216.5 361.808C217.3 360.208 218 357.408 218 355.508C218 353.208 219.3 350.008 222 346.008C225.1 341.108 229 332.808 229 330.808C229 329.508 225.2 330.808 221.5 333.408C219.1 335.008 216.9 336.408 216.5 336.408C215.5 336.408 210 332.108 210 331.308C210 330.908 211.9 329.308 214.3 327.908L218.5 325.208L214.1 325.708C210.9 326.108 208.5 325.708 205.6 324.308C201 322.108 198.9 321.908 197.3 323.508C196.4 324.408 195.3 324.408 193 323.408C190.6 322.408 189.3 322.408 187.4 323.308C185.6 324.108 183.1 324.108 178.5 323.408C168.4 321.808 162.9 323.408 150 332.008C136.1 341.208 135.5 342.108 133.9 359.108C132.6 371.808 132.7 372.508 137.4 379.608L139.2 382.408L121.4 382.508C111.5 382.608 57.7 382.608 1.8 382.408L-100 382.208V385.308C-100 388.008 -99.6 388.408 -97.2 388.408C-95.7 388.508 -40.3 388.708 26 389.008C141.8 389.408 146.7 389.508 151 391.408C158.2 394.408 169 397.408 172.9 397.408C174.9 397.408 178.3 396.708 180.5 395.908C182.7 395.108 186.4 394.508 188.6 394.408C191.6 394.408 193.1 393.808 194.1 392.308C195.5 390.308 196.2 390.308 254.3 390.108L313 390.008L319.8 398.308C323.5 402.908 328.2 409.208 330.4 412.308C332.5 415.408 336.6 421.108 339.5 424.908C343 429.608 345.5 434.308 346.9 438.708C348 442.408 349.5 446.408 350.1 447.708C353.4 454.108 359.1 456.808 363.2 454.008C364.4 453.108 366.9 452.408 368.7 452.408C371.1 452.408 372.4 451.708 373.9 449.508C376.9 445.308 376.5 441.408 372.1 430.308C368.7 422.008 368 419.008 367.4 410.208C366.9 401.708 367 399.208 368.3 396.808C369.1 395.108 369.8 393.108 369.7 392.208C369.5 390.808 376.7 390.608 443.5 390.308L517.4 389.908L518.6 394.408C519.2 396.908 520.2 401.108 520.9 403.908C521.6 406.608 522.9 409.608 523.9 410.408C525.1 411.408 526.6 415.808 528.3 423.908C530.4 433.808 530.8 437.508 530.3 445.108C530 450.108 530 455.408 530.4 456.808C530.7 458.208 533 460.908 535.5 462.708C539.7 466.008 540.3 466.108 547.1 465.808C553.3 465.508 555 465.008 558.5 462.508C565 457.808 565.6 455.408 563.9 440.608C562.4 428.108 562.4 427.808 564.8 417.908C566.1 412.408 568 406.308 569 404.408C570 402.408 571.3 399.108 571.9 396.908C572.5 394.708 573.3 392.408 573.8 391.708C574.6 390.408 588.9 390.208 656.2 390.308L691.8 390.408L692.9 393.608C693.4 395.408 694.2 399.208 694.5 402.108C695.2 407.608 697.6 410.708 700.6 410.208C702.1 410.008 703.1 411.808 706.1 419.908C709.7 429.608 709.8 430.308 709.9 443.708C710 451.408 710.5 458.408 711.1 459.508C712.6 462.508 720.9 467.408 724.3 467.408C725.8 467.408 728 466.908 729 466.408C730.2 465.708 732.4 465.708 734.9 466.308C738.8 467.108 739.2 467.008 743.5 463.008C747.4 459.308 748 458.208 748 454.608C748 452.408 747.3 447.508 746.4 443.708C744.4 435.508 743.8 406.308 745.6 405.708C749.4 404.408 750.4 402.508 750.8 395.908L751.2 389.208L755.8 389.808C758.2 390.108 768.4 390.408 778.3 390.408H796.2L795.6 393.908C795.3 395.808 794.7 399.108 794.3 401.108C793.7 404.608 793.8 404.808 795.3 403.508C796.8 402.308 797 402.508 797 406.008C797 408.208 795.7 415.508 794.1 422.208C792.5 429.008 791.6 434.208 792 433.708C792.5 433.308 793.8 429.208 794.9 424.708C796.9 416.408 801.6 405.408 803.1 405.408C804.3 405.408 803.3 420.908 801.9 425.108C801.3 427.008 801 429.408 801.3 430.508C801.6 431.608 801 435.508 799.9 439.208C797.3 448.308 797.5 452.008 800.6 456.108C802.5 458.608 803.9 459.408 806.3 459.408C808.1 459.408 810.1 459.808 810.9 460.308C813.2 461.708 821.5 457.108 822.8 453.708C823.4 452.208 824.4 447.908 825.1 444.108C825.7 440.408 826.6 437.408 827.1 437.408C828.4 437.408 832.8 427.508 834.6 420.408C835.4 416.808 837.1 412.308 838.3 410.408C841.4 405.308 849 398.008 852.7 396.508C854.5 395.808 856.3 394.008 857 392.308C858.4 389.108 860.4 389.408 859.6 392.708C859.3 394.008 859.5 393.808 860.2 392.108L861.4 389.408H894.8H928.1L932.7 392.908C935.3 394.908 938 396.208 938.7 396.008C939.4 395.708 941.8 396.108 944 396.908C949.1 398.708 962.7 398.208 968.9 395.908C972.2 394.808 973.5 394.708 974.1 395.508C974.6 396.308 976.8 395.608 981.4 393.008L988.1 389.408H1060.8C1100.8 389.408 1144 389.108 1156.8 388.708L1180 388.108V385.408V382.808L1081.2 383.208C970.3 383.708 978 384.208 981.9 376.508C983.1 374.308 984 371.108 984 369.408C984 367.808 984.5 366.408 985.1 366.408C985.9 366.408 986.1 364.508 985.7 360.408C985.2 354.908 984.5 353.208 978 342.408C977.5 341.608 976.6 339.508 975.8 337.708C975 335.608 973.3 334.008 971 333.008C965.9 330.808 961.3 330.108 960.5 331.408C960.1 332.108 957 332.208 951.6 331.908L943.3 331.408L937.4 335.308C925.5 343.008 922.1 349.208 921.3 363.908C920.9 369.408 921.3 372.308 922.9 376.408C924.1 379.408 925 382.208 925 382.708C925 383.108 912.1 383.308 896.3 383.208L867.5 382.908L867.2 375.508C867 370.208 867.4 367.108 868.5 364.708C870.3 360.908 870.1 358.108 866.8 344.708C865.2 338.008 864 335.508 860.8 331.908C858.6 329.408 855.2 326.708 853.4 325.908C851.5 325.108 849.5 323.408 848.8 321.908C848.1 320.308 846.3 319.008 843.9 318.208C840.6 317.308 839.3 317.408 834.3 319.408C831.1 320.608 826.3 322.408 823.7 323.408C820.8 324.408 817 327.008 814.5 329.508C812.2 331.908 808.6 335.208 806.6 336.708C802.8 339.708 801.5 343.208 800 353.508C799.5 356.708 798.6 360.208 797.9 361.508C797.1 363.008 797.1 363.908 797.7 364.108C798.4 364.408 798.4 365.808 797.8 368.408C797.2 370.608 797.1 373.208 797.5 374.108C798.3 375.908 798.3 378.208 797.5 382.008C797.1 384.008 796.5 384.108 789.3 383.908C785 383.708 775.8 383.508 768.8 383.508L756 383.408V380.408C756 378.708 755.4 376.308 754.6 375.108C753.5 373.508 753.2 370.008 753.4 361.408C753.8 339.808 749.9 333.508 732.8 327.808C726.7 325.908 726 325.108 726 320.708C726 316.808 723 314.408 718.2 314.408C713.2 314.408 708.3 316.908 703 322.108C700.4 324.808 696.6 328.208 694.6 329.708C692 331.808 691 333.408 691 335.408C691 337.408 690.4 338.508 689 338.908C683.6 340.608 681.6 354.108 684.4 370.108C685.4 375.508 686.6 380.708 687.1 381.608C688.2 383.708 694 383.408 634 384.008C611.7 384.308 589.8 384.208 585.3 383.808C576.1 383.208 575.7 382.808 578.4 376.308C582.3 366.708 580.6 345.608 575.4 339.508C574.1 337.908 573 335.508 573 334.208C573 332.908 572.3 330.808 571.4 329.608C569.8 327.208 562.4 323.108 557.7 322.008C555.6 321.508 554.4 320.208 553 316.908C551 312.208 548.6 310.408 544.6 310.408C541.7 310.408 536.5 314.508 534.5 318.408C533.7 319.908 530.6 322.608 527.6 324.208C521.9 327.508 518 331.908 518 335.208C518 336.408 517.1 337.508 516 337.908C515 338.208 513.1 340.108 511.9 342.008C510.1 344.908 509.8 347.008 509.8 353.408C510 362.708 511.4 372.408 513.5 378.408C514.3 380.808 514.9 382.908 514.7 383.108C514.3 383.408 412.4 383.808 384.2 383.508L367.8 383.408L368 374.108C368.2 364.608 367.9 361.508 365.4 350.408C363.1 340.208 361.2 336.008 358.2 334.108C356.7 333.208 353.5 330.608 351 328.408C347.2 325.108 346.7 324.108 347.6 322.708C348.2 321.708 349.9 320.808 351.4 320.608C354.7 320.208 354.7 319.108 351.6 317.608C350 316.908 349 315.508 348.8 313.808C348.2 308.308 340.9 305.508 332.8 307.808Z"
           id="path19535"
           style="fill:#000000;fill-opacity:0.10196079;stroke:none;stroke-opacity:0.02352941;stroke-linejoin:round"
           fill="white" />
      </g>
    </g>
    <path
       d="M531.021 1007.98L527.792 1011.06C528.876 1012.17 531.317 1014.33 531.317 1014.33C531.317 1014.33 536.461 1018.88 538.679 1022.11L540.545 1024.81L542.349 1022.06C544.492 1018.8 549.74 1014.1 549.74 1014.1C549.74 1014.1 551.968 1012.1 552.974 1011.08L549.682 1008.07L540.465 1017.11L531.021 1007.98Z"
       id="path19541"
       fill="white" />
    <path
       d="M547.756 990C546.556 990 545.387 990.219 544.29 990.622V990.62C544.276 990.625 544.262 990.631 544.248 990.637C544.18 990.662 544.114 990.69 544.047 990.717C543.91 990.771 543.774 990.828 543.64 990.888C543.563 990.922 543.488 990.957 543.413 990.993C543.284 991.055 543.157 991.119 543.032 991.185C542.963 991.222 542.894 991.258 542.826 991.296C542.663 991.386 542.503 991.482 542.346 991.582C542.32 991.598 542.292 991.613 542.266 991.629C542.195 991.675 542.128 991.726 542.058 991.774V997.498L543.778 996.096C543.941 995.94 544.111 995.792 544.29 995.657C545.276 994.91 546.488 994.48 547.756 994.48C550.959 994.48 553.564 997.111 553.564 1000.34C553.564 1002.45 552.886 1004.13 551.748 1005.71L555.048 1008.73C556.811 1006.43 558 1003.8 558 1000.34C558 994.641 553.405 990 547.756 990Z"
       id="path19543"
       fill="white" />
    <path
       d="M537.248 996.122L538.942 997.503V991.774C538.903 991.748 538.866 991.72 538.827 991.694C538.77 991.657 538.714 991.619 538.657 991.583C538.499 991.483 538.338 991.387 538.174 991.296C538.093 991.25 538.009 991.208 537.926 991.164C537.818 991.107 537.709 991.051 537.598 990.999C537.505 990.954 537.412 990.911 537.318 990.87C537.212 990.823 537.105 990.779 536.998 990.736C536.902 990.697 536.807 990.658 536.71 990.622C536.692 990.616 536.676 990.608 536.658 990.602V990.605C535.576 990.214 534.425 990 533.244 990C527.596 990 523 994.641 523 1000.34C523 1003.8 524.099 1006.42 525.753 1008.67L529.016 1005.57C528.019 1004.06 527.435 1002.41 527.435 1000.34C527.435 997.111 530.041 994.48 533.244 994.48C534.49 994.48 535.682 994.894 536.658 995.618C536.839 995.751 537.011 995.898 537.176 996.053C537.194 996.07 537.213 996.087 537.231 996.104C537.237 996.109 537.242 996.116 537.248 996.122Z"
       id="path19545"
       fill="white" />
    <text
       xml:space="preserve"
       style="font-style:normal;font-variant:normal;font-weight:normal;font-stretch:normal;font-size:36.24159622px;line-height:1.25;font-family:'Merriweather Sans';-inkscape-font-specification:'Merriweather Sans';text-align:center;letter-spacing:0px;word-spacing:0px;text-anchor:middle;fill:#ffffff;fill-opacity:1;stroke:none;stroke-width:0.75503325"
       x="540.18958"
       y="954.01007"
       id="text20246"><tspan
         sodipodi:role="line"
         id="tspan20244"
         x="540.18958"
         y="954.01007"
         style="font-style:normal;font-variant:normal;font-weight:bold;font-stretch:normal;font-size:36px;font-family:'Gosha Sans';-inkscape-font-specification:'Gosha Sans Bold';text-align:center;text-anchor:middle;fill:#ffffff;fill-opacity:1;stroke-width:0.75503325">codeday.org/{{url}}</tspan></text>
    <text
       xml:space="preserve"
       style="font-style:normal;font-variant:normal;font-weight:normal;font-stretch:normal;font-size:80px;line-height:1.25;font-family:'Merriweather Sans';-inkscape-font-specification:'Merriweather Sans';text-align:start;letter-spacing:0px;word-spacing:0px;text-anchor:start;fill:#ffffff;fill-opacity:1;stroke:none;stroke-width:1.68131554"
       x="29.647499"
       y="110.2"
       id="text20954"><tspan
         sodipodi:role="line"
         id="tspan20952"
         x="29.647499"
         y="110.2"
         style="font-style:normal;font-variant:normal;font-weight:bold;font-stretch:normal;font-size:80px;font-family:'Gosha Sans';-inkscape-font-specification:'Gosha Sans Bold';text-align:start;text-anchor:start;fill:#ffffff;fill-opacity:1;stroke-width:1.68131554">CodeDay </tspan><tspan
         sodipodi:role="line"
         x="29.647499"
         y="210.57295"
         style="font-style:normal;font-variant:normal;font-weight:bold;font-stretch:normal;font-size:80px;font-family:'Gosha Sans';-inkscape-font-specification:'Gosha Sans Bold';text-align:start;text-anchor:start;fill:#ffffff;fill-opacity:1;stroke-width:1.68131554"
         id="tspan20956">{{name}}</tspan></text>
    <text
       xml:space="preserve"
       style="font-style:normal;font-variant:normal;font-weight:normal;font-stretch:normal;font-size:36.83836365px;line-height:1.25;font-family:'Merriweather Sans';-inkscape-font-specification:'Merriweather Sans';text-align:end;letter-spacing:0px;word-spacing:0px;text-anchor:end;fill:#ffffff;fill-opacity:1;stroke:none;stroke-width:0.76746589;"
       x="1042.0365"
       y="75.020927"
       id="text20960"><tspan
         sodipodi:role="line"
         id="tspan20958"
         x="1042.0365"
         y="75.020927"
         style="font-style:normal;font-variant:normal;font-weight:bold;font-stretch:normal;font-size:36px;font-family:'Gosha Sans';-inkscape-font-specification:'Gosha Sans Bold';stroke-width:0.76746589;fill:#ffffff;fill-opacity:1;">{{short_month}}. {{day}}-{{day+1}}, {{year}}</tspan></text>
    <text
       xml:space="preserve"
       style="font-style:normal;font-variant:normal;font-weight:normal;font-stretch:normal;font-size:23.95904732px;line-height:1.25;font-family:'Merriweather Sans';-inkscape-font-specification:'Merriweather Sans';text-align:end;letter-spacing:0px;word-spacing:0px;text-anchor:end;fill:#ffffff;fill-opacity:1;stroke:none;stroke-width:0.49914682;"
       x="1042.0237"
       y="114.13612"
       id="text20964"><tspan
         sodipodi:role="line"
         id="tspan20962"
         x="1042.0237"
         y="114.13612"
         style="font-style:normal;font-variant:normal;font-weight:bold;font-stretch:normal;font-size:24px;font-family:'Gosha Sans';-inkscape-font-specification:'Gosha Sans Bold';stroke-width:0.49914682;fill:#ffffff;fill-opacity:1;">{{current_event.venue['name']}}</tspan></text>
    <text
       xml:space="preserve"
       style="font-style:normal;font-variant:normal;font-weight:normal;font-stretch:normal;font-size:36.24159622px;line-height:1.25;font-family:'Merriweather Sans';-inkscape-font-specification:'Merriweather Sans';text-align:center;letter-spacing:0px;word-spacing:0px;text-anchor:middle;fill:#ffffff;fill-opacity:1;stroke:none;stroke-width:0.75503325"
       x="540.18951"
       y="842.10138"
       id="text20246-3"><tspan
         sodipodi:role="line"
         id="tspan20244-6"
         x="540.18951"
         y="842.10138"
         style="font-style:normal;font-variant:normal;font-weight:bold;font-stretch:normal;font-size:36px;font-family:'Gosha Sans';-inkscape-font-specification:'Gosha Sans Bold';text-align:center;text-anchor:middle;fill:#ffffff;fill-opacity:1;stroke-width:0.75503325">{%if promo%}Use code {{promo}} for {%if promoFor%}{{promoFor}}{%else%}a discount{%endif%}.{%endif%}</tspan></text>
  </g>
  <defs
     id="defs19575">
    <filter
       id="filter0_d"
       x="-120"
       y="291"
       width="1320"
       height="200.408"
       filterUnits="userSpaceOnUse"
       color-interpolation-filters="sRGB">
      <feFlood
         flood-opacity="0"
         result="BackgroundImageFix"
         id="feFlood19549" />
      <feColorMatrix
         in="SourceAlpha"
         type="matrix"
         values="0 0 0 0 0 0 0 0 0 0 0 0 0 0 0 0 0 0 127 0"
         id="feColorMatrix19551" />
      <feOffset
         dy="4"
         id="feOffset19553" />
      <feGaussianBlur
         stdDeviation="10"
         id="feGaussianBlur19555" />
      <feColorMatrix
         type="matrix"
         values="0 0 0 0 0 0 0 0 0 0 0 0 0 0 0 0 0 0 0.25 0"
         id="feColorMatrix19557" />
      <feBlend
         mode="normal"
         in2="BackgroundImageFix"
         result="effect1_dropShadow"
         id="feBlend19559" />
      <feBlend
         mode="normal"
         in="SourceGraphic"
         in2="effect1_dropShadow"
         result="shape"
         id="feBlend19561" />
    </filter>
    <linearGradient
       id="paint0_linear"
       x1="1080"
       y1="0"
       x2="0"
       y2="1080"
       gradientUnits="userSpaceOnUse">
      <stop
         stop-color="#FF8057"
         id="stop19564" />
      <stop
         offset="1"
         stop-color="#E7667D"
         id="stop19566" />
    </linearGradient>
    <clipPath
       id="clip0">
      <rect
         width="1080"
         height="1080"
         fill="white"
         id="rect19569" />
    </clipPath>
    <clipPath
       id="clip1">
      <rect
         width="1280"
         height="640"
         fill="white"
         transform="translate(-100 67)"
         id="rect19572" />
    </clipPath>
  </defs>
</svg>
