<?xml version="1.0" encoding="UTF-8" standalone="no"?>
<!-- Generator: Adobe Illustrator 23.1.0, SVG Export Plug-In . SVG Version: 6.00 Build 0)  -->

<svg
   xmlns:dc="http://purl.org/dc/elements/1.1/"
   xmlns:cc="http://creativecommons.org/ns#"
   xmlns:rdf="http://www.w3.org/1999/02/22-rdf-syntax-ns#"
   xmlns:svg="http://www.w3.org/2000/svg"
   xmlns="http://www.w3.org/2000/svg"
   xmlns:sodipodi="http://sodipodi.sourceforge.net/DTD/sodipodi-0.dtd"
   xmlns:inkscape="http://www.inkscape.org/namespaces/inkscape"
   version="1.1"
   id="Layer_1"
   x="0px"
   y="0px"
   viewBox="0 0 612 792"
   style="enable-background:new 0 0 612 792;"
   xml:space="preserve"
   sodipodi:docname="LongShadowBlue.svg"
   inkscape:version="0.92.3 (2405546, 2018-03-11)"><metadata
   id="metadata1620"><rdf:RDF><cc:Work
       rdf:about=""><dc:format>image/svg+xml</dc:format><dc:type
         rdf:resource="http://purl.org/dc/dcmitype/StillImage" /><dc:title /></cc:Work></rdf:RDF></metadata><defs
   id="defs1618" /><sodipodi:namedview
   pagecolor="#ffffff"
   bordercolor="#666666"
   borderopacity="1"
   objecttolerance="10"
   gridtolerance="10"
   guidetolerance="10"
   inkscape:pageopacity="0"
   inkscape:pageshadow="2"
   inkscape:window-width="1918"
   inkscape:window-height="1060"
   id="namedview1616"
   showgrid="false"
   inkscape:zoom="0.7856742"
   inkscape:cx="-418.32727"
   inkscape:cy="423.43831"
   inkscape:window-x="0"
   inkscape:window-y="18"
   inkscape:window-maximized="0"
   inkscape:current-layer="Layer_1" />
<style
   type="text/css"
   id="style1377">
	.st0{fill:#EAE611;}
	.st1{fill:#FFFFFF;}
	.st2{font-family:'Babushka';}
	.st3{font-size:55.0936px;}
	.st4{font-family:'Sofia Pro';}
	.st5{font-size:25px;}
</style>
<rect
   y="0.5"
   class="st0"
   width="612"
   height="791"
   id="rect1379"
   style="fill:#77cdf4;fill-opacity:1" />
<polygon
   class="st1"
   points="612,226.73 538.81,153.55 520.72,183.19 500.81,163.28 481.74,168.1 467.59,153.95 458.91,153.55   442.31,157.05 396.36,111.1 394.08,113.38 389.42,110.34 354.38,119.06 346.62,173.68 326.49,153.55 314.79,152.93 304.26,155.25   258.89,109.88 239.79,160.6 212.72,167.53 206.49,173.68 186.36,153.55 178.57,152.98 160.58,156.91 115.8,113.26 99.21,114.96   71.06,122.16 63.04,280.09 574.46,791.5 612,791.5 "
   id="polygon1381" />
<g
   id="g1397">
	<path
   d="M118.82,257.7v3.64c0,5-4.32,10.01-9.55,11.37l-38.2,9.55c-5,1.36-9.32-1.59-9.32-6.59V133.31c0-5,4.32-10.01,9.32-11.14   l38.2-9.78c5.23-1.14,9.55,1.59,9.55,6.59v4.09l-18.87,4.32v-4.32c0-3.87-3.64-6.37-7.96-5.23l-3.41,0.91   c-4.09,1.14-7.96,5.23-7.96,9.32v143.26c0,4.32,3.41,6.59,7.73,5.69l3.64-0.91c4.32-1.14,7.96-5.46,7.96-9.55v-4.32L118.82,257.7z"
   id="path1383" />
	<path
   d="M189.08,158.55v102.79c0,5-4.32,10.01-9.55,11.37l-38.2,9.55c-5,1.14-9.55-1.59-9.55-6.59V172.65   c0-4.78,4.55-9.78,9.55-11.14l38.2-9.55C184.76,150.59,189.08,153.55,189.08,158.55z M169.98,162.64c0-4.09-3.41-6.59-7.73-5.46   l-3.41,0.91c-4.32,1.14-7.96,5.23-7.96,9.32v103.92c0,4.09,3.64,6.59,7.96,5.46l3.41-0.68c4.32-1.14,7.73-5.46,7.73-9.32V162.64z"
   id="path1385" />
	<path
   d="M258.89,269.98c0,0-4.09,1.36-47.53,12.28c-5.23,1.14-9.55-1.82-9.55-6.59v-96.65c0-5,4.32-10.01,9.55-11.14l28.43-7.28   v-45.94l19.1-4.78C258.89,132.62,258.89,132.62,258.89,269.98z M239.79,168.78c0-3.87-3.41-6.37-7.73-5.23l-3.41,0.91   c-4.32,0.91-7.96,5.23-7.96,9.1v98.01c0,3.87,3.64,6.37,7.96,5.23l3.64-0.91c4.32-1.14,7.5-5.23,7.5-9.32V168.78z"
   id="path1387" />
	<path
   d="M290.95,220.17v51.17c0,4.09,3.64,6.37,7.96,5.46l3.41-0.91c4.32-1.14,7.73-5.23,7.73-9.32v-4.32l19.1-4.78v3.64   c0,5-4.32,10.01-9.55,11.37l-38.2,9.55c-5.23,1.36-9.55-1.59-9.55-6.59V172.42c0-4.78,4.32-9.78,9.55-11.14l38.2-9.55   c5.23-1.36,9.55,1.59,9.55,6.59v52.3l-38.2,9.78V220.17z M290.95,167.19v50.48l19.1-4.78v-50.48c0-4.09-3.41-6.37-7.73-5.23   l-3.41,0.68C294.59,159,290.95,163.1,290.95,167.19z"
   id="path1389" />
	<path
   d="M398.97,116.93v142.35c0,5-4.32,9.78-9.55,11.14l-47.53,12.05V122.16l47.53-11.82   C394.65,109.2,398.97,111.93,398.97,116.93z M380.09,121.25c0-4.09-3.41-6.59-7.73-5.46l-11.6,2.73V276.8l11.6-2.96   c4.09-0.91,7.73-5.23,7.73-9.32V121.25z"
   id="path1391" />
	<path
   d="M469,158.32v111.65c0,0-4.32,1.36-9.55,2.73l-37.98,9.55c-5.23,1.14-9.55-1.82-9.55-6.59v-72.09c0-5,4.32-10.01,9.55-11.37   l28.43-7.05v-22.51c0-4.09-3.41-6.59-7.73-5.46l-3.41,0.91c-4.32,1.14-7.96,5.23-7.96,9.1v4.55l-18.87,4.78v-3.87   c0-4.78,4.32-10.01,9.55-11.14l37.98-9.55C464.68,150.59,469,153.55,469,158.32z M449.9,193.34c0-4.09-3.41-6.37-7.73-5.46   l-3.41,0.91c-4.32,1.14-7.96,5.23-7.96,9.32v68.9v4.55c0,3.87,3.64,6.14,7.96,5.23l3.41-0.91c4.32-1.14,7.73-5.23,7.73-9.32V193.34   z"
   id="path1393" />
	<path
   d="M538.81,153.55v153.04c0,5-4.09,10.01-9.32,11.37l-38.2,9.55c-5.23,1.36-9.32-1.59-9.32-6.59v-3.87l18.87-4.78v4.55   c0,3.87,3.41,6.37,7.73,5.23l3.64-0.91c4.32-0.91,7.73-5.23,7.73-9.32v-37.07l-28.65,7.28c-5.23,1.14-9.32-1.82-9.32-6.59V167.87   l18.87-4.78v108.24c0,3.87,3.41,6.37,7.73,5.23l3.41-0.91c4.32-1.14,7.96-5.23,7.96-9.32V158.32v-0.23L538.81,153.55z"
   id="path1395" />
</g>
<text
   class="st2 st3"
   id="text1399"
   x="479.59509"
   y="333.22711"
   style="font-size:55.09360123px;font-family:Babushka"><tspan
     style="text-align:end;text-anchor:end"
     id="tspan1622">{{name}}</tspan></text>



<g
   id="g1603"
   style="fill:#ffffff">
	<path
   d="M43.46,630.4H38.3l-1.1,3.3h-2.96l5.14-13.78h3l5.12,13.78h-2.92L43.46,630.4z M42.62,627.98l-1.76-5.18l-1.74,5.18H42.62z   "
   id="path1401"
   style="fill:#ffffff" />
	<path
   d="M55.54,624.44l-0.6,2.5c-0.56-0.3-1.02-0.34-1.34-0.34c-1.34,0-2.26,1.24-2.26,3.9v3.2h-2.62v-9.32h2.6v1.98   c0.52-1.56,1.58-2.22,2.74-2.22C54.56,624.14,55.12,624.22,55.54,624.44z"
   id="path1403"
   style="fill:#ffffff" />
	<path
   d="M62.46,626.4h-1.98v7.3h-2.62v-7.3h-1.7v-2.02h1.7v-3.42h2.62v3.42h1.98V626.4z"
   id="path1405"
   style="fill:#ffffff" />
	<path
   d="M63.8,621.14c0-0.88,0.76-1.56,1.66-1.56c0.92,0,1.66,0.68,1.66,1.56s-0.74,1.58-1.66,1.58   C64.56,622.72,63.8,622.02,63.8,621.14z M64.16,624.38h2.62v9.32h-2.62V624.38z"
   id="path1407"
   style="fill:#ffffff" />
	<path
   d="M68.84,630.71h2.46c0,0.54,0.46,1.12,1.38,1.12c0.76,0,1.34-0.32,1.34-0.86c0-0.4-0.32-0.6-1.02-0.78l-1.24-0.3   c-2.4-0.64-2.72-1.98-2.72-2.96c0-1.44,1.5-2.78,3.66-2.78c1.7,0,3.7,0.84,3.68,3.04h-2.5c0-0.62-0.52-0.96-1.14-0.96   c-0.6,0-1.08,0.3-1.08,0.78c0,0.44,0.4,0.66,0.92,0.8l1.54,0.4c2.24,0.6,2.52,2,2.52,2.76c0,1.96-2,2.92-3.92,2.92   C70.76,633.88,68.86,632.76,68.84,630.71z"
   id="path1409"
   style="fill:#ffffff" />
	<path
   d="M84.16,626.4h-1.98v7.3h-2.62v-7.3h-1.7v-2.02h1.7v-3.42h2.62v3.42h1.98V626.4z"
   id="path1411"
   style="fill:#ffffff" />
	<path
   d="M85.2,630.71h2.46c0,0.54,0.46,1.12,1.38,1.12c0.76,0,1.34-0.32,1.34-0.86c0-0.4-0.32-0.6-1.02-0.78l-1.24-0.3   c-2.4-0.64-2.72-1.98-2.72-2.96c0-1.44,1.5-2.78,3.66-2.78c1.7,0,3.7,0.84,3.68,3.04h-2.5c0-0.62-0.52-0.96-1.14-0.96   c-0.6,0-1.08,0.3-1.08,0.78c0,0.44,0.4,0.66,0.92,0.8l1.54,0.4c2.24,0.6,2.52,2,2.52,2.76c0,1.96-2,2.92-3.92,2.92   C87.12,633.88,85.22,632.76,85.2,630.71z"
   id="path1413"
   style="fill:#ffffff" />
	<path
   d="M93.52,636.33c1.2-1.64,1.72-3.06,1.6-5.22h2.48c0.08,2.52-1.16,4.6-2.58,5.86L93.52,636.33z"
   id="path1415"
   style="fill:#ffffff" />
	<path
   d="M119.86,628.58v5.12h-2.64v-4.92c0-1.46-0.76-2.06-1.68-2.06c-1.04-0.02-1.78,0.64-1.84,2.04v4.94h-2.62v-4.94   c0-1.46-0.76-2.04-1.64-2.04c-0.94,0-1.9,0.44-1.9,2.12v4.86h-2.62v-9.32h2.62v1.66c0.28-1.28,1.6-1.9,2.64-1.9   c1.38,0,2.46,0.66,3,1.8c0.72-1.36,2.16-1.8,3.12-1.8C118.64,624.14,119.86,625.78,119.86,628.58z"
   id="path1417"
   style="fill:#ffffff" />
	<path
   d="M131.36,624.38v9.32h-2.62v-1.52c-0.4,1.22-1.88,1.74-2.8,1.74c-2.44,0-3.72-1.62-3.7-4.42v-5.12h2.62v4.84   c0,1.46,0.88,2.12,1.78,2.12c0.94,0,2.1-0.5,2.1-2.18v-4.78H131.36z"
   id="path1419"
   style="fill:#ffffff" />
	<path
   d="M133.42,630.71h2.46c0,0.54,0.46,1.12,1.38,1.12c0.76,0,1.34-0.32,1.34-0.86c0-0.4-0.32-0.6-1.02-0.78l-1.24-0.3   c-2.4-0.64-2.72-1.98-2.72-2.96c0-1.44,1.5-2.78,3.66-2.78c1.7,0,3.7,0.84,3.68,3.04h-2.5c0-0.62-0.52-0.96-1.14-0.96   c-0.6,0-1.08,0.3-1.08,0.78c0,0.44,0.4,0.66,0.92,0.8l1.54,0.4c2.24,0.6,2.52,2,2.52,2.76c0,1.96-2,2.92-3.92,2.92   C135.34,633.88,133.44,632.76,133.42,630.71z"
   id="path1421"
   style="fill:#ffffff" />
	<path
   d="M142.94,621.14c0-0.88,0.76-1.56,1.66-1.56c0.92,0,1.66,0.68,1.66,1.56s-0.74,1.58-1.66,1.58   C143.7,622.72,142.94,622.02,142.94,621.14z M143.3,624.38h2.62v9.32h-2.62V624.38z"
   id="path1423"
   style="fill:#ffffff" />
	<path
   d="M147.98,629c0-2.96,2.4-4.86,5.12-4.86c1.7,0,3.06,0.8,3.94,2l-1.96,1.38c-0.42-0.58-1.2-0.94-1.96-0.94   c-1.48,0-2.48,1.06-2.48,2.42c0,1.38,1,2.44,2.48,2.44c0.76,0,1.54-0.36,1.96-0.94l1.96,1.38c-0.88,1.22-2.24,2-3.94,2   C150.38,633.88,147.98,631.96,147.98,629z"
   id="path1425"
   style="fill:#ffffff" />
	<path
   d="M158.56,621.14c0-0.88,0.76-1.56,1.66-1.56c0.92,0,1.66,0.68,1.66,1.56s-0.74,1.58-1.66,1.58   C159.32,622.72,158.56,622.02,158.56,621.14z M158.92,624.38h2.62v9.32h-2.62V624.38z"
   id="path1427"
   style="fill:#ffffff" />
	<path
   d="M173.82,624.38v9.32h-2.62v-1.16c-0.66,0.92-1.96,1.34-3,1.34c-2.4,0-4.58-1.86-4.58-4.86s2.18-4.86,4.58-4.86   c1.08,0,2.34,0.4,3,1.34v-1.12H173.82z M171.12,629.02c0-1.44-1.2-2.4-2.42-2.4c-1.32,0-2.42,1.02-2.42,2.4   c0,1.36,1.1,2.42,2.42,2.42C169.98,631.45,171.12,630.44,171.12,629.02z"
   id="path1429"
   style="fill:#ffffff" />
	<path
   d="M185.58,628.58v5.12h-2.62v-4.84c0-1.48-0.88-2.14-1.78-2.14c-0.94,0-2.1,0.5-2.1,2.2v4.78h-2.62v-9.32h2.62v1.56   c0.4-1.26,1.88-1.8,2.8-1.8C184.32,624.14,185.6,625.78,185.58,628.58z"
   id="path1431"
   style="fill:#ffffff" />
	<path
   d="M187.52,630.71h2.46c0,0.54,0.46,1.12,1.38,1.12c0.76,0,1.34-0.32,1.34-0.86c0-0.4-0.32-0.6-1.02-0.78l-1.24-0.3   c-2.4-0.64-2.72-1.98-2.72-2.96c0-1.44,1.5-2.78,3.66-2.78c1.7,0,3.7,0.84,3.68,3.04h-2.5c0-0.62-0.52-0.96-1.14-0.96   c-0.6,0-1.08,0.3-1.08,0.78c0,0.44,0.4,0.66,0.92,0.8l1.54,0.4c2.24,0.6,2.52,2,2.52,2.76c0,1.96-2,2.92-3.92,2.92   C189.44,633.88,187.54,632.76,187.52,630.71z"
   id="path1433"
   style="fill:#ffffff" />
	<path
   d="M195.84,636.33c1.2-1.64,1.72-3.06,1.6-5.22h2.48c0.08,2.52-1.16,4.6-2.58,5.86L195.84,636.33z"
   id="path1435"
   style="fill:#ffffff" />
	<path
   d="M216.88,624.38v9.32h-2.62v-1.16c-0.66,0.92-1.96,1.34-3,1.34c-2.4,0-4.58-1.86-4.58-4.86s2.18-4.86,4.58-4.86   c1.08,0,2.34,0.4,3,1.34v-1.12H216.88z M214.18,629.02c0-1.44-1.2-2.4-2.42-2.4c-1.32,0-2.42,1.02-2.42,2.4   c0,1.36,1.1,2.42,2.42,2.42C213.04,631.45,214.18,630.44,214.18,629.02z"
   id="path1437"
   style="fill:#ffffff" />
	<path
   d="M228.64,628.58v5.12h-2.62v-4.84c0-1.48-0.88-2.14-1.78-2.14c-0.94,0-2.1,0.5-2.1,2.2v4.78h-2.62v-9.32h2.62v1.56   c0.4-1.26,1.88-1.8,2.8-1.8C227.38,624.14,228.66,625.78,228.64,628.58z"
   id="path1439"
   style="fill:#ffffff" />
	<path
   d="M240.8,619.4v14.3h-2.62v-1.16c-0.66,0.92-1.96,1.34-3,1.34c-2.4,0-4.58-1.86-4.58-4.86s2.18-4.86,4.58-4.86   c1.08,0,2.34,0.4,3,1.34v-6.1H240.8z M238.1,629.02c0-1.44-1.2-2.4-2.42-2.4c-1.32,0-2.42,1.02-2.42,2.4c0,1.36,1.1,2.42,2.42,2.42   C236.96,631.45,238.1,630.44,238.1,629.02z"
   id="path1441"
   style="fill:#ffffff" />
	<path
   d="M247.62,629c0-2.96,2.4-4.86,5.12-4.86c1.7,0,3.06,0.8,3.94,2l-1.96,1.38c-0.42-0.58-1.2-0.94-1.96-0.94   c-1.48,0-2.48,1.06-2.48,2.42c0,1.38,1,2.44,2.48,2.44c0.76,0,1.54-0.36,1.96-0.94l1.96,1.38c-0.88,1.22-2.24,2-3.94,2   C250.02,633.88,247.62,631.96,247.62,629z"
   id="path1443"
   style="fill:#ffffff" />
	<path
   d="M257.8,629.02c0-2.96,2.36-4.88,5.02-4.88c2.66,0,5.02,1.92,5.02,4.88c0,2.94-2.36,4.86-5.02,4.86   C260.16,633.88,257.8,631.96,257.8,629.02z M265.18,629.02c0-1.46-1.06-2.44-2.36-2.44c-1.3,0-2.36,0.98-2.36,2.44   c0,1.44,1.06,2.42,2.36,2.42C264.12,631.45,265.18,630.46,265.18,629.02z"
   id="path1445"
   style="fill:#ffffff" />
	<path
   d="M279.54,619.4v14.3h-2.62v-1.16c-0.66,0.92-1.96,1.34-3,1.34c-2.4,0-4.58-1.86-4.58-4.86s2.18-4.86,4.58-4.86   c1.08,0,2.34,0.4,3,1.34v-6.1H279.54z M276.84,629.02c0-1.44-1.2-2.4-2.42-2.4c-1.32,0-2.42,1.02-2.42,2.4   c0,1.36,1.1,2.42,2.42,2.42C275.7,631.45,276.84,630.44,276.84,629.02z"
   id="path1447"
   style="fill:#ffffff" />
	<path
   d="M291.38,629.88h-7.04c0.28,1.08,1.16,1.68,2.42,1.68c0.94,0,1.88-0.38,2.44-1.04l1.54,1.54c-0.88,1.18-2.52,1.82-4.16,1.82   c-2.86,0-4.96-1.96-4.96-4.84c0-3.02,2.28-4.9,4.96-4.9c2.66,0,4.84,1.88,4.84,4.74C291.42,629.14,291.4,629.46,291.38,629.88z    M288.8,628.18c-0.08-1.1-1-1.76-2.18-1.76c-1.06,0-2,0.5-2.28,1.76H288.8z"
   id="path1449"
   style="fill:#ffffff" />
	<path
   d="M300.26,624.44l-0.6,2.5c-0.56-0.3-1.02-0.34-1.34-0.34c-1.34,0-2.26,1.24-2.26,3.9v3.2h-2.62v-9.32h2.6v1.98   c0.52-1.56,1.58-2.22,2.74-2.22C299.28,624.14,299.84,624.22,300.26,624.44z"
   id="path1451"
   style="fill:#ffffff" />
	<path
   d="M300.96,630.71h2.46c0,0.54,0.46,1.12,1.38,1.12c0.76,0,1.34-0.32,1.34-0.86c0-0.4-0.32-0.6-1.02-0.78l-1.24-0.3   c-2.4-0.64-2.72-1.98-2.72-2.96c0-1.44,1.5-2.78,3.66-2.78c1.7,0,3.7,0.84,3.68,3.04H306c0-0.62-0.52-0.96-1.14-0.96   c-0.6,0-1.08,0.3-1.08,0.78c0,0.44,0.4,0.66,0.92,0.8l1.54,0.4c2.24,0.6,2.52,2,2.52,2.76c0,1.96-2,2.92-3.92,2.92   C302.88,633.88,300.98,632.76,300.96,630.71z"
   id="path1453"
   style="fill:#ffffff" />
	<path
   d="M310.68,625.78c0-0.94,0.76-1.62,1.68-1.62c0.9,0,1.66,0.68,1.66,1.62c0,0.94-0.76,1.6-1.66,1.6   C311.44,627.38,310.68,626.72,310.68,625.78z M310.68,632.26c0-0.92,0.76-1.6,1.68-1.6c0.9,0,1.66,0.68,1.66,1.6   c0,0.94-0.76,1.62-1.66,1.62C311.44,633.88,310.68,633.21,310.68,632.26z"
   id="path1455"
   style="fill:#ffffff" />
	<path
   d="M49.06,657.71l-1-8.54l-3.36,6.98h-2.18l-3.4-6.98l-1,8.54h-2.84l1.7-13.78h2.36l4.26,9.04l4.22-9.04h2.4l1.68,13.78H49.06   z"
   id="path1457"
   style="fill:#ffffff" />
	<path
   d="M63.7,648.38v9.32h-2.62v-1.16c-0.66,0.92-1.96,1.34-3,1.34c-2.4,0-4.58-1.86-4.58-4.86c0-3,2.18-4.86,4.58-4.86   c1.08,0,2.34,0.4,3,1.34v-1.12H63.7z M61,653.02c0-1.44-1.2-2.4-2.42-2.4c-1.32,0-2.42,1.02-2.42,2.4c0,1.36,1.1,2.42,2.42,2.42   C59.86,655.44,61,654.44,61,653.02z"
   id="path1459"
   style="fill:#ffffff" />
	<path
   d="M72.24,657.71l-3.28-4.04v4.04h-2.62v-14.3h2.62v7.82l2.36-2.84h3.36l-3.64,4.1l4.46,5.22H72.24z"
   id="path1461"
   style="fill:#ffffff" />
	<path
   d="M85.26,653.88h-7.04c0.28,1.08,1.16,1.68,2.42,1.68c0.94,0,1.88-0.38,2.44-1.04l1.54,1.54c-0.88,1.18-2.52,1.82-4.16,1.82   c-2.86,0-4.96-1.96-4.96-4.84c0-3.02,2.28-4.9,4.96-4.9c2.66,0,4.84,1.88,4.84,4.74C85.3,653.14,85.28,653.46,85.26,653.88z    M82.68,652.18c-0.08-1.1-1-1.76-2.18-1.76c-1.06,0-2,0.5-2.28,1.76H82.68z"
   id="path1463"
   style="fill:#ffffff" />
	<path
   d="M101.72,648.38v9.32H99.1v-1.16c-0.66,0.92-1.96,1.34-3,1.34c-2.4,0-4.58-1.86-4.58-4.86c0-3,2.18-4.86,4.58-4.86   c1.08,0,2.34,0.4,3,1.34v-1.12H101.72z M99.02,653.02c0-1.44-1.2-2.4-2.42-2.4c-1.32,0-2.42,1.02-2.42,2.4   c0,1.36,1.1,2.42,2.42,2.42C97.88,655.44,99.02,654.44,99.02,653.02z"
   id="path1465"
   style="fill:#ffffff" />
	<path
   d="M118.76,648.38v8.04c0,4.08-2.06,5.98-5.36,5.98c-2,0-3.74-1.12-4.54-2.84l2.18-0.94c0.4,0.84,1.36,1.44,2.36,1.44   c1.68,0,2.74-0.92,2.74-3.36v-0.14c-0.68,0.9-1.96,1.32-3,1.32c-2.4,0-4.58-1.86-4.58-4.86c0-3,2.18-4.86,4.58-4.86   c1.06,0,2.32,0.42,3,1.32v-1.1H118.76z M116.06,653.02c0-1.44-1.2-2.4-2.42-2.4c-1.32,0-2.42,1.02-2.42,2.4   c0,1.36,1.1,2.42,2.42,2.42C114.92,655.44,116.06,654.44,116.06,653.02z"
   id="path1467"
   style="fill:#ffffff" />
	<path
   d="M131.04,648.38v9.32h-2.62v-1.16c-0.66,0.92-1.96,1.34-3,1.34c-2.4,0-4.58-1.86-4.58-4.86c0-3,2.18-4.86,4.58-4.86   c1.08,0,2.34,0.4,3,1.34v-1.12H131.04z M128.34,653.02c0-1.44-1.2-2.4-2.42-2.4c-1.32,0-2.42,1.02-2.42,2.4   c0,1.36,1.1,2.42,2.42,2.42C127.2,655.44,128.34,654.44,128.34,653.02z"
   id="path1469"
   style="fill:#ffffff" />
	<path
   d="M148.63,652.58v5.12h-2.64v-4.92c0-1.46-0.76-2.06-1.68-2.06c-1.04-0.02-1.78,0.64-1.84,2.04v4.94h-2.62v-4.94   c0-1.46-0.76-2.04-1.64-2.04c-0.94,0-1.9,0.44-1.9,2.12v4.86h-2.62v-9.32h2.62v1.66c0.28-1.28,1.6-1.9,2.64-1.9   c1.38,0,2.46,0.66,3,1.8c0.72-1.36,2.16-1.8,3.12-1.8C147.4,648.14,148.63,649.78,148.63,652.58z"
   id="path1471"
   style="fill:#ffffff" />
	<path
   d="M160.32,653.88h-7.04c0.28,1.08,1.16,1.68,2.42,1.68c0.94,0,1.88-0.38,2.44-1.04l1.54,1.54c-0.88,1.18-2.52,1.82-4.16,1.82   c-2.86,0-4.96-1.96-4.96-4.84c0-3.02,2.28-4.9,4.96-4.9c2.66,0,4.84,1.88,4.84,4.74C160.36,653.14,160.34,653.46,160.32,653.88z    M157.74,652.18c-0.08-1.1-1-1.76-2.18-1.76c-1.06,0-2,0.5-2.28,1.76H157.74z"
   id="path1473"
   style="fill:#ffffff" />
	<path
   d="M162.02,656.26c0-0.92,0.76-1.6,1.66-1.6c0.92,0,1.7,0.68,1.7,1.6c0,0.94-0.78,1.62-1.7,1.62   C162.78,657.88,162.02,657.21,162.02,656.26z"
   id="path1475"
   style="fill:#ffffff" />
	<path
   d="M49.06,681.71l-1-8.54l-3.36,6.98h-2.18l-3.4-6.98l-1,8.54h-2.84l1.7-13.78h2.36l4.26,9.04l4.22-9.04h2.4l1.68,13.78H49.06   z"
   id="path1477"
   style="fill:#ffffff" />
	<path
   d="M63.7,672.38v9.32h-2.62v-1.16c-0.66,0.92-1.96,1.34-3,1.34c-2.4,0-4.58-1.86-4.58-4.86c0-3,2.18-4.86,4.58-4.86   c1.08,0,2.34,0.4,3,1.34v-1.12H63.7z M61,677.02c0-1.44-1.2-2.4-2.42-2.4c-1.32,0-2.42,1.02-2.42,2.4c0,1.36,1.1,2.42,2.42,2.42   C59.86,679.44,61,678.44,61,677.02z"
   id="path1479"
   style="fill:#ffffff" />
	<path
   d="M72.24,681.71l-3.28-4.04v4.04h-2.62v-14.3h2.62v7.82l2.36-2.84h3.36l-3.64,4.1l4.46,5.22H72.24z"
   id="path1481"
   style="fill:#ffffff" />
	<path
   d="M85.26,677.88h-7.04c0.28,1.08,1.16,1.68,2.42,1.68c0.94,0,1.88-0.38,2.44-1.04l1.54,1.54c-0.88,1.18-2.52,1.82-4.16,1.82   c-2.86,0-4.96-1.96-4.96-4.84c0-3.02,2.28-4.9,4.96-4.9c2.66,0,4.84,1.88,4.84,4.74C85.3,677.14,85.28,677.46,85.26,677.88z    M82.68,676.18c-0.08-1.1-1-1.76-2.18-1.76c-1.06,0-2,0.5-2.28,1.76H82.68z"
   id="path1483"
   style="fill:#ffffff" />
	<path
   d="M101.72,672.38v9.32H99.1v-1.16c-0.66,0.92-1.96,1.34-3,1.34c-2.4,0-4.58-1.86-4.58-4.86c0-3,2.18-4.86,4.58-4.86   c1.08,0,2.34,0.4,3,1.34v-1.12H101.72z M99.02,677.02c0-1.44-1.2-2.4-2.42-2.4c-1.32,0-2.42,1.02-2.42,2.4   c0,1.36,1.1,2.42,2.42,2.42C97.88,679.44,99.02,678.44,99.02,677.02z"
   id="path1485"
   style="fill:#ffffff" />
	<path
   d="M113.48,676.58v5.12h-2.62v-4.84c0-1.48-0.88-2.14-1.78-2.14c-0.94,0-2.1,0.5-2.1,2.2v4.78h-2.62v-9.32h2.62v1.56   c0.4-1.26,1.88-1.8,2.8-1.8C112.22,672.14,113.5,673.78,113.48,676.58z"
   id="path1487"
   style="fill:#ffffff" />
	<path
   d="M130.4,672.38v9.32h-2.62v-1.16c-0.66,0.92-1.96,1.34-3,1.34c-2.4,0-4.58-1.86-4.58-4.86c0-3,2.18-4.86,4.58-4.86   c1.08,0,2.34,0.4,3,1.34v-1.12H130.4z M127.7,677.02c0-1.44-1.2-2.4-2.42-2.4c-1.32,0-2.42,1.02-2.42,2.4   c0,1.36,1.1,2.42,2.42,2.42C126.56,679.44,127.7,678.44,127.7,677.02z"
   id="path1489"
   style="fill:#ffffff" />
	<path
   d="M143.24,677.02c0,3-2.18,4.86-4.58,4.86c-1.06,0-2.34-0.4-3-1.34v5.74h-2.62v-13.9h2.62v1.12c0.66-0.94,1.94-1.36,3-1.36   C141.06,672.14,143.24,674.02,143.24,677.02z M140.56,677.02c0-1.36-1.08-2.42-2.4-2.42c-1.28,0-2.42,1-2.42,2.42   c0,1.44,1.2,2.4,2.42,2.4C139.48,679.42,140.56,678.4,140.56,677.02z"
   id="path1491"
   style="fill:#ffffff" />
	<path
   d="M155.52,677.02c0,3-2.18,4.86-4.58,4.86c-1.06,0-2.34-0.4-3-1.34v5.74h-2.62v-13.9h2.62v1.12c0.66-0.94,1.94-1.36,3-1.36   C153.34,672.14,155.52,674.02,155.52,677.02z M152.84,677.02c0-1.36-1.08-2.42-2.4-2.42c-1.28,0-2.42,1-2.42,2.42   c0,1.44,1.2,2.4,2.42,2.4C151.76,679.42,152.84,678.4,152.84,677.02z"
   id="path1493"
   style="fill:#ffffff" />
	<path
   d="M157.12,680.26c0-0.92,0.76-1.6,1.66-1.6c0.92,0,1.7,0.68,1.7,1.6c0,0.94-0.78,1.62-1.7,1.62   C157.88,681.88,157.12,681.21,157.12,680.26z"
   id="path1495"
   style="fill:#ffffff" />
	<path
   d="M49.06,705.71l-1-8.54l-3.36,6.98h-2.18l-3.4-6.98l-1,8.54h-2.84l1.7-13.78h2.36l4.26,9.04l4.22-9.04h2.4l1.68,13.78H49.06   z"
   id="path1497"
   style="fill:#ffffff" />
	<path
   d="M63.7,696.38v9.32h-2.62v-1.16c-0.66,0.92-1.96,1.34-3,1.34c-2.4,0-4.58-1.86-4.58-4.86c0-3,2.18-4.86,4.58-4.86   c1.08,0,2.34,0.4,3,1.34v-1.12H63.7z M61,701.02c0-1.44-1.2-2.4-2.42-2.4c-1.32,0-2.42,1.02-2.42,2.4c0,1.36,1.1,2.42,2.42,2.42   C59.86,703.44,61,702.44,61,701.02z"
   id="path1499"
   style="fill:#ffffff" />
	<path
   d="M72.24,705.71l-3.28-4.04v4.04h-2.62v-14.3h2.62v7.82l2.36-2.84h3.36l-3.64,4.1l4.46,5.22H72.24z"
   id="path1501"
   style="fill:#ffffff" />
	<path
   d="M85.26,701.88h-7.04c0.28,1.08,1.16,1.68,2.42,1.68c0.94,0,1.88-0.38,2.44-1.04l1.54,1.54c-0.88,1.18-2.52,1.82-4.16,1.82   c-2.86,0-4.96-1.96-4.96-4.84c0-3.02,2.28-4.9,4.96-4.9c2.66,0,4.84,1.88,4.84,4.74C85.3,701.14,85.28,701.46,85.26,701.88z    M82.68,700.18c-0.08-1.1-1-1.76-2.18-1.76c-1.06,0-2,0.5-2.28,1.76H82.68z"
   id="path1503"
   style="fill:#ffffff" />
	<path
   d="M101.72,696.38v9.32H99.1v-1.16c-0.66,0.92-1.96,1.34-3,1.34c-2.4,0-4.58-1.86-4.58-4.86c0-3,2.18-4.86,4.58-4.86   c1.08,0,2.34,0.4,3,1.34v-1.12H101.72z M99.02,701.02c0-1.44-1.2-2.4-2.42-2.4c-1.32,0-2.42,1.02-2.42,2.4   c0,1.36,1.1,2.42,2.42,2.42C97.88,703.44,99.02,702.44,99.02,701.02z"
   id="path1505"
   style="fill:#ffffff" />
	<path
   d="M113.48,700.58v5.12h-2.62v-4.84c0-1.48-0.88-2.14-1.78-2.14c-0.94,0-2.1,0.5-2.1,2.2v4.78h-2.62v-9.32h2.62v1.56   c0.4-1.26,1.88-1.8,2.8-1.8C112.22,696.14,113.5,697.78,113.48,700.58z"
   id="path1507"
   style="fill:#ffffff" />
	<path
   d="M124.64,696.38l-5.76,13.9h-2.8l2.2-5.46l-3.68-8.44h2.88l2.2,5.38l2.14-5.38H124.64z"
   id="path1509"
   style="fill:#ffffff" />
	<path
   d="M131.54,698.4h-1.98v7.3h-2.62v-7.3h-1.7v-2.02h1.7v-3.42h2.62v3.42h1.98V698.4z"
   id="path1511"
   style="fill:#ffffff" />
	<path
   d="M142.36,700.58v5.12h-2.62v-4.84c0-1.48-0.88-2.14-1.78-2.14c-0.94,0-2.1,0.5-2.1,2.2v4.78h-2.62v-14.3h2.62v6.44   c0.4-1.18,1.9-1.7,2.8-1.7C141.1,696.14,142.38,697.78,142.36,700.58z"
   id="path1513"
   style="fill:#ffffff" />
	<path
   d="M144.52,693.14c0-0.88,0.76-1.56,1.66-1.56c0.92,0,1.66,0.68,1.66,1.56c0,0.88-0.74,1.58-1.66,1.58   C145.28,694.72,144.52,694.02,144.52,693.14z M144.88,696.38h2.62v9.32h-2.62V696.38z"
   id="path1515"
   style="fill:#ffffff" />
	<path
   d="M159.26,700.58v5.12h-2.62v-4.84c0-1.48-0.88-2.14-1.78-2.14c-0.94,0-2.1,0.5-2.1,2.2v4.78h-2.62v-9.32h2.62v1.56   c0.4-1.26,1.88-1.8,2.8-1.8C158,696.14,159.28,697.78,159.26,700.58z"
   id="path1517"
   style="fill:#ffffff" />
	<path
   d="M171.42,696.38v8.04c0,4.08-2.06,5.98-5.36,5.98c-2,0-3.74-1.12-4.54-2.84l2.18-0.94c0.4,0.84,1.36,1.44,2.36,1.44   c1.68,0,2.74-0.92,2.74-3.36v-0.14c-0.68,0.9-1.96,1.32-3,1.32c-2.4,0-4.58-1.86-4.58-4.86c0-3,2.18-4.86,4.58-4.86   c1.06,0,2.32,0.42,3,1.32v-1.1H171.42z M168.72,701.02c0-1.44-1.2-2.4-2.42-2.4c-1.32,0-2.42,1.02-2.42,2.4   c0,1.36,1.1,2.42,2.42,2.42C167.58,703.44,168.72,702.44,168.72,701.02z"
   id="path1519"
   style="fill:#ffffff" />
	<path
   d="M187.44,696.38l-5.76,13.9h-2.8l2.2-5.46l-3.68-8.44h2.88l2.2,5.38l2.14-5.38H187.44z"
   id="path1521"
   style="fill:#ffffff" />
	<path
   d="M188.02,701.02c0-2.96,2.36-4.88,5.02-4.88c2.66,0,5.02,1.92,5.02,4.88c0,2.94-2.36,4.86-5.02,4.86   C190.38,705.88,188.02,703.96,188.02,701.02z M195.4,701.02c0-1.46-1.06-2.44-2.36-2.44c-1.3,0-2.36,0.98-2.36,2.44   c0,1.44,1.06,2.42,2.36,2.42C194.34,703.44,195.4,702.46,195.4,701.02z"
   id="path1523"
   style="fill:#ffffff" />
	<path
   d="M209.12,696.38v9.32h-2.62v-1.52c-0.4,1.22-1.88,1.74-2.8,1.74c-2.44,0-3.72-1.62-3.7-4.42v-5.12h2.62v4.84   c0,1.46,0.88,2.12,1.78,2.12c0.94,0,2.1-0.5,2.1-2.18v-4.78H209.12z"
   id="path1525"
   style="fill:#ffffff" />
	<path
   d="M215.94,701c0-2.96,2.4-4.86,5.12-4.86c1.7,0,3.06,0.8,3.94,2l-1.96,1.38c-0.42-0.58-1.2-0.94-1.96-0.94   c-1.48,0-2.48,1.06-2.48,2.42c0,1.38,1,2.44,2.48,2.44c0.76,0,1.54-0.36,1.96-0.94l1.96,1.38c-0.88,1.22-2.24,2-3.94,2   C218.34,705.88,215.94,703.96,215.94,701z"
   id="path1527"
   style="fill:#ffffff" />
	<path
   d="M236.34,696.38v9.32h-2.62v-1.16c-0.66,0.92-1.96,1.34-3,1.34c-2.4,0-4.58-1.86-4.58-4.86c0-3,2.18-4.86,4.58-4.86   c1.08,0,2.34,0.4,3,1.34v-1.12H236.34z M233.64,701.02c0-1.44-1.2-2.4-2.42-2.4c-1.32,0-2.42,1.02-2.42,2.4   c0,1.36,1.1,2.42,2.42,2.42C232.5,703.44,233.64,702.44,233.64,701.02z"
   id="path1529"
   style="fill:#ffffff" />
	<path
   d="M248.1,700.58v5.12h-2.62v-4.84c0-1.48-0.88-2.14-1.78-2.14c-0.94,0-2.1,0.5-2.1,2.2v4.78h-2.62v-9.32h2.62v1.56   c0.4-1.26,1.88-1.8,2.8-1.8C246.84,696.14,248.12,697.78,248.1,700.58z"
   id="path1531"
   style="fill:#ffffff" />
	<path
   d="M255.02,693.14c0-0.88,0.76-1.56,1.66-1.56c0.92,0,1.66,0.68,1.66,1.56c0,0.88-0.74,1.58-1.66,1.58   C255.78,694.72,255.02,694.02,255.02,693.14z M255.38,696.38H258v9.32h-2.62V696.38z"
   id="path1533"
   style="fill:#ffffff" />
	<path
   d="M275.58,700.58v5.12h-2.64v-4.92c0-1.46-0.76-2.06-1.68-2.06c-1.04-0.02-1.78,0.64-1.84,2.04v4.94h-2.62v-4.94   c0-1.46-0.76-2.04-1.64-2.04c-0.94,0-1.9,0.44-1.9,2.12v4.86h-2.62v-9.32h2.62v1.66c0.28-1.28,1.6-1.9,2.64-1.9   c1.38,0,2.46,0.66,3,1.8c0.72-1.36,2.16-1.8,3.12-1.8C274.36,696.14,275.58,697.78,275.58,700.58z"
   id="path1535"
   style="fill:#ffffff" />
	<path
   d="M287.72,696.38v9.32h-2.62v-1.16c-0.66,0.92-1.96,1.34-3,1.34c-2.4,0-4.58-1.86-4.58-4.86c0-3,2.18-4.86,4.58-4.86   c1.08,0,2.34,0.4,3,1.34v-1.12H287.72z M285.02,701.02c0-1.44-1.2-2.4-2.42-2.4c-1.32,0-2.42,1.02-2.42,2.4   c0,1.36,1.1,2.42,2.42,2.42C283.88,703.44,285.02,702.44,285.02,701.02z"
   id="path1537"
   style="fill:#ffffff" />
	<path
   d="M300,696.38v8.04c0,4.08-2.06,5.98-5.36,5.98c-2,0-3.74-1.12-4.54-2.84l2.18-0.94c0.4,0.84,1.36,1.44,2.36,1.44   c1.68,0,2.74-0.92,2.74-3.36v-0.14c-0.68,0.9-1.96,1.32-3,1.32c-2.4,0-4.58-1.86-4.58-4.86c0-3,2.18-4.86,4.58-4.86   c1.06,0,2.32,0.42,3,1.32v-1.1H300z M297.3,701.02c0-1.44-1.2-2.4-2.42-2.4c-1.32,0-2.42,1.02-2.42,2.4c0,1.36,1.1,2.42,2.42,2.42   C296.16,703.44,297.3,702.44,297.3,701.02z"
   id="path1539"
   style="fill:#ffffff" />
	<path
   d="M302.28,693.14c0-0.88,0.76-1.56,1.66-1.56c0.92,0,1.66,0.68,1.66,1.56c0,0.88-0.74,1.58-1.66,1.58   C303.04,694.72,302.28,694.02,302.28,693.14z M302.64,696.38h2.62v9.32h-2.62V696.38z"
   id="path1541"
   style="fill:#ffffff" />
	<path
   d="M317.02,700.58v5.12h-2.62v-4.84c0-1.48-0.88-2.14-1.78-2.14c-0.94,0-2.1,0.5-2.1,2.2v4.78h-2.62v-9.32h2.62v1.56   c0.4-1.26,1.88-1.8,2.8-1.8C315.76,696.14,317.04,697.78,317.02,700.58z"
   id="path1543"
   style="fill:#ffffff" />
	<path
   d="M328.74,701.88h-7.04c0.28,1.08,1.16,1.68,2.42,1.68c0.94,0,1.88-0.38,2.44-1.04l1.54,1.54c-0.88,1.18-2.52,1.82-4.16,1.82   c-2.86,0-4.96-1.96-4.96-4.84c0-3.02,2.28-4.9,4.96-4.9c2.66,0,4.84,1.88,4.84,4.74C328.78,701.14,328.76,701.46,328.74,701.88z    M326.16,700.18c-0.08-1.1-1-1.76-2.18-1.76c-1.06,0-2,0.5-2.28,1.76H326.16z"
   id="path1545"
   style="fill:#ffffff" />
	<path
   d="M330.44,704.26c0-0.92,0.76-1.6,1.66-1.6c0.92,0,1.7,0.68,1.7,1.6c0,0.94-0.78,1.62-1.7,1.62   C331.2,705.88,330.44,705.21,330.44,704.26z"
   id="path1547"
   style="fill:#ffffff" />
	<path
   d="M46.3,739.92v13.78h-2.5l-5-8.64v8.64h-2.78v-13.78h2.58l4.92,8.54v-8.54H46.3z"
   id="path1549"
   style="fill:#ffffff" />
	<path
   d="M48.52,749.02c0-2.96,2.36-4.88,5.02-4.88c2.66,0,5.02,1.92,5.02,4.88c0,2.94-2.36,4.86-5.02,4.86   C50.88,753.88,48.52,751.96,48.52,749.02z M55.9,749.02c0-1.46-1.06-2.44-2.36-2.44c-1.3,0-2.36,0.98-2.36,2.44   c0,1.44,1.06,2.42,2.36,2.42C54.84,751.44,55.9,750.46,55.9,749.02z"
   id="path1551"
   style="fill:#ffffff" />
	<path
   d="M64.8,749c0-2.96,2.4-4.86,5.12-4.86c1.7,0,3.06,0.8,3.94,2l-1.96,1.38c-0.42-0.58-1.2-0.94-1.96-0.94   c-1.48,0-2.48,1.06-2.48,2.42c0,1.38,1,2.44,2.48,2.44c0.76,0,1.54-0.36,1.96-0.94l1.96,1.38c-0.88,1.22-2.24,2-3.94,2   C67.2,753.88,64.8,751.96,64.8,749z"
   id="path1553"
   style="fill:#ffffff" />
	<path
   d="M74.98,749.02c0-2.96,2.36-4.88,5.02-4.88c2.66,0,5.02,1.92,5.02,4.88c0,2.94-2.36,4.86-5.02,4.86   C77.34,753.88,74.98,751.96,74.98,749.02z M82.36,749.02c0-1.46-1.06-2.44-2.36-2.44c-1.3,0-2.36,0.98-2.36,2.44   c0,1.44,1.06,2.42,2.36,2.42C81.3,751.44,82.36,750.46,82.36,749.02z"
   id="path1555"
   style="fill:#ffffff" />
	<path
   d="M96.72,739.4v14.3H94.1v-1.16c-0.66,0.92-1.96,1.34-3,1.34c-2.4,0-4.58-1.86-4.58-4.86c0-3,2.18-4.86,4.58-4.86   c1.08,0,2.34,0.4,3,1.34v-6.1H96.72z M94.02,749.02c0-1.44-1.2-2.4-2.42-2.4c-1.32,0-2.42,1.02-2.42,2.4c0,1.36,1.1,2.42,2.42,2.42   C92.88,751.44,94.02,750.44,94.02,749.02z"
   id="path1557"
   style="fill:#ffffff" />
	<path
   d="M99,741.14c0-0.88,0.76-1.56,1.66-1.56c0.92,0,1.66,0.68,1.66,1.56c0,0.88-0.74,1.58-1.66,1.58   C99.76,742.72,99,742.02,99,741.14z M99.36,744.38h2.62v9.32h-2.62V744.38z"
   id="path1559"
   style="fill:#ffffff" />
	<path
   d="M113.74,748.58v5.12h-2.62v-4.84c0-1.48-0.88-2.14-1.78-2.14c-0.94,0-2.1,0.5-2.1,2.2v4.78h-2.62v-9.32h2.62v1.56   c0.4-1.26,1.88-1.8,2.8-1.8C112.48,744.14,113.76,745.78,113.74,748.58z"
   id="path1561"
   style="fill:#ffffff" />
	<path
   d="M125.9,744.38v8.04c0,4.08-2.06,5.98-5.36,5.98c-2,0-3.74-1.12-4.54-2.84l2.18-0.94c0.4,0.84,1.36,1.44,2.36,1.44   c1.68,0,2.74-0.92,2.74-3.36v-0.14c-0.68,0.9-1.96,1.32-3,1.32c-2.4,0-4.58-1.86-4.58-4.86c0-3,2.18-4.86,4.58-4.86   c1.06,0,2.32,0.42,3,1.32v-1.1H125.9z M123.2,749.02c0-1.44-1.2-2.4-2.42-2.4c-1.32,0-2.42,1.02-2.42,2.4   c0,1.36,1.1,2.42,2.42,2.42C122.06,751.44,123.2,750.44,123.2,749.02z"
   id="path1563"
   style="fill:#ffffff" />
	<path
   d="M142.5,749.88h-7.04c0.28,1.08,1.16,1.68,2.42,1.68c0.94,0,1.88-0.38,2.44-1.04l1.54,1.54c-0.88,1.18-2.52,1.82-4.16,1.82   c-2.86,0-4.96-1.96-4.96-4.84c0-3.02,2.28-4.9,4.96-4.9c2.66,0,4.84,1.88,4.84,4.74C142.54,749.14,142.52,749.46,142.5,749.88z    M139.92,748.18c-0.08-1.1-1-1.76-2.18-1.76c-1.06,0-2,0.5-2.28,1.76H139.92z"
   id="path1565"
   style="fill:#ffffff" />
	<path
   d="M150.14,753.71l-2.06-2.98l-2.1,2.98h-3.08l3.7-5.06l-3.08-4.26h3.1l1.48,2.14l1.44-2.14h3.08l-3.08,4.26l3.66,5.06H150.14   z"
   id="path1567"
   style="fill:#ffffff" />
	<path
   d="M164.78,749.02c0,3-2.18,4.86-4.58,4.86c-1.06,0-2.34-0.4-3-1.34v5.74h-2.62v-13.9h2.62v1.12c0.66-0.94,1.94-1.36,3-1.36   C162.6,744.14,164.78,746.02,164.78,749.02z M162.1,749.02c0-1.36-1.08-2.42-2.4-2.42c-1.28,0-2.42,1-2.42,2.42   c0,1.44,1.2,2.4,2.42,2.4C161.02,751.42,162.1,750.4,162.1,749.02z"
   id="path1569"
   style="fill:#ffffff" />
	<path
   d="M176.06,749.88h-7.04c0.28,1.08,1.16,1.68,2.42,1.68c0.94,0,1.88-0.38,2.44-1.04l1.54,1.54c-0.88,1.18-2.52,1.82-4.16,1.82   c-2.86,0-4.96-1.96-4.96-4.84c0-3.02,2.28-4.9,4.96-4.9c2.66,0,4.84,1.88,4.84,4.74C176.1,749.14,176.08,749.46,176.06,749.88z    M173.48,748.18c-0.08-1.1-1-1.76-2.18-1.76c-1.06,0-2,0.5-2.28,1.76H173.48z"
   id="path1571"
   style="fill:#ffffff" />
	<path
   d="M184.94,744.44l-0.6,2.5c-0.56-0.3-1.02-0.34-1.34-0.34c-1.34,0-2.26,1.24-2.26,3.9v3.2h-2.62v-9.32h2.6v1.98   c0.52-1.56,1.58-2.22,2.74-2.22C183.96,744.14,184.52,744.22,184.94,744.44z"
   id="path1573"
   style="fill:#ffffff" />
	<path
   d="M186,741.14c0-0.88,0.76-1.56,1.66-1.56c0.92,0,1.66,0.68,1.66,1.56c0,0.88-0.74,1.58-1.66,1.58   C186.76,742.72,186,742.02,186,741.14z M186.36,744.38h2.62v9.32h-2.62V744.38z"
   id="path1575"
   style="fill:#ffffff" />
	<path
   d="M200.82,749.88h-7.04c0.28,1.08,1.16,1.68,2.42,1.68c0.94,0,1.88-0.38,2.44-1.04l1.54,1.54c-0.88,1.18-2.52,1.82-4.16,1.82   c-2.86,0-4.96-1.96-4.96-4.84c0-3.02,2.28-4.9,4.96-4.9c2.66,0,4.84,1.88,4.84,4.74C200.86,749.14,200.84,749.46,200.82,749.88z    M198.24,748.18c-0.08-1.1-1-1.76-2.18-1.76c-1.06,0-2,0.5-2.28,1.76H198.24z"
   id="path1577"
   style="fill:#ffffff" />
	<path
   d="M212,748.58v5.12h-2.62v-4.84c0-1.48-0.88-2.14-1.78-2.14c-0.94,0-2.1,0.5-2.1,2.2v4.78h-2.62v-9.32h2.62v1.56   c0.4-1.26,1.88-1.8,2.8-1.8C210.74,744.14,212.02,745.78,212,748.58z"
   id="path1579"
   style="fill:#ffffff" />
	<path
   d="M213.94,749c0-2.96,2.4-4.86,5.12-4.86c1.7,0,3.06,0.8,3.94,2l-1.96,1.38c-0.42-0.58-1.2-0.94-1.96-0.94   c-1.48,0-2.48,1.06-2.48,2.42c0,1.38,1,2.44,2.48,2.44c0.76,0,1.54-0.36,1.96-0.94l1.96,1.38c-0.88,1.22-2.24,2-3.94,2   C216.34,753.88,213.94,751.96,213.94,749z"
   id="path1581"
   style="fill:#ffffff" />
	<path
   d="M233.9,749.88h-7.04c0.28,1.08,1.16,1.68,2.42,1.68c0.94,0,1.88-0.38,2.44-1.04l1.54,1.54c-0.88,1.18-2.52,1.82-4.16,1.82   c-2.86,0-4.96-1.96-4.96-4.84c0-3.02,2.28-4.9,4.96-4.9c2.66,0,4.84,1.88,4.84,4.74C233.94,749.14,233.92,749.46,233.9,749.88z    M231.32,748.18c-0.08-1.1-1-1.76-2.18-1.76c-1.06,0-2,0.5-2.28,1.76H231.32z"
   id="path1583"
   style="fill:#ffffff" />
	<path
   d="M247.54,744.44l-0.6,2.5c-0.56-0.3-1.02-0.34-1.34-0.34c-1.34,0-2.26,1.24-2.26,3.9v3.2h-2.62v-9.32h2.6v1.98   c0.52-1.56,1.58-2.22,2.74-2.22C246.56,744.14,247.12,744.22,247.54,744.44z"
   id="path1585"
   style="fill:#ffffff" />
	<path
   d="M257.92,749.88h-7.04c0.28,1.08,1.16,1.68,2.42,1.68c0.94,0,1.88-0.38,2.44-1.04l1.54,1.54c-0.88,1.18-2.52,1.82-4.16,1.82   c-2.86,0-4.96-1.96-4.96-4.84c0-3.02,2.28-4.9,4.96-4.9c2.66,0,4.84,1.88,4.84,4.74C257.96,749.14,257.94,749.46,257.92,749.88z    M255.34,748.18c-0.08-1.1-1-1.76-2.18-1.76c-1.06,0-2,0.5-2.28,1.76H255.34z"
   id="path1587"
   style="fill:#ffffff" />
	<path
   d="M269.62,744.38v13.9H267v-5.76c-0.66,0.94-1.92,1.36-3,1.36c-2.4,0-4.58-1.86-4.58-4.86c0-3,2.18-4.88,4.58-4.88   c1.04,0,2.34,0.42,3,1.36v-1.12H269.62z M266.92,749.02c0-1.42-1.14-2.42-2.42-2.42c-1.32,0-2.42,1.06-2.42,2.42   c0,1.38,1.1,2.4,2.42,2.4C265.72,751.42,266.92,750.46,266.92,749.02z"
   id="path1589"
   style="fill:#ffffff" />
	<path
   d="M281.26,744.38v9.32h-2.62v-1.52c-0.4,1.22-1.88,1.74-2.8,1.74c-2.44,0-3.72-1.62-3.7-4.42v-5.12h2.62v4.84   c0,1.46,0.88,2.12,1.78,2.12c0.94,0,2.1-0.5,2.1-2.18v-4.78H281.26z"
   id="path1591"
   style="fill:#ffffff" />
	<path
   d="M283.54,741.14c0-0.88,0.76-1.56,1.66-1.56c0.92,0,1.66,0.68,1.66,1.56c0,0.88-0.74,1.58-1.66,1.58   C284.3,742.72,283.54,742.02,283.54,741.14z M283.9,744.38h2.62v9.32h-2.62V744.38z"
   id="path1593"
   style="fill:#ffffff" />
	<path
   d="M295.98,744.44l-0.6,2.5c-0.56-0.3-1.02-0.34-1.34-0.34c-1.34,0-2.26,1.24-2.26,3.9v3.2h-2.62v-9.32h2.6v1.98   c0.52-1.56,1.58-2.22,2.74-2.22C295,744.14,295.56,744.22,295.98,744.44z"
   id="path1595"
   style="fill:#ffffff" />
	<path
   d="M306.36,749.88h-7.04c0.28,1.08,1.16,1.68,2.42,1.68c0.94,0,1.88-0.38,2.44-1.04l1.54,1.54c-0.88,1.18-2.52,1.82-4.16,1.82   c-2.86,0-4.96-1.96-4.96-4.84c0-3.02,2.28-4.9,4.96-4.9c2.66,0,4.84,1.88,4.84,4.74C306.4,749.14,306.38,749.46,306.36,749.88z    M303.78,748.18c-0.08-1.1-1-1.76-2.18-1.76c-1.06,0-2,0.5-2.28,1.76H303.78z"
   id="path1597"
   style="fill:#ffffff" />
	<path
   d="M318.06,739.4v14.3h-2.62v-1.16c-0.66,0.92-1.96,1.34-3,1.34c-2.4,0-4.58-1.86-4.58-4.86c0-3,2.18-4.86,4.58-4.86   c1.08,0,2.34,0.4,3,1.34v-6.1H318.06z M315.36,749.02c0-1.44-1.2-2.4-2.42-2.4c-1.32,0-2.42,1.02-2.42,2.4   c0,1.36,1.1,2.42,2.42,2.42C314.22,751.44,315.36,750.44,315.36,749.02z"
   id="path1599"
   style="fill:#ffffff" />
	<path
   d="M320.34,752.26c0-0.92,0.76-1.6,1.66-1.6c0.92,0,1.7,0.68,1.7,1.6c0,0.94-0.78,1.62-1.7,1.62   C321.1,753.88,320.34,753.21,320.34,752.26z"
   id="path1601"
   style="fill:#ffffff" />
</g>
<text
   id="text1613"
   x="545.49139"
   y="387.66641"><tspan
     x="545.49139"
     y="387.66641"
     class="st4 st5"
     id="tspan1605"
     style="font-size:25px;font-family:Sofia Pro;text-align:end;text-anchor:end">{{short_month}} {{day}}-{{day+1}}, Noon-Noon</tspan><tspan
     x="545.49139"
     y="417.66641"
     class="st4 st5"
     id="tspan1607"
     style="font-size:25px;font-family:Sofia Pro;text-align:end;text-anchor:end">CodeDay.org/{{url}}</tspan><tspan
     x="545.49139"
     y="461.66641"
     class="st4 st5"
     id="tspan1609"
     style="font-size:25px;font-family:Sofia Pro;text-align:end;text-anchor:end">{%if promo%}Use code “{{promo}}” </tspan><tspan
     x="545.49139"
     y="491.66641"
     class="st4 st5"
     id="tspan1611"
     style="font-size:25px;font-family:Sofia Pro;text-align:end;text-anchor:end">for {%if promoFor%}{{promoFor}}{%else%}a discount{%endif%}.{%endif%}</tspan></text>



</svg>
