<svg xmlns="http://www.w3.org/2000/svg" xmlns:xlink="http://www.w3.org/1999/xlink" viewBox="0 0 612 792"><defs><linearGradient id="a" x1="309" y1="792" x2="309" y2="415.989" gradientUnits="userSpaceOnUse"><stop offset="0.018" stop-color="#fff"/><stop offset="0.358" stop-color="#fdfdfd"/><stop offset="0.487" stop-color="#f6f6f6"/><stop offset="0.581" stop-color="#eaeaea"/><stop offset="0.656" stop-color="#d9d9d9"/><stop offset="0.722" stop-color="#c3c3c3"/><stop offset="0.78" stop-color="#a7a7a7"/><stop offset="0.833" stop-color="#868686"/><stop offset="0.881" stop-color="#606060"/><stop offset="0.926" stop-color="#353535"/><stop offset="0.967" stop-color="#060606"/><stop offset="0.971" stop-color="#010101"/></linearGradient><radialGradient id="b" cx="206" cy="482.441" r="403.358" gradientTransform="translate(17.6 -250.664) scale(1.4 1.34)" gradientUnits="userSpaceOnUse"><stop offset="0.723" stop-color="#010101"/><stop offset="0.811" stop-color="#333434"/><stop offset="0.868" stop-color="#595a5b"/><stop offset="0.929" stop-color="#acadad"/><stop offset="0.985" stop-color="#fff"/></radialGradient><linearGradient id="c" x1="309" y1="792" x2="309" gradientUnits="userSpaceOnUse"><stop offset="0.015" stop-color="#1a130f"/><stop offset="0.451" stop-color="#5c5ba8"/><stop offset="0.505" stop-color="#f7a7a8"/><stop offset="0.559" stop-color="#c33f97"/><stop offset="0.627" stop-color="#6a2c91"/><stop offset="0.713" stop-color="#2e2e86"/><stop offset="0.954" stop-color="#1a150f"/></linearGradient><clipPath id="d"><rect width="612" height="792" fill="none"/></clipPath><clipPath id="f"><rect x="-87" width="792" height="792" fill="url(#c)"/></clipPath><mask id="g" x="-1234.829" y="415.648" width="3082.905" height="387.027" maskUnits="userSpaceOnUse"><rect x="-87" y="415.989" width="792" height="376.011" fill="url(#a)"/></mask><mask id="h" x="-90" y="0" width="792" height="792" maskUnits="userSpaceOnUse"><rect x="-90" width="792" height="792" fill="url(#b)"/></mask><linearGradient id="i" x1="306" y1="592.222" x2="306" y2="809.778" gradientUnits="userSpaceOnUse"><stop offset="0" stop-opacity="0"/><stop offset="0.086" stop-opacity="0.192"/><stop offset="1"/></linearGradient></defs><title>OutrunPoster</title><g clip-path="url(#d)"><rect x="-87" width="792" height="792" fill="url(#c)"/><g clip-path="url(#f)"><g mask="url(#g)"><line x1="-1234.685" y1="802.212" x2="11.054" y2="416.133" fill="none" stroke="#59caf0" stroke-miterlimit="10" stroke-width="0.97"/><line x1="-1100.658" y1="802.212" x2="36.756" y2="416.133" fill="none" stroke="#59caf0" stroke-miterlimit="10" stroke-width="0.97"/><line x1="-966.632" y1="802.212" x2="62.457" y2="416.133" fill="none" stroke="#59caf0" stroke-miterlimit="10" stroke-width="0.97"/><line x1="-832.605" y1="802.212" x2="88.159" y2="416.133" fill="none" stroke="#59caf0" stroke-miterlimit="10" stroke-width="0.97"/><line x1="-698.578" y1="802.212" x2="113.861" y2="416.133" fill="none" stroke="#59caf0" stroke-miterlimit="10" stroke-width="0.97"/><line x1="-564.551" y1="802.212" x2="139.563" y2="416.133" fill="none" stroke="#59caf0" stroke-miterlimit="10" stroke-width="0.97"/><line x1="-430.524" y1="802.212" x2="165.264" y2="416.133" fill="none" stroke="#59caf0" stroke-miterlimit="10" stroke-width="0.97"/><line x1="-296.497" y1="802.212" x2="190.966" y2="416.133" fill="none" stroke="#59caf0" stroke-miterlimit="10" stroke-width="0.97"/><line x1="-162.47" y1="802.212" x2="216.668" y2="416.133" fill="none" stroke="#59caf0" stroke-miterlimit="10" stroke-width="0.97"/><line x1="-28.444" y1="802.212" x2="242.369" y2="416.133" fill="none" stroke="#59caf0" stroke-miterlimit="10" stroke-width="0.97"/><line x1="105.583" y1="802.212" x2="268.071" y2="416.133" fill="none" stroke="#59caf0" stroke-miterlimit="10" stroke-width="0.97"/><line x1="239.61" y1="802.212" x2="293.773" y2="416.133" fill="none" stroke="#59caf0" stroke-miterlimit="10" stroke-width="0.97"/><line x1="373.637" y1="802.212" x2="319.474" y2="416.133" fill="none" stroke="#59caf0" stroke-miterlimit="10" stroke-width="0.97"/><line x1="507.664" y1="802.212" x2="345.176" y2="416.133" fill="none" stroke="#59caf0" stroke-miterlimit="10" stroke-width="0.97"/><line x1="641.691" y1="802.212" x2="370.878" y2="416.133" fill="none" stroke="#59caf0" stroke-miterlimit="10" stroke-width="0.97"/><line x1="775.718" y1="802.212" x2="396.58" y2="416.133" fill="none" stroke="#59caf0" stroke-miterlimit="10" stroke-width="0.97"/><line x1="909.744" y1="802.212" x2="422.281" y2="416.133" fill="none" stroke="#59caf0" stroke-miterlimit="10" stroke-width="0.97"/><line x1="1043.771" y1="802.212" x2="447.983" y2="416.133" fill="none" stroke="#59caf0" stroke-miterlimit="10" stroke-width="0.97"/><line x1="1177.798" y1="802.212" x2="473.685" y2="416.133" fill="none" stroke="#59caf0" stroke-miterlimit="10" stroke-width="0.97"/><line x1="1311.825" y1="802.212" x2="499.386" y2="416.133" fill="none" stroke="#59caf0" stroke-miterlimit="10" stroke-width="0.97"/><line x1="1445.852" y1="802.212" x2="525.088" y2="416.133" fill="none" stroke="#59caf0" stroke-miterlimit="10" stroke-width="0.97"/><line x1="1579.879" y1="802.212" x2="550.79" y2="416.133" fill="none" stroke="#59caf0" stroke-miterlimit="10" stroke-width="0.97"/><line x1="1713.906" y1="802.212" x2="576.491" y2="416.133" fill="none" stroke="#59caf0" stroke-miterlimit="10" stroke-width="0.97"/><line x1="1847.933" y1="802.212" x2="602.193" y2="416.133" fill="none" stroke="#59caf0" stroke-miterlimit="10" stroke-width="0.97"/><line x1="-106.8" y1="416.133" x2="732.72" y2="416.133" fill="none" stroke="#ce4a55" stroke-miterlimit="10" stroke-width="0.97" opacity="0.5"/><line x1="-106.8" y1="430.399" x2="732.72" y2="430.399" fill="none" stroke="#c55661" stroke-miterlimit="10" stroke-width="1.047" opacity="0.5"/><line x1="-106.8" y1="444.665" x2="732.72" y2="444.665" fill="none" stroke="#bb606d" stroke-miterlimit="10" stroke-width="1.123" opacity="0.5"/><line x1="-106.8" y1="458.932" x2="732.72" y2="458.932" fill="none" stroke="#b1687a" stroke-miterlimit="10" stroke-width="1.2" opacity="0.5"/><line x1="-106.8" y1="473.198" x2="732.72" y2="473.198" fill="none" stroke="#a57088" stroke-miterlimit="10" stroke-width="1.277" opacity="0.5"/><line x1="-106.8" y1="487.464" x2="732.72" y2="487.464" fill="none" stroke="#997796" stroke-miterlimit="10" stroke-width="1.354" opacity="0.5"/><line x1="-106.8" y1="501.73" x2="732.72" y2="501.73" fill="none" stroke="#8c7da4" stroke-miterlimit="10" stroke-width="1.43" opacity="0.5"/><line x1="-106.8" y1="515.996" x2="732.72" y2="515.996" fill="none" stroke="#7d83b4" stroke-miterlimit="10" stroke-width="1.507" opacity="0.5"/><line x1="-106.8" y1="530.262" x2="732.72" y2="530.262" fill="none" stroke="#6b89c6" stroke-miterlimit="10" stroke-width="1.584" opacity="0.5"/><line x1="-106.8" y1="563.201" x2="732.72" y2="563.201" fill="none" stroke="#698dc8" stroke-miterlimit="10" stroke-width="1.881" opacity="0.563"/><line x1="-106.8" y1="596.14" x2="732.72" y2="596.14" fill="none" stroke="#6791cb" stroke-miterlimit="10" stroke-width="2.178" opacity="0.625"/><line x1="-106.8" y1="629.078" x2="732.72" y2="629.078" fill="none" stroke="#6695ce" stroke-miterlimit="10" stroke-width="2.475" opacity="0.688"/><line x1="-106.8" y1="662.017" x2="732.72" y2="662.017" fill="none" stroke="#6499d1" stroke-miterlimit="10" stroke-width="2.772" opacity="0.75"/><line x1="-106.8" y1="694.956" x2="732.72" y2="694.956" fill="none" stroke="#629dd4" stroke-miterlimit="10" stroke-width="3.069" opacity="0.813"/><line x1="-106.8" y1="727.895" x2="732.72" y2="727.895" fill="none" stroke="#60a1d7" stroke-miterlimit="10" stroke-width="3.366" opacity="0.875"/><line x1="-106.8" y1="760.834" x2="732.72" y2="760.834" fill="none" stroke="#5ea5da" stroke-miterlimit="10" stroke-width="3.663" opacity="0.938"/><line x1="-106.8" y1="793.773" x2="732.72" y2="793.773" fill="none" stroke="#5ba9dd" stroke-miterlimit="10" stroke-width="3.96"/></g><path d="M109.526,188.355a.575.575,0,1,0,.575.573A.577.577,0,0,0,109.526,188.355Z" fill="#fff"/><path d="M100.177,222.792a.829.829,0,1,0,.828.829A.832.832,0,0,0,100.177,222.792Z" fill="#fff"/><path d="M136.1,219.608a.508.508,0,0,0-.511.506.513.513,0,1,0,.511-.506Z" fill="#fff"/><circle cx="123.741" cy="231.657" r="0.32" fill="#fff"/><path d="M113.045,222.922a.255.255,0,1,0,.257.256A.254.254,0,0,0,113.045,222.922Z" fill="#fff"/><path d="M70.008,204.937a1.148,1.148,0,1,0,1.157,1.149A1.149,1.149,0,0,0,70.008,204.937Z" fill="#fff"/><path d="M90.44,179.939a.32.32,0,1,0,.318.32A.321.321,0,0,0,90.44,179.939Z" fill="#fff"/><path d="M131.171,177.771a.32.32,0,1,0,0,.64.32.32,0,0,0,0-.64Z" fill="#fff"/><path d="M116.762,198.433a.127.127,0,0,0-.127.13.127.127,0,0,0,.254,0A.127.127,0,0,0,116.762,198.433Z" fill="#fff"/><path d="M123.155,270.512a.744.744,0,1,0,0,1.488.744.744,0,1,0,0-1.488Z" fill="#fff"/><path d="M122.752,245.588a.633.633,0,1,0-.631.632A.628.628,0,0,0,122.752,245.588Z" fill="#fff"/><path d="M160.837,240.951a.573.573,0,1,0,.574.573A.573.573,0,0,0,160.837,240.951Z" fill="#fff"/><path d="M149.678,271.081a.8.8,0,1,0,.806.8A.8.8,0,0,0,149.678,271.081Z" fill="#fff"/><path d="M175.537,204.893a.575.575,0,1,0,.578.576A.577.577,0,0,0,175.537,204.893Z" fill="#fff"/><path d="M175.391,189.72a.795.795,0,1,0-.794.788A.791.791,0,0,0,175.391,189.72Z" fill="#fff"/><path d="M169.4,155.7a.359.359,0,1,0,.362.361A.362.362,0,0,0,169.4,155.7Z" fill="#fff"/><path d="M175.1,151.676a.432.432,0,1,0-.433-.431A.433.433,0,0,0,175.1,151.676Z" fill="#fff"/><path d="M169.756,122.724a.661.661,0,1,0-.66.655A.659.659,0,0,0,169.756,122.724Z" fill="#fff"/><path d="M106.977,84.286a1.573,1.573,0,1,0,1.578,1.573A1.579,1.579,0,0,0,106.977,84.286Z" fill="#fff"/><path d="M142.378,45.06a1.85,1.85,0,1,0,1.859,1.848A1.852,1.852,0,0,0,142.378,45.06Z" fill="#fff"/><path d="M74.269,130.363a1.019,1.019,0,1,0,1.023,1.019A1.022,1.022,0,0,0,74.269,130.363Z" fill="#fff"/><path d="M147.819,194.48a.318.318,0,0,0,0,.636.318.318,0,1,0,0-.636Z" fill="#fff"/><path d="M102.1,160.806a.446.446,0,1,0,.448.446A.447.447,0,0,0,102.1,160.806Z" fill="#fff"/><path d="M114.2,170.244a.257.257,0,1,0,0,.513.257.257,0,0,0,0-.513Z" fill="#fff"/><path d="M125.6,202.9a.255.255,0,0,0,0,.51.255.255,0,1,0,0-.51Z" fill="#fff"/><path d="M171.536,247.024a1.261,1.261,0,1,0,1.265,1.26A1.264,1.264,0,0,0,171.536,247.024Z" fill="#fff"/><path d="M128.017,158.437a1.006,1.006,0,1,0,1.012,1.007A1.008,1.008,0,0,0,128.017,158.437Z" fill="#fff"/><path d="M80.032,101.869a.461.461,0,1,0,.462.461A.46.46,0,0,0,80.032,101.869Z" fill="#fff"/><path d="M43.272,127.261a.575.575,0,1,0,.575.577A.579.579,0,0,0,43.272,127.261Z" fill="#fff"/><path d="M52.62,92.315a.83.83,0,1,0,.832.83A.832.832,0,0,0,52.62,92.315Z" fill="#fff"/><path d="M40.066,104.052a.318.318,0,1,0,0,.636.318.318,0,1,0,0-.636Z" fill="#fff"/><path d="M40,93.591a.256.256,0,0,0-.512,0,.256.256,0,1,0,.512,0Z" fill="#fff"/><path d="M82.786,109.533a1.148,1.148,0,1,0,1.149,1.15A1.15,1.15,0,0,0,82.786,109.533Z" fill="#fff"/><path d="M62.353,136.19a.32.32,0,1,0,.321.32A.32.32,0,0,0,62.353,136.19Z" fill="#fff"/><path d="M21.622,138.359a.32.32,0,1,0,.318.319A.322.322,0,0,0,21.622,138.359Z" fill="#fff"/><path d="M36.031,118.08a.127.127,0,0,0-.126.126.129.129,0,1,0,.257,0A.128.128,0,0,0,36.031,118.08Z" fill="#fff"/><path d="M48.679,61.266a.344.344,0,1,0,.347.343A.345.345,0,0,0,48.679,61.266Z" fill="#fff"/><path d="M43.159,37.666a.576.576,0,1,0-.574.57A.574.574,0,0,0,43.159,37.666Z" fill="#fff"/><path d="M13.039,189.24a1.791,1.791,0,1,0,1.8,1.789A1.8,1.8,0,0,0,13.039,189.24Z" fill="#fff"/><path d="M11.24,198.288a.378.378,0,1,0,.381.376A.378.378,0,0,0,11.24,198.288Z" fill="#fff"/><path d="M28.624,238.032a.74.74,0,1,0,.75.74A.745.745,0,0,0,28.624,238.032Z" fill="#fff"/><circle cx="78.524" cy="185.387" r="1.022" fill="#fff"/><path d="M4.97,121.653a.318.318,0,1,0,.321.317A.317.317,0,0,0,4.97,121.653Z" fill="#fff"/><path d="M50.7,155.067a.447.447,0,1,0,.447.447A.446.446,0,0,0,50.7,155.067Z" fill="#fff"/><path d="M38.592,146.012a.257.257,0,0,0,0,.513.257.257,0,1,0,0-.513Z" fill="#fff"/><path d="M27.194,113.36a.258.258,0,0,0-.257.257.261.261,0,0,0,.257.257.258.258,0,0,0,.254-.257A.255.255,0,0,0,27.194,113.36Z" fill="#fff"/><path d="M24.776,156.317a1.008,1.008,0,1,0,1.011,1.008A1.008,1.008,0,0,0,24.776,156.317Z" fill="#fff"/><path d="M72.762,213.974a.465.465,0,1,0,.466.465A.466.466,0,0,0,72.762,213.974Z" fill="#fff"/><path d="M64.119,227.671a.551.551,0,0,0-.553.554.556.556,0,1,0,.553-.554Z" fill="#fff"/><path d="M286.72,219.352a.575.575,0,1,0,.575.576A.575.575,0,0,0,286.72,219.352Z" fill="#fff"/><path d="M251.9,209.779a.83.83,0,1,0,.833.83A.831.831,0,0,0,251.9,209.779Z" fill="#fff"/><path d="M263.171,222.8a.318.318,0,1,0,0,.636.318.318,0,1,0,0-.636Z" fill="#fff"/><path d="M255.427,245.9a.51.51,0,1,0,0,1.019.51.51,0,0,0,0-1.019Z" fill="#fff"/><path d="M269.505,179.4a1.148,1.148,0,1,0,1.149,1.146A1.149,1.149,0,0,0,269.505,179.4Z" fill="#fff"/><path d="M295.423,200.59a.318.318,0,1,0,.32.32A.321.321,0,0,0,295.423,200.59Z" fill="#fff"/><path d="M277.054,227.012a.127.127,0,1,0,0,.253.127.127,0,1,0,0-.253Z" fill="#fff"/><path d="M204.105,232.766a.744.744,0,1,0,.747.743A.745.745,0,0,0,204.105,232.766Z" fill="#fff"/><path d="M229.86,231.847a.631.631,0,1,0,.63.629A.633.633,0,0,0,229.86,231.847Z" fill="#fff"/><path d="M196.227,220.036a.573.573,0,1,0,.575.573A.571.571,0,0,0,196.227,220.036Z" fill="#fff"/><path d="M233.939,270.486a.573.573,0,1,0,.578.573A.573.573,0,0,0,233.939,270.486Z" fill="#fff"/><path d="M203.474,259.132a.8.8,0,1,0,.8.8A.806.806,0,0,0,203.474,259.132Z" fill="#fff"/><path d="M353.16,278.631a.658.658,0,0,0,0,1.316.658.658,0,1,0,0-1.316Z" fill="#fff"/><path d="M366.3,268.82a.378.378,0,0,0,0,.755.378.378,0,1,0,0-.755Z" fill="#fff"/><path d="M350.138,248.258a1.791,1.791,0,1,0,1.791,1.793A1.794,1.794,0,0,0,350.138,248.258Z" fill="#fff"/><path d="M357.8,251.464a.378.378,0,1,0,0,.755.378.378,0,1,0,0-.755Z" fill="#fff"/><path d="M353.63,242.784a.187.187,0,1,0-.186.19A.184.184,0,0,0,353.63,242.784Z" fill="#fff"/><path d="M354.012,229.017a.755.755,0,1,0,0,1.51.755.755,0,1,0,0-1.51Z" fill="#fff"/><path d="M364.513,240.523a.467.467,0,0,0-.47.469.471.471,0,1,0,.941,0A.468.468,0,0,0,364.513,240.523Z" fill="#fff"/><path d="M390.152,215.815a1.573,1.573,0,1,0,1.583,1.573A1.572,1.572,0,0,0,390.152,215.815Z" fill="#fff"/><path d="M398.049,233.777a.74.74,0,1,0,.739.74A.743.743,0,0,0,398.049,233.777Z" fill="#fff"/><path d="M373.627,228.961a.649.649,0,1,0,.649.647A.649.649,0,0,0,373.627,228.961Z" fill="#fff"/><path d="M429.24,250.813a1.851,1.851,0,1,0,1.859,1.849A1.851,1.851,0,0,0,429.24,250.813Z" fill="#fff"/><path d="M414.015,244.517a.185.185,0,0,0-.187.186.187.187,0,0,0,.373,0A.185.185,0,0,0,414.015,244.517Z" fill="#fff"/><path d="M280.834,257.771a.32.32,0,1,0,0,.64.32.32,0,0,0,0-.64Z" fill="#fff"/><path d="M314.5,212.078a.446.446,0,1,0,.448.446A.446.446,0,0,0,314.5,212.078Z" fill="#fff"/><path d="M305.216,224.331a.255.255,0,0,0-.258.253.258.258,0,0,0,.258.257.256.256,0,0,0,.254-.257A.252.252,0,0,0,305.216,224.331Z" fill="#fff"/><path d="M272.449,235.689a.257.257,0,0,0-.257.256.256.256,0,1,0,.511,0A.257.257,0,0,0,272.449,235.689Z" fill="#fff"/><path d="M227.158,280.46a1.261,1.261,0,1,0,1.265,1.261A1.264,1.264,0,0,0,227.158,280.46Z" fill="#fff"/><path d="M336.3,242.386a.936.936,0,1,0,.941.934A.939.939,0,0,0,336.3,242.386Z" fill="#fff"/><path d="M316.311,237.347a1.008,1.008,0,1,0,1.008,1.008A1,1,0,0,0,316.311,237.347Z" fill="#fff"/><path d="M348.905,242.316a1.418,1.418,0,1,0-1.417,1.413A1.418,1.418,0,0,0,348.905,242.316Z" fill="#fff"/><path d="M373.627,191a.463.463,0,1,0-.463-.461A.461.461,0,0,0,373.627,191Z" fill="#fff"/><path d="M371.582,150.393a.32.32,0,1,0,0,.639.32.32,0,1,0,0-.639Z" fill="#fff"/><path d="M379.322,126.908a.512.512,0,0,0,0,1.023.512.512,0,1,0,0-1.023Z" fill="#fff"/><path d="M390.905,140.054a.318.318,0,1,0,0-.636.318.318,0,1,0,0,.636Z" fill="#fff"/><path d="M382.4,150.14a.255.255,0,1,0,.255.253A.256.256,0,0,0,382.4,150.14Z" fill="#fff"/><path d="M366.394,193.279a1.15,1.15,0,1,0-1.149,1.149A1.146,1.146,0,0,0,366.394,193.279Z" fill="#fff"/><path d="M339.323,172.6a.32.32,0,1,0,.32.32A.318.318,0,0,0,339.323,172.6Z" fill="#fff"/><path d="M430.644,139.575a.746.746,0,1,0,.746.747A.747.747,0,0,0,430.644,139.575Z" fill="#fff"/><path d="M414.491,158.954a.344.344,0,1,0,.344.342A.346.346,0,0,0,414.491,158.954Z" fill="#fff"/><path d="M404.885,140.724a.631.631,0,0,0,0,1.261.631.631,0,1,0,0-1.261Z" fill="#fff"/><path d="M438.519,152.646a.573.573,0,1,0,0,1.146.573.573,0,1,0,0-1.146Z" fill="#fff"/><path d="M431.278,113.089a.8.8,0,1,0,.8.8A.8.8,0,0,0,431.278,113.089Z" fill="#fff"/><path d="M382.4,56.677a.559.559,0,1,0-.559.558A.556.556,0,0,0,382.4,56.677Z" fill="#fff"/><path d="M379.224,32.527a.435.435,0,1,0-.432-.435A.432.432,0,0,0,379.224,32.527Z" fill="#fff"/><path d="M369.022,79.2a1.224,1.224,0,1,0,1.23,1.223A1.227,1.227,0,0,0,369.022,79.2Z" fill="#fff"/><path d="M360.288,79.054a.577.577,0,1,0,.583.576A.578.578,0,0,0,360.288,79.054Z" fill="#fff"/><path d="M364.626,88.7a.575.575,0,0,0,0-1.149.575.575,0,1,0,0,1.149Z" fill="#fff"/><path d="M348.817,89.85a.791.791,0,1,0-.792-.793A.8.8,0,0,0,348.817,89.85Z" fill="#fff"/><path d="M307.974,49.552a1.079,1.079,0,1,0,1.082,1.078A1.085,1.085,0,0,0,307.974,49.552Z" fill="#fff"/><path d="M315.474,54.877a.222.222,0,0,0,.225-.215.226.226,0,0,0-.225-.22.219.219,0,0,0-.215.22A.215.215,0,0,0,315.474,54.877Z" fill="#fff"/><path d="M305.011,70.422a.144.144,0,0,0-.143-.149.149.149,0,0,0-.145.149.145.145,0,0,0,.145.142A.14.14,0,0,0,305.011,70.422Z" fill="#fff"/><path d="M218.686,36.912a.565.565,0,1,0,.567.565A.568.568,0,0,0,218.686,36.912Z" fill="#fff"/><path d="M228.427,40.682a.285.285,0,1,0,.287.283A.289.289,0,0,0,228.427,40.682Z" fill="#fff"/><path d="M193.339,27.477a.19.19,0,1,0,0,.379.19.19,0,0,0,0-.379Z" fill="#fff"/><path d="M206.2,31.062a.188.188,0,1,0,0-.376.188.188,0,1,0,0,.376Z" fill="#fff"/><path d="M249.8,66.149a.473.473,0,1,0,.475.473A.471.471,0,0,0,249.8,66.149Z" fill="#fff"/><path d="M241.765,62a.19.19,0,1,0,0,.379.19.19,0,0,0,0-.379Z" fill="#fff"/><path d="M294.165,74.825a.38.38,0,1,0,.378.38A.382.382,0,0,0,294.165,74.825Z" fill="#fff"/><path d="M281.585,93.881a.66.66,0,1,0,.664.662A.664.664,0,0,0,281.585,93.881Z" fill="#fff"/><path d="M268.818,104.632a.381.381,0,1,0-.381.38A.383.383,0,0,0,268.818,104.632Z" fill="#fff"/><path d="M270.236,132.364a.472.472,0,1,0,.474.472A.468.468,0,0,0,270.236,132.364Z" fill="#fff"/><path d="M244.594,154.87a1.573,1.573,0,1,0,1.578,1.573A1.576,1.576,0,0,0,244.594,154.87Z" fill="#fff"/><path d="M205.505,119.314a1.852,1.852,0,1,0,1.854,1.848A1.855,1.855,0,0,0,205.505,119.314Z" fill="#fff"/><path d="M290.277,188.016a1.018,1.018,0,1,0,1.022,1.02A1.023,1.023,0,0,0,290.277,188.016Z" fill="#fff"/><path d="M353.915,116.06a.32.32,0,1,0,0-.64.32.32,0,1,0,0,.64Z" fill="#fff"/><path d="M320.252,160.861a.447.447,0,1,0,.448.447A.446.446,0,0,0,320.252,160.861Z" fill="#fff"/><path d="M329.529,148.987a.259.259,0,0,0-.253.257.258.258,0,0,0,.515,0A.261.261,0,0,0,329.529,148.987Z" fill="#fff"/><path d="M446.654,80.832a.619.619,0,1,0,0,1.238.619.619,0,1,0,0-1.238Z" fill="#fff"/><path d="M318.437,134.469a1.008,1.008,0,1,0,1.009,1A1.01,1.01,0,0,0,318.437,134.469Z" fill="#fff"/><path d="M254.218,24.833a.6.6,0,1,0,.6.6A.6.6,0,0,0,254.218,24.833Z" fill="#fff"/><path d="M259.458,34.468a.6.6,0,1,0,.6.6A.607.607,0,0,0,259.458,34.468Z" fill="#fff"/><path d="M280.491,34.87a.3.3,0,1,0-.3-.3A.3.3,0,0,0,280.491,34.87Z" fill="#fff"/><path d="M295.994,28.247a1.1,1.1,0,1,0,1.108,1.1A1.1,1.1,0,0,0,295.994,28.247Z" fill="#fff"/><path d="M200.332,50.683a.565.565,0,1,0,.571.565A.564.564,0,0,0,200.332,50.683Z" fill="#fff"/><path d="M281.869,52.472a1.04,1.04,0,1,0-1.042,1.041A1.04,1.04,0,0,0,281.869,52.472Z" fill="#fff"/><path d="M214.144,73.319a.378.378,0,0,0,0,.755.378.378,0,1,0,0-.755Z" fill="#fff"/><path d="M225.214,96.521a.285.285,0,1,0,0,.569.285.285,0,0,0,0-.569Z" fill="#fff"/><path d="M261.123,182.832a.463.463,0,1,0,.466.462A.463.463,0,0,0,261.123,182.832Z" fill="#fff"/><path d="M247.288,174.13a.554.554,0,1,0,.556.554A.558.558,0,0,0,247.288,174.13Z" fill="#fff"/><path d="M510.71,188.355a.575.575,0,1,0,.583.573A.578.578,0,0,0,510.71,188.355Z" fill="#fff"/><path d="M520.063,222.792a.829.829,0,1,0,.835.829A.832.832,0,0,0,520.063,222.792Z" fill="#fff"/><path d="M550.231,204.937a1.148,1.148,0,1,0,1.15,1.149A1.151,1.151,0,0,0,550.231,204.937Z" fill="#fff"/><path d="M529.795,179.939a.32.32,0,1,0,.321.32A.319.319,0,0,0,529.795,179.939Z" fill="#fff"/><circle cx="489.064" cy="178.091" r="0.32" fill="#fff"/><path d="M503.477,198.433a.129.129,0,0,0,0,.257.129.129,0,0,0,0-.257Z" fill="#fff"/><path d="M497.081,270.512a.744.744,0,1,0,.746.744A.743.743,0,0,0,497.081,270.512Z" fill="#fff"/><path d="M516.121,254.811a.346.346,0,1,0,.351.346A.347.347,0,0,0,516.121,254.811Z" fill="#fff"/><path d="M510.031,278.534a.571.571,0,1,0,.574.569A.574.574,0,0,0,510.031,278.534Z" fill="#fff"/><path d="M470.561,271.081a.8.8,0,1,0,.806.8A.8.8,0,0,0,470.561,271.081Z" fill="#fff"/><path d="M444.7,204.893a.575.575,0,1,0,.583.576A.573.573,0,0,0,444.7,204.893Z" fill="#fff"/><path d="M445.639,188.928a.79.79,0,1,0,.792.792A.788.788,0,0,0,445.639,188.928Z" fill="#fff"/><path d="M450.841,155.7a.359.359,0,1,0,.359.357A.362.362,0,0,0,450.841,155.7Z" fill="#fff"/><path d="M445.131,151.676a.432.432,0,1,0-.433-.428A.431.431,0,0,0,445.131,151.676Z" fill="#fff"/><path d="M451.141,122.062a.659.659,0,1,0,.663.662A.657.657,0,0,0,451.141,122.062Z" fill="#fff"/><path d="M513.262,84.286a1.573,1.573,0,1,0,1.576,1.573A1.578,1.578,0,0,0,513.262,84.286Z" fill="#fff"/><path d="M496.812,77.994a.743.743,0,0,0-1.486,0,.743.743,0,1,0,1.486,0Z" fill="#fff"/><path d="M500.991,101.683a.647.647,0,1,0,.65.647A.648.648,0,0,0,500.991,101.683Z" fill="#fff"/><path d="M477.861,45.06a1.85,1.85,0,1,0,1.858,1.848A1.848,1.848,0,0,0,477.861,45.06Z" fill="#fff"/><path d="M485.847,61.9a.184.184,0,1,0,0,.368.184.184,0,1,0,0-.368Z" fill="#fff"/><path d="M472.412,194.48a.318.318,0,1,0,0,.636.318.318,0,1,0,0-.636Z" fill="#fff"/><path d="M518.144,160.806a.446.446,0,1,0,.447.446A.448.448,0,0,0,518.144,160.806Z" fill="#fff"/><path d="M506.037,170.244a.257.257,0,1,0,.254.257A.253.253,0,0,0,506.037,170.244Z" fill="#fff"/><path d="M453.409,66.261a.285.285,0,0,0,0,.569.285.285,0,1,0,0-.569Z" fill="#fff"/><path d="M540.208,101.865a.463.463,0,1,0,.462.465A.461.461,0,0,0,540.208,101.865Z" fill="#fff"/><path d="M531.564,87.987a.556.556,0,1,0,.56.554A.56.56,0,0,0,531.564,87.987Z" fill="#fff"/><path d="M576.967,127.261a.577.577,0,1,0,.583.577A.577.577,0,0,0,576.967,127.261Z" fill="#fff"/><path d="M567.615,92.315a.83.83,0,1,0,.836.83A.831.831,0,0,0,567.615,92.315Z" fill="#fff"/><path d="M580.169,104.048a.32.32,0,1,0,0,.64.32.32,0,1,0,0-.64Z" fill="#fff"/><path d="M603.547,96.142a.51.51,0,1,0,.515.509A.514.514,0,0,0,603.547,96.142Z" fill="#fff"/><path d="M590.865,85.112a.321.321,0,1,0,.321-.32A.32.32,0,0,0,590.865,85.112Z" fill="#fff"/><path d="M580.49,93.338a.251.251,0,0,0-.253.253.254.254,0,1,0,.507,0A.251.251,0,0,0,580.49,93.338Z" fill="#fff"/><path d="M537.453,109.533a1.148,1.148,0,1,0,1.15,1.15A1.152,1.152,0,0,0,537.453,109.533Z" fill="#fff"/><circle cx="557.882" cy="136.51" r="0.32" fill="#fff"/><path d="M598.612,139a.32.32,0,1,0,0-.639.32.32,0,1,0,0,.639Z" fill="#fff"/><path d="M584.208,118.08a.13.13,0,0,0-.135.126.133.133,0,0,0,.135.13.13.13,0,0,0,.126-.13A.127.127,0,0,0,584.208,118.08Z" fill="#fff"/><circle cx="590.596" cy="45.513" r="0.746" fill="#fff"/><path d="M571.556,61.266a.348.348,0,0,0-.344.346.344.344,0,1,0,.344-.346Z" fill="#fff"/><path d="M589.559,70.549a.629.629,0,1,0,.635.628A.63.63,0,0,0,589.559,70.549Z" fill="#fff"/><path d="M577.654,37.09a.573.573,0,1,0,.575.576A.572.572,0,0,0,577.654,37.09Z" fill="#fff"/><path d="M607.2,189.24a1.791,1.791,0,1,0,1.8,1.789A1.795,1.795,0,0,0,607.2,189.24Z" fill="#fff"/><path d="M609,198.284a.38.38,0,1,0,.381.38A.383.383,0,0,0,609,198.284Z" fill="#fff"/><path d="M599.911,194.141a.194.194,0,0,0-.193.19.19.19,0,0,0,.38,0A.193.193,0,0,0,599.911,194.141Z" fill="#fff"/><path d="M586.85,194.141a.755.755,0,1,0,.754.752A.76.76,0,0,0,586.85,194.141Z" fill="#fff"/><path d="M598.112,204.885a.471.471,0,1,0,.471.473A.472.472,0,0,0,598.112,204.885Z" fill="#fff"/><path d="M574.422,229.337A1.573,1.573,0,1,0,576,230.906,1.577,1.577,0,0,0,574.422,229.337Z" fill="#fff"/><path d="M591.612,238.032a.74.74,0,1,0,0,1.48.74.74,0,0,0,0-1.48Z" fill="#fff"/><path d="M586.686,213.792a.647.647,0,1,0,.649.647A.649.649,0,0,0,586.686,213.792Z" fill="#fff"/><path d="M541.715,184.368a1.018,1.018,0,1,0,1.022,1.019A1.018,1.018,0,0,0,541.715,184.368Z" fill="#fff"/><path d="M569.541,155.067a.447.447,0,1,0,.448.447A.448.448,0,0,0,569.541,155.067Z" fill="#fff"/><path d="M581.647,146.012a.257.257,0,1,0,.254.257A.256.256,0,0,0,581.647,146.012Z" fill="#fff"/><path d="M593.045,113.36a.255.255,0,1,0,0,.51.255.255,0,0,0,0-.51Z" fill="#fff"/><path d="M600.441,176.31a.935.935,0,1,0,.941.933A.934.934,0,0,0,600.441,176.31Z" fill="#fff"/><path d="M595.463,156.317a1.008,1.008,0,1,0,1.007,1.008A1.012,1.012,0,0,0,595.463,156.317Z" fill="#fff"/><path d="M599.434,186.979a1.412,1.412,0,1,0,1.418,1.413A1.412,1.412,0,0,0,599.434,186.979Z" fill="#fff"/><path d="M547.469,213.974a.465.465,0,1,0,.471.465A.465.465,0,0,0,547.469,213.974Z" fill="#fff"/><path d="M556.112,227.671a.55.55,0,0,0-.551.554.556.556,0,1,0,.551-.554Z" fill="#fff"/></g><g mask="url(#h)"><rect x="-90" width="792" height="792" fill="#170e1b"/></g><path d="M462.1,282.338H419.574l-.32-7.761L411.156,248l-9.506-14.259-.048-.152-.1-.059-20.1-27.043L364,195.213l-20.536-8.4-.087-.116h-.244l-33.291-9.724-.088-.026h-26.9l-28.26,5.834-.135-.034-.242.162-24.872,10.543-22.918,13.4-.132.043-.059.076-22.212,14.889L168.4,248.348l-.152.131,0,.17-10.3,23.133-.038.086-3.425,26.417-.081,29.329-9.667,4.834-4.92,15.078,3.27,18.533,5.759,19.781,7.629,10.743,9.618,9.092,9.98,11.146,10.267,4.237,1.771-1.811,6.407,14.584,4.292,21.4-2.3,29.037-5.533,21.822-9.222,21.365L164.707,553.97l.673.312c18.579,8.6,21.774,9.771,22.549,9.779a.438.438,0,0,1-.136,0c1.612.34,35.285,15,57.471,24.753l32.357,17.933,41.845-5.579,16.891-22.831,7.49-15.884-1.663-27.882.809-11.669,17.191,1.33.118.009,19.217-5.689,7.99-8.287.072-.075,7.845-16.178.033-.068,5.49-24.775.078-.225-.012-.026,4.013-15.271.006.006.293-1.144,0-.011,6.467-15.92,6.446-19.172,5.367-15.477,1.085-8.869,37.4,0,20.75-20.75V303.089ZM403.7,450.111l.726-14.483,3.7.767L404.4,450.928Zm-9.1,33.44-.9-3.823,4.869-12.85,1.067,2.151Zm-8.17,25.841-15.432,7.358,2-17.352,14.006.844Zm-26.339,13.531-26.667-2.063,10.954-6.832,23.973,4.14ZM340.9,534.417l-1.715,4.247,2-8.343Zm-5.7,43.312-15.163,20.494,5.07-43.241,10.757-6.837ZM141.274,347.238l3.516-10.777,4.642,4.351-1.855,9.481Zm11.692-15.467,2.874,4.464-5.627,3.539-4.6-4.317Zm2.8-29.432,7.588,22.889-7.649.616Zm8.006.976.729,21.268-8.712-26.277,2.871-22.144Zm43.3-95.308,20.775-6.654-20.373,25.466L189.115,231.7Zm80.151-15.734L259.1,205.383l-27.766-5.624L254.7,184.142Zm79.6,28.045-24.68-2.746-26.014-29.58h26.6Zm42.865,43.321-15.292-5.19-7.592-32,13.717,8Zm-24.4-37.964,7.72,32.507-16.69-2.435-7.251-33.772ZM283.62,281.016l-.732-21.21,35.044-5.518,2.793,27.777Zm-6.857,89.289-43.292-22.759-.775-26.182,44.067-16.478Zm-8.333,19.082,1.833,10.02-30.392-6.127-3.6-20.377,3.235.742c6.351,5.548,13.539,11.9,15.068,13.462l.939.827C255.918,387.978,261.625,388.643,268.43,389.387Zm90.541,10.129.83,5.913-6.412,4.061-.832-6.553Zm23.489-6,3.374,7.945-11.557.449-.865-6.923Zm14.094,7.8-1.347,8-3.457,4.9-8.924-.694,2.394-3.593,2.08-7.273Zm2.729-8.258.726.252,1.3,3.689-.032.084.071.026,1.544,4.372-5.042-1.454-2.144-6.969Zm1.64,57.577-.755-14.038,2.958-.871-.7,14.215Zm-8.45,28.675-8.377,7.289,1.144-8.833,4.347-3.14,4.955-6.22.064-.081,2.709-7.425.507,4.292Zm-19.556,18.8-3.024-10.564,12.886,1.265,3.937,10.131Zm-27.6,14.78,6.553-10.117,19.815-3.268-2.028,17.589ZM323.98,554.032l-19.234,3.178,5.627-19.318,18.925-4.074ZM188.135,406.345l3.44-5.386,3.2,4.4L192.72,412Zm-29.356-12.376,3.94-2.97,5.274,6.362-2.79,2.33ZM150.687,365.8l.749-6.293,2.418,3.251-1.026,6.476Zm-.131-24,3.828,3.285-3.5,10.945-2.162-4.864Zm11.781-7.528.754,1.938-5.988-.4-2.429-3.775Zm68.391-12.52c-.059,7.849.216,17.128.746,25.282l-45.663-5.757a1.363,1.363,0,0,1-.161-.279l-.123.17-2.916-3.354-9.8-7.013-7.267-2.641-2.907-.928ZM181.6,272.469l6.357,39.4-8.2,6.631-9.069-33.3Zm25.37-44.2-7.458,29.672-16.647,11.668,5.178-36.291Zm50.862-21.822L235.4,226.737l-26.194-.022L229.946,200.8Zm16.389,23.447-24.266,15.98-13.441-18.4,22.543-20.429Zm34.421-8.442,9.042,31.577-34.99,5.5-6.8-28Zm-73.036,148.8-.569,1.206-21.093,2.182,2.3-15.611,16.346-2.461,1.939,13.749.273.238Zm34.979,30.546,5.657,16.461-30.212-1.577-5.822-21.008Zm76.88,5.271,2.154,9.868-9.382,8.077L327.4,415.981Zm3.88-2.389.864,6.806-1.659,3.652-1.9-8.719Zm34.584-.926-1.843,6.539-2.622,3.935-7.46-4.036.317-5.986Zm11.923-1.382,5.18,1.5-3.024,6.923-5.806,3.184,2.228-3.156Zm-15.177,86.127-12.854-1.262,1.856-7.206,12.212-.922Zm-63.908,9.89-17.234-17.355,12.429-5.409,14.323,15.77Zm-8.049,39.128,2.92-12.341,17.04-2.077-1.085,10.34Zm-58.063-3.795,0-19.834,29.594,6.213v17.672ZM189.967,396.378,192.5,394l-1.2,4.306Zm-15.33,5.206v-3.453l4.045.687v3.887Zm-4.991-4.336.527-1.591,3.172,2.06v2.9Zm-3.623-4.287,3.031,1.969-.4,1.2Zm-12.106-22.349,1.1-6.909,2.859,2.09-.445,6.056Zm1.483-24.465,4.064,4.573-5.05,10.628L151.7,357.72Zm24.612-26.19,7.618-6.157c-.486,2.017-1.385,5.588-2.425,9.669l-5.549.447Zm19.475-60.42,1.484,35.481c-7.415,9.272-10.586,13.447-11.942,15.366l-6.309-39.1Zm35.069-31.509L220.049,254.2l-19.1,3.328,7.419-29.516Zm14.169,18.346-26.954,7.38,13.956-25.173ZM202.23,294.182l-1.478-35.312,19.12-3.335,2.079,28.219Zm-13.355,19.937,4.1,8.725-6.409.516C187.526,319.6,188.385,316.174,188.875,314.119Zm5.478,8.614-4.982-10.6c.936-1.552,7.561-9.987,12.117-15.7L211.6,317.685l-7.023,4.225Zm17.608-3.765.405,2.316-4.906.394Zm1.7,2.211-.5-2.842,18.132-7.106-.506,8.57Zm18.01,27.831.743,5.272L216.347,356.7l.349-9.578Zm7.145,45.446,5.842,21.091-20.245-2.262-6.968-19.549Zm37.841,24.11,5,19.654-25.045-1.21L246.608,417Zm73.772-1.624,7.2,3.711-5.109,5-10.689-1.31Zm2.736-5.432,6.262,3.807,2.545,2.018-3.308,2.4-7.484-3.857Zm11.067-.537,8.971-.754,6.69,3.619-5.408,1.312-11.259,1.532-2.482-1.97Zm26.213,53.846-1.834-7.336,4.281,1.631,3.074.087Zm-1.831,8.779-11.737,3.489,2.789-8.4,9.694-1.8Zm-20.127,12.643-15.024,2.89,3.312-9.825,13.558-.232ZM325.8,468.8l4.341-4.341L340.5,474.7l-4.325,6.805Zm-40.206,40.6,30.81,6.526-3.643,6.935-29.087-4.823ZM317.67,516.3l11.238,4.7-14.647,1.786Zm-31.618-8.116,2.115-4.23,22.625,9.469Zm-1.283-.323-30.837-9.57,2.162-6.642,7.488,3.061.032.033.146.038,23.2,8.7ZM207.243,413.6l-1.809-17.231,10.677-2.553,6.919,19.438Zm-8.1-19.077-2.4-14.4,3.925-1.767,3.263,16.766Zm-11.119-1.233-1.7-1.392,1.348-1.426,2.166.607Zm-3.46,3.148-2.53-3.37,3.157-.433,1.923,1.579Zm-4.993,1.132-3.482-3.961,4.472-.361,2.771,3.662Zm-13.35-6.022,2.781.634,1.965,2.449Zm-6.137-39.19,1.275,4.084-5.08,3.963Zm4.042-14.554,4.178,3.4L164.8,344.6l-3.66-3.482Zm6.341,7.823-4.356,5.809-.634-5.706,3.572-3.452ZM185.307,391.1l-4.184-3.047,5.217,1.955Zm-15.408-.021-.784-3,1.76-.248,2.506,4.194Zm-8.077-25.315,4.122-4.7h2.25l-3.954,5.405Zm-2.135-.623,4.546-5.282.564.6-4.342,4.909Zm13.973-20.29.759,2.108-2.4,2.01-.144-2.919Zm-1.7-.414.2-2.561.978,1.771Zm1.172,36.238,5.633-2.595,3.67,4.176-5.389,2.735Zm8.28-13.476-1.279.436,1.556-3.444Zm-8.769,12.278-.4-6.045V373.2l6.047-3.372v7.056Zm2.538-23.1,1.271-.419-1.262,2.064ZM173.9,359.4l-1.785-.584,1.773-1.514Zm1.784,5.02-.406-3.469,5.359.082Zm-.3,2.163,2.412,2.031-4.71,2.626Zm-3.149,3.461v-2.031l1.405-.818Zm4-4.433,4.908-3.357-2.452,5.424Zm-.544-5.947,2.286-3.735c.548.677,1.521,1.815,3.265,3.822Zm-1.021-4.481-.68-.572,1.463.313Zm-.54,7.034.348,2.995-3.1,1.8-1.035.12,3.765-4.886Zm-4.652,6.321,1.465-.171v3.92l-1.978.408Zm13.05-9.279c-1.175-1.354-2.6-3.007-3.41-3.98l5.732-.782Zm-10.318-6.35-.116-2.346,2.78-2.331,2.043,5.684Zm-.659,1.34,1.757,1.478L170,357.146l-.987-1.134Zm-2.72,3.519-3.068,1.831-.6-.633,2.8-2.191Zm.858.987.247.284-.746.734h-1.2Zm3.635,2.31-.259.424-4.441,5.765-2.993-.5,4.152-5.688Zm-5.142,7.425-.538,4.373H165.14V367.98Zm.617,5.558,2.154-.443.385,5.772-3.011-1.5Zm10.775-4.867,2.024-.708,3.51,11.312-5.534-2.885Zm3.515-6.141,1.651,3.9-2.014.038Zm2.99,3.753-2.688-6.355,2.514-5.157,4.189,10.368Zm-7.731-12.713-2.369-6.594,8.694-3.887.6,9.536Zm-7.422-.969-2.765,1.918-1.472-1.69,4.148-2.029Zm-5.309.964,1.5,1.725-2.845,2.224-1.265-1.339Zm1.868,20.079-.458,3.712-2.144,1.323.226-5.038Zm-.267,5.113.9,3.59-2.073.536-1.064-2.745Zm1.379.189,2.326,1.158-1.659,1.5Zm3.417,1.913,3.677,4.039-4.188.993-1.777-2.957ZM175.1,392.4l-2.9-4.83,4.39-1.039,3.194,5.493Zm6.1-.512-2.19-3.766,4.7,3.421Zm-2.709-6.192,4.706-2.379,2.872,5.218Zm5.116-4.029-1.929-2.2,3.095,1.613Zm3.013-1.362-3.732-12.026,2.375-.045,4.268,11.33Zm4.2-.971-4.271-11.343,4.011-1.129,4.548,12.277Zm5.557-.457-4.575-12.379,5.793-2.027,2.806,12.6Zm1.081-15.712-6.121,2.129-4.555-11.276,11.736-5.143Zm-21.921-16.89-.775-2.159,6.788-4.559,2.523,2.9Zm4.993-7.589-6.329,4.249-1.658-3.012,5.314-3.141Zm-9.765,11.227-3,1.467,2.883-3.837Zm-6.45-2.919.655,5.905-2.564,2.572-1.474-4.718Zm-2.273,10.561,1.3,1.377-4.907,5.686-2.83-2.044Zm-2.919,8.777,1.078.315.412,5.79-1.92-.253Zm2.4.7,2.319.677v5.152l-1.923-.253Zm2.262,7.125h.027l-.143,3.2-1.351-3.395Zm-.091,6.765.331.855-1.169-1.09Zm3.254,3.578,1.669-.431,1.534,2.567-1.572.221-1.6-2.041h.312Zm7.387,12.274-3.226-4.02,3.3.9,3.226,3.683Zm13.573-7.571-3.561-6.47,1.551-.784,3.849,7.773Zm3.535,1.033L187.12,381.5l2.814-.725,2.817,10.03Zm2.849,1.3L191.225,380.6l4.259-.193,2.225,13.352ZM245.127,416.9l9.888,19.8-24.36-5.7-5.765-16.353Zm36.964,22.633,8.256,17.717-26.325-1.684-6.853-17.244ZM259,475.029l-15.434-23.268,19.618,4.991,13.667,21.056Zm-3.273-36.839,6.776,17.056-19.99-5.086-10.978-17.634Zm-13.988,13.154,15.407,23.227-14.853-3.85-15.1-20.4Zm-.157,20.527,19.8,20.554-5.369-2.18-20.859-15.734-4.309-4.143c2.741.395,7.35,1.018,10.5,1.441Zm2.38.617,14.342,3.715,21.417,21.435-15.43-4.05Zm38.192,25.756-21.681-21.681,17.4,2.712,20.677,20.439Zm-3.612-20.2L264.808,456.9l26.141,1.682,8.476,20.532Zm22.214.916L292.3,458.471l15.175-2.452,5.855,17.466Zm13.755-6.009-5.757-17.154,11.02-2.045,4.376,14.664Zm17.6-35.216-3.984,15.7-7.227-.985.705-15.275Zm31.174-19.755,5.189-.706-2.179,2.572h-5.585Zm23.854,6.105,1.7,6.973-4.977-3.063-.264-5.038Zm7.936,11.686.807,8.52-3.854-4.48-1.285-6.206Zm-7.306,20.013-2.855.289,1.987-4.9,5.029,1.873-2.768,3.272Zm-8.054,11.586-1.335-9.34,8.811-.89,2.111,8.447Zm-48.669-3.823,1.723-1.77,11.424,8.253-2.93,3.616Zm29.566-29.7v6.515l-14.85,5.454,1.094-9.291Zm6.48-12.791,7.443-1.305.53,1.76-9.429,2.887C366.518,422.5,366.916,421.549,367.094,421.057Zm12.6-1.392.307,1.713-3.643-.073-.5-1.64Zm2.6,3.026.264,5.027h-3.436l2.077-5.045Zm-3.444,33.993,2.645-4.506,3.98-.926-2.01,4.964Zm-11.7,10.188-1.443-8.771h11.382l1.334,9.339Zm-5.352,7.6-13.805-8.449.332-2.07,17.274,3.972Zm-1.576,1.887-14.175-6.733,1.455-2.389,13.511,8.269Zm-26.538-15.519,1.379-1.416,11.342,7.132-1.466,2.416Zm38.907-31.5-.766,6.76-9.918,3.772V433.5Zm4.952-.334.406,8.089-4.821-1.039.78-7.05Zm-.264,27.8H372.3l2.551-5.266,5.165.6Zm-36.994,4.371,6.788,2.42-.269,1.68ZM360.847,444.9l.3,1.166-12.184,6.436-.217-1.8Zm11.406-7.58,1.922,1.977-12.269,3.811v-1.853Zm1.614,12.994-10.759,2.289-.529-5.825,12.058-6.081Zm-24.988,9.574,1.163-2.657,11.582-2.948-.887,3.33Zm-6.786.561,5.056.851v.951Zm20.22-14.983-.272-1.047,6.106-1.9Zm-.973,1.956.5,5.474-11.854,3.022-.757-2.1Zm-22,11.253,9.185-1.2-1.118,2.557Zm8.718-4.331.641,1.808-8.3,1.081Zm.383,6.943,15.977-3.077,1.386,8.431-17.367-3.99Zm16.506-4.482-2.8.537.906-3.406,10.262-2.184-2.448,5.053Zm15.508-5.92-5.288-.61.791-9.862,4.776,1.188Zm-4.745-11.865-1.336-1.374,3.915.844,1.288,1.492Zm-15.094,4.566-12.4,5.954L346.1,447.07l14.518-5.331Zm-13.124,7.519.238,1.983-12.672,4.781-4.828-3.38Zm-13.9,7.316-.072.028.424.266-1.125,1.155-2.077-3.444Zm48.157-7.633.277-9.248,4.1-1.668-.222,9.949Zm-.17-10.461-1.728-2,5.294-1.04.727,1.3Zm-2.336-3.2-.408-8.121h3.921l1.9,7.058Zm-1.519-9.413H374.28l2.029-5.124,3.5.057Zm-12.8-1.765,9.855-3-1.946,4.914-10.392,4.047Zm-20.1,21.617,2.014,2.35L334,452.437Zm-15.036,9.776,2.1,3.485-1.317,1.352ZM345.315,470.7l13.405,6.377-2.445.917-13.832-3.751Zm15.157,7.1,2.017.119-2.447.042Zm1.305-1.217.475-.512,3.986.775Zm1.246-1.678,3.938-6.757,11.331.581-2.854,8.59Zm22.992-38.758-1.728-6.377,4.979,3.062L390.5,438.8Zm-3.641-14.72-1.06-.021L381,419.665h1.722Zm-6.819-3.052-.244-2.1,5.433-1.316-1,3.413Zm-1.517-1.858.231,1.981-6.028,1.05,2.149-2.535Zm-15.054,4.62h6.695c-.36.858-1.014,2.3-1.666,3.692l-9.544.726Zm-5.872,5.817,10.323-.785L360.8,432.5l-13.123,2.559Zm-8.71,19.393-14.834,6.669,3.878-15.281,12.09-1.036Zm-23.268,7.439,6.919.943,1.395,8.6-4.209,4.209Zm20.473,21.567,13.868,3.761-3.362,9.979-14.94-6.769Zm51.539-17.522-2.7-1.03,2.549-3.013,3.14,4.127Zm-.528-5.913L387.2,449.9l.226-10.16,3.652.942,3.813,4.432ZM390.4,431.988l-1.816-7.446,3.282,1.046,2.735,8.5Zm3.129-12.807,3.4,4.093-3.832.954Zm-1.725,5.031-3.355-1.069,1.033-4.392,2.823-.432Zm-4.589-1.462-3.562-1.135.4-2.034,4.049-.62Zm-6.123-4.377.658-2.249.833,2.249Zm-29.451,8.473-5.733,8.522-11.773,1.009,6.5-10.877Zm-19.064,9.617-10.771-.573,4.68-18.955,12.935,8.084Zm-12.969,16-11.186,2.077-3.05-16.19,14.952-1.159Zm-15.535-14.027,3.076,16.324-15.377,2.485L283.491,439.5ZM205.24,395.09,201.9,377.91l10.773-2.751,3.1,17.413Zm7.369-21.241-10.975,2.8-2.806-12.608,16.054-5.619ZM215.047,357,198.793,362.7l1.069-14.419,5.617-2.568,9.932,1.252Zm-15.3-10.1-.315-1.961,3.611.455Zm-1.65-2.13.43,2.68-11.981,5.276-.6-9.488Zm-25.77-11.937,4.38,3.118L171.74,338.9l-3.053-2.5Zm-1.319,7.127-.238,3.061-.887-2.092-.855-2.592Zm-3.825-3.089.789,2.39-3.372-2.742-.531-1.362Zm-6.89,3.261-2.208-2.967,4.605.3Zm-.095,1.852,3.7,3.533-3.689,4.1-4.128-4.645Zm.688,31.773,2.221,5.647-2.14-.6-1.983-5.3Zm-.526,6.357,3.649,3.4h-2.725l-3.418-2.2Zm5.007,4.691,1.946,2.509-4.082,1.886-1.276-4.395Zm2.509,3.646.6,2.282L164.8,389.9Zm12.1,10.357,4.094-.718.772,2.115-4.866,2.318Zm7.929-3.569.459.955-2.5,3.054-.617-1.693Zm.971-.961,2.286-2.769,1.427.628-3.267,3.068Zm5.249-1.319,3.705,2.417-2.583,8.433-3.017-4.156Zm4.923,2.849,5.1.637,1.713,16.332-9.629-7.768Zm24.439,18.723,5.725,16.242-13.755-1.646-7.721-14.249Zm6.313,17.609L240.894,450l-14.652-1.039-10.03-18.434Zm-4.261,18.092,14.9,20.144c-4.276-.575-9.817-1.333-11.2-1.557l-18.629-17.908Zm3.874,20.546,4.872,4.683,20.649,15.582-2.166,6.655L229.408,482.01Zm24.282,28.788,30.666,9.514-1.954,8.721-29.7-6.23Zm29.849,19.76,28.8,4.777-3,12.6-25.805.143Zm4.543-16.81L276.027,498l5.674,1.489,18.362,1.655,25.457,17.042Zm12.431-2.685L279.838,479.4l20.292,1.047,17.189,17.308ZM315.2,474.054l9.552-4.494,10.638,13.029-6.144,6.928Zm21.2,9.337,15.43,6.991-.914,10.764-20.651-10.857Zm16.7,7.125,15.453-2.971L371.6,498.2l-19.408,3.2Zm31.306-13.747-2.574.194,3.917-1.165Zm6.31-10.382,5.121-5.211-2.371,6.5L390.1,471.93Zm3.024-13.752,2.129-6.383.173.2.643,10.051Zm3.608-6.595-.938-9.9,2.469.509.68,12.671Zm-1.178-11.251-2.964-9.255,4.321-1.077,1.23,10.849Zm1.849-12.227L393.9,417.6l5.082-4.959L402.234,416Zm-5.81-7.026.165-.09.125-.061.009-.013,4.171-2.287-3.962,3.865-5.054.777,4.527-2.192Zm-8.339,2.591-1.235-3.335,7,.544Zm-11.144-9.164-8.493.713-2.63-3.525,11.417-2.745Zm-12.387-2.345,2.75,3.686-3.408,3.655-5.577-3.391Zm-39.861,29.268-15.338,1.189-3.208-18.3,23.3-2.139ZM300.63,418.842l3.212,18.315L283,438.238,278,418.6ZM217.06,392.43l-3.115-17.5,20.993-2.172,3.6,20.4Zm14.508-85.839-.19,3.22-18.618,7.3-10.284-21.594,19.871-10.52,10.426,20.517Zm-8.358-23.33-2.063-28,28.2-7.717,6.924,25.636Zm34.247-10.618-6.912-25.61L274.71,231.12l6.77,27.817Zm-79.108,51.378-.75.06.884-1.551Zm-12.916,6.16,5.661,2.059-3.49,3.4-3.914-2.165Zm-8.859,7.118,2.766,3.719-4.181,3.034-3.94-3.385Zm.936,35.95,2.158,5.772-2.737,1.32-2.712-8.253Zm-1.007,8.733,4.041,2.6.91,3.134-5.25-5.586ZM168.887,398.3l4.516,4.118.677,3.9-7.848-5.805Zm5.915,4.674,4.045,1.12,1.785,5.8-5.067-2.534Zm7.22,7.058-1.911-6.133,5.128-2.443,1.382,4.736Zm4.339-9.339,2.718-3.332,1.689,2.468-3.189,5.035Zm9.358,5.978,0,0,.1-.325,10.334,8.337,7.9,14.586-11.786,2.289-4.47-13.776-4.1-4.594Zm18.986,23.792,10.078,18.52-15.278.694-6.781-16.887Zm-4.983,21.4,18.4,17.685v11.1l-18.4-20.955Zm19.565,31.627,23.169,15.568-1.015,12.138-24.282-9.042Zm-2.3,19.974,24.377,9.083,0,19.834-27.136-9.233ZM252.6,534l29.622,4.067-1.037,20.228-30.314-3.525Zm30.911,4.15,25.486-.14-5.646,19.381-20.875.947Zm48.475-16.1,9.216.714-10.206,8.676Zm-29.9-21.1L318.6,498.9,343,513.363l-11.576,7.22Zm17.788-2.772,9.431-6.931,21.248,11.17-6.519,10.064Zm78.056-42.416-.461-7.228,2.131,3.158Zm2.122-20.482-1.3-11.467,3.739-5.822.661,16.378Zm-.149-23.534,1.152-1.124,2.224-5.088-.75,8.917ZM403.743,400l-.812-2.3.974.367Zm-31.595-4.707L373,402.1l-11.959,2.863-.841-5.991Zm-20.96,6.952-2.127,1.371,1.789-5.821Zm-3.8,2.419-20.731,10.245-1.115-17.424,24.794-2.407Zm-23.133-7.045,1.134,17.713L301.719,417.5l-2.744-17.623C302.8,399.892,315.785,398.544,324.254,397.616Zm-26.6,2.152,2.766,17.779-22.79-.241-5.67-16.482C281.2,400.288,295.1,399.6,297.652,399.768ZM236.4,371.607l.227-.481.832.724Zm-.105-3.7-2.546-18.027L273.166,370.6Zm-3.529-48.636.668-11.324L270.936,305Zm1.007-14.651L223.55,284.508l32.962-10.051,1.638,12.858-5.876.723Zm25.665-17.461-1.681-13.2,23.862-13.614.723,20.971-5.153,3.657Zm23.254-4.5.54,1.579-3.347.411Zm36.3-29.756-9.056-31.657,31.422-2.371L351.456,252.9Zm33.825.053-10.091-34.015,24.972,2.775,7.278,33.864Zm-38.353-64.9L340.48,217.64l-31.073,2.345L290.25,192.54Zm-6.412,32.241L275.4,229.327l-15.264-23L288.928,192.9ZM181.4,270.75l-10.828,12.606-1.016-34.3,17.028-14.644Zm-11.46,16.621,8.759,32.168-2.658,4.668-4.954.4-6-21.334Zm-.165,37.34-3.966.319-.563-16.431Zm-5.582,5.051-1.7,3.222-8.058-2.361,3.052-3Zm-13.862,28.2-.346,2.864-.7-5.21Zm2.275,13.357,3.151,9.59-.239.115-3.305-10.334Zm2.42,11.442,6.834,7.27-4.037,3.042-7.359-7.4Zm2,11.34-.23.7-2.305-3.247Zm1.042.963,6.584,5.863,1.189,2.733-8.091-7.637Zm8.677,7.434,7.655,5.666,1.041,6.011-7.034-7.855Zm9.095,6.435,5.382,2.7,3.636,7.416-7.821-3.227Zm6.659,2.386,4.774-3.987,4.845,5.977-5.752,5.883Zm14.161,7.123,4.577,14.1,7.195,17.924v5.891l-7.731-20.7-6.2-19.635Zm12.951,43.076,18.482,21.052-2.165,18.994-18.462-9.835ZM207.3,493.083l18.462,9.852-2.746,19.6-18.464-10.783Zm-3.031,20,18.561,10.843-2.41,19.933-21.148-10.921Zm-5.389,21.108,21.35,11.024-5.092,29.021c-18.524-8.047-24.433-10.53-26.454-11.205Zm25.19-9.753,27.26,9.288L249.6,554.445l-27.953-10.02Zm26.659,31.614,30.37,3.531-3.905,45.443L246.278,587.9Zm31.662,3.582,20.643-.937-9.666,44.643-14.9,1.987Zm21.99-1.059,19.386-3.2-5.236,44.608-23.8,3.173Zm31.59-12.027-10.425,6.624,5.221-19.846,10.512-8.938Zm51.787-48.516L384,488.385l8.633-7.512,1.162,4.9Zm11.023-35.774-.474-4,2.527-6.161,1.19-.548Zm5.665-27.945-.711-17.658,9.509,1.247-4.781,17.242Zm9.141-17.669-9.833-1.29,1.425-16.965,12.631,2.348Zm4.45-17.172-12.852-2.386-.432-4.034,13.894,0Zm-14.584-6.42.386,3.607-1.466-.553-1.079-3.054Zm-9.092,0,2.142,6.962-9.305,1.345-3.43-8.077,1.224-.231Zm-21.443.706-.719-.709h5.073Zm-2.561-.709,1.121,1.1-10.369,3.186,3.037-4.291Zm-11.325,4.988-6.6,3.509-.515-6.8,4.455-1.7h6.189Zm-7.3-4.575-.08-.415h1.163Zm-1.4-.415.139.719-25,2.428-.164-3.151Zm-26.318,0,.169,3.283c-8.956.98-22.636,2.348-25.35,2.3l-.361-5.589Zm-26.843-.124.362,5.585c-3.787-.178-17.231.54-25.926,1.049l-1.833-10.018c8.07.874,17.254,1.807,20.92,1.94Zm-41.04-6.958c-.984-1.137-3.587-3.439-9.864-8.969-3-2.639-6.024-5.282-7.991-7l38.932,2.848,11.67,16.589C279.866,388.807,256.394,385.98,256.127,385.959Zm21.091-83.4-41.926,3.3,17.822-15.968,36.968-4.544Zm14.838-19.41-7.541.926-.6-1.758,11,.31C293.52,282.838,292.29,283.1,292.056,283.148Zm31.032-.81-1.055-.171-2.812-27.977h32.528l3.471,28.148Zm33.435,0-3.461-28.056,22.117,2.619,1.61,25.437Zm21.56,0-1.6-25.261,16.777,2.438,2.293,22.823Zm18.77,0L394.6,259.882l15.484,5.256,1.671,17.2Zm16.2,0-1.512-15.57,6.435,8.073.309,7.5Zm-3.072-33.778L417,271.549l-5.76-7.228-8.212-26.183ZM398.66,231.873l-12.4-7.231-19.895-26.355,14.135,9.159Zm-35.422-35.587,21,27.825L368.6,220.543l-23.642-31.721Zm-24.7-9.586H314.8l-27.63-8.458h22.4Zm-55.716-8.438,29.192,8.936-22.842,4.229-31.691-7.921Zm-52.935,16.365,18.635-7.908L229.4,199.5l-17.335,5.553Zm-44.9,28.15,18.853-12.639-16.843,22.22L171.443,245.73Zm-15.656,62.177-4.76,15.6-5.351-28.435,9.124-20.5Zm-15.382,44.337-1.129,1.11-7.229,3.623.215-.662Zm-12.6,19.415,6.115,2.964L149.28,365.3h-5.011Zm3.247,17.887h4.969l4.807,15.061-4.545,2.894Zm51.187,66.916-6.686-15.258,3.6-3.682,6.788,21.511,8.944,23.944-2.182,30.73-8.372-7.374,2.242-28.139.007-.09Zm1.9,51.421,8.425,7.423-2.763,18.782-10.989-5.2Zm-5.755,22.236,11.174,5.281-5.03,20-14.874-5.078ZM182.6,528.532l15.093,5.146-10.256,29c-2.447-.857-13.491-5.861-20.838-9.258Zm33.756,46.234,5.1-29.046,28.013,10.048-4.406,31.541c-3.174-1.394-15.577-6.837-27.894-12.191ZM342.537,562.2l-5.984,12.716.625-27.827,3.884-9.622Zm36.289-44.79-13.519,4,5.212-3,13.588-6.479Zm9.068-10.828.426-6.771,5.669-11.5.309,4.9-.068.307Zm7.412-17.92-.173-2.734,2.155-6.21Zm4.836-21.5-.957-1.926.2-.534,3.944-13.026.676.787Zm9.25-30.5.9.187-2.574,6.337Zm1.364-1.038-1.03-.213,4.834-17.424,2.16-.1Zm6.41-19.054-2.253.106,4.143-15.609,3.119,1.055Zm5.288-15.718-3.161-1.069.644-6.724H423.4Zm58.454-29.339-19.614,19.614H298.021l-6.628-1.478L278.7,371.6v-67.79l14.073-18.834a32.709,32.709,0,0,1,5.14-.7h163.38l19.614,19.615Z" fill="#fff"/><path d="M297.546,312.949H303.8a7.868,7.868,0,0,1,7.9,7.9v6.914H308.96V320.85a5.085,5.085,0,0,0-5.159-5.158h-6.255a5.084,5.084,0,0,0-5.158,5.158v28.972a5.083,5.083,0,0,0,5.158,5.157h6.31c3.457,0,5.1-2.249,5.1-5.157v-8.67H311.7v8.67a7.869,7.869,0,0,1-7.9,7.9h-6.255a7.869,7.869,0,0,1-7.9-7.9V320.85A7.868,7.868,0,0,1,297.546,312.949Z" fill="#fff"/><path d="M325.312,325.9h5.6a7.259,7.259,0,0,1,7.3,7.3v17.229a7.294,7.294,0,0,1-7.3,7.3h-5.6a7.294,7.294,0,0,1-7.3-7.3V333.2A7.259,7.259,0,0,1,325.312,325.9Zm0,29.081h5.6a4.29,4.29,0,0,0,4.555-4.554V333.2a4.475,4.475,0,0,0-4.555-4.554h-5.6a4.475,4.475,0,0,0-4.555,4.554v17.229A4.475,4.475,0,0,0,325.312,354.979Z" fill="#fff"/><path d="M364.764,357.174h-2.743V352.95c-4.17,2.029-10.042,4.773-12.346,4.773a5.131,5.131,0,0,1-5.1-5.267V333.2a7.3,7.3,0,0,1,7.3-7.3h5.6a6.638,6.638,0,0,1,4.554,1.646V315.253h2.743Zm-7.3-28.532h-5.6a4.475,4.475,0,0,0-4.555,4.554v18.656a2.858,2.858,0,0,0,2.744,3.127c1.537,0,8.011-2.907,11.962-4.828V333.2A4.475,4.475,0,0,0,357.467,328.642Z" fill="#fff"/><path d="M378.977,325.9h5.6a7.259,7.259,0,0,1,7.3,7.3v7.682H374.422v9.547a4.475,4.475,0,0,0,4.555,4.554h5.6a4.475,4.475,0,0,0,4.555-4.554v-3.951h2.743v3.951a7.294,7.294,0,0,1-7.3,7.3h-5.6a7.294,7.294,0,0,1-7.3-7.3V333.2A7.259,7.259,0,0,1,378.977,325.9Zm5.6,2.744h-5.6a4.475,4.475,0,0,0-4.555,4.554v4.938h14.706V333.2A4.475,4.475,0,0,0,384.573,328.642Z" fill="#fff"/><path d="M420.459,320.85v28.423a7.868,7.868,0,0,1-7.9,7.9H398.4v-43.9h14.157A7.6,7.6,0,0,1,420.459,320.85Zm-2.743,28.423V320.85c0-2.908-2.25-4.829-5.158-4.829H401.145v38.41h11.413A5.084,5.084,0,0,0,417.716,349.273Z" fill="#fff"/><path d="M431.435,340.933l12.016-3.128V333.2c0-2.8-2.14-4.5-4.774-4.554h-3.841a4.589,4.589,0,0,0-4.883,4.554v1.1h-2.744v-1.1a7.4,7.4,0,0,1,7.627-7.3h3.841a7.376,7.376,0,0,1,7.517,7.3v23.978h-2.743V352.95s-9.273,4.773-12.181,4.773A5.268,5.268,0,0,1,426,352.456v-3.787C426,344.005,428.307,342.03,431.435,340.933Zm.054,13.991c2.031,0,11.962-4.773,11.962-4.773v-9.712L432.2,343.457c-2.305.877-3.457,2.853-3.457,5.707v2.194C428.745,353.553,430.062,354.924,431.489,354.924Z" fill="#fff"/><path d="M458.1,353.608a1.284,1.284,0,0,0,1.152,1.1h4.609c.274,0,.274-.331.384-.6l4.773-27.6h2.745l-6.86,39.233h-2.634l1.427-8.285h-5.6a2.555,2.555,0,0,1-2.36-1.866l-5.1-29.082h2.8Z" fill="#fff"/><rect y="592.222" width="612" height="217.556" fill="url(#i)"/><text transform="translate(223.653 73.918)" font-size="17" fill="#fff" font-family="Politica-Regular, Politica">No experience required.</text><text text-anchor="middle" x='50%' transform="translate(0 741.295)" font-size="29.911" fill="#fff" font-family="Politica-Regular, Politica">codeday.org/{{url}}</text><text text-anchor="middle" x='50%' transform="translate(0 54.184)" font-size="29.911" fill="#fff" font-family="Politica-Regular, Politica">{{month}} {{day}}-{{day+1}}</text></g></svg>