<?xml version="1.0" encoding="UTF-8" standalone="no"?>
<!-- Generator: Adobe Illustrator 23.0.6, SVG Export Plug-In . SVG Version: 6.00 Build 0)  -->

<svg
   xmlns:dc="http://purl.org/dc/elements/1.1/"
   xmlns:cc="http://creativecommons.org/ns#"
   xmlns:rdf="http://www.w3.org/1999/02/22-rdf-syntax-ns#"
   xmlns:svg="http://www.w3.org/2000/svg"
   xmlns="http://www.w3.org/2000/svg"
   xmlns:xlink="http://www.w3.org/1999/xlink"
   xmlns:sodipodi="http://sodipodi.sourceforge.net/DTD/sodipodi-0.dtd"
   xmlns:inkscape="http://www.inkscape.org/namespaces/inkscape"
   version="1.1"
   id="Layer_1"
   x="0px"
   y="0px"
   viewBox="0 0 595 842"
   style="enable-background:new 0 0 595 842;"
   xml:space="preserve"
   sodipodi:docname="ArtistsMeetBlack.svg"
   inkscape:version="0.92.3 (2405546, 2018-03-11)"><metadata
   id="metadata11088"><rdf:RDF><cc:Work
       rdf:about=""><dc:format>image/svg+xml</dc:format><dc:type
         rdf:resource="http://purl.org/dc/dcmitype/StillImage" /></cc:Work></rdf:RDF></metadata><defs
   id="defs11086" /><sodipodi:namedview
   pagecolor="#ffffff"
   bordercolor="#666666"
   borderopacity="1"
   objecttolerance="10"
   gridtolerance="10"
   guidetolerance="10"
   inkscape:pageopacity="0"
   inkscape:pageshadow="2"
   inkscape:window-width="1600"
   inkscape:window-height="881"
   id="namedview11084"
   showgrid="false"
   inkscape:zoom="1.1211401"
   inkscape:cx="229.54712"
   inkscape:cy="399.70758"
   inkscape:window-x="0"
   inkscape:window-y="0"
   inkscape:window-maximized="0"
   inkscape:current-layer="Layer_1" />
<style
   type="text/css"
   id="style11019">
	.st0{clip-path:url(#SVGID_2_);fill-rule:evenodd;clip-rule:evenodd;fill:#F43737;}
	.st1{clip-path:url(#SVGID_2_);fill:#FFFFFF;}
	.st2{clip-path:url(#SVGID_2_);fill:#504CF1;}
	.st3{clip-path:url(#SVGID_4_);fill-rule:evenodd;clip-rule:evenodd;}
	.st4{clip-path:url(#SVGID_4_);fill:#FFFFFF;}
	.st5{clip-path:url(#SVGID_4_);}
	.st6{clip-path:url(#SVGID_6_);fill:#FFFFFF;}
	.st7{clip-path:url(#SVGID_8_);fill:#FFFFFF;}
	.st8{clip-path:url(#SVGID_10_);fill:#FFFFFF;}
	.st9{clip-path:url(#SVGID_12_);fill-rule:evenodd;clip-rule:evenodd;}
	.st10{clip-path:url(#SVGID_12_);fill:#FFFFFF;}
	.st11{clip-path:url(#SVGID_12_);fill:#504CF1;}
	.st12{clip-path:url(#SVGID_12_);}
	.st13{fill:#FFFFFF;}
	.st14{font-family:'GoshaSans-Bold';}
	.st15{font-size:33.2941px;}
</style>
<g
   id="g11069">
	<defs
   id="defs11022">
		<rect
   id="SVGID_3_"
   width="595"
   height="842" />
	</defs>
	<clipPath
   id="SVGID_2_">
		<use
   xlink:href="#SVGID_3_"
   style="overflow:visible;"
   id="use11024" />
	</clipPath>
	<rect
   style="clip-path:url(#SVGID_2_);fill-rule:evenodd;clip-rule:evenodd;"
   width="595"
   height="842"
   clip-path="url(#SVGID_2_)"
   id="rect11027" />
	<path
   class="st1"
   d="M425.8,283.6v17.9h19.4v-17.9H425.8z M387,224.8v35.8c0,11.9-5.4,17.1-17,17.1c-11.6,0-17-5.2-17-17.1v-35.8   h-19.4v36.5c0,20.4,9.2,34.3,32.6,34.3c8.9,0,16.2-3.3,20.7-8.2v20.1h-43.2v17.9h62.6V224.8H387z M279.4,286.9   c-10.1,0-14-4.8-14-10.7c0-6,3.9-10.7,14-10.7c10.1,0,14,4.8,14,10.7C293.4,282.1,289.5,286.9,279.4,286.9z M312.8,282.9v-58.1   h-58.1v17.1h38.7v16.4c-3.7-5.5-9.5-8.9-20.7-8.9c-18.2,0-26.7,13.1-26.7,26.8s8.5,26.8,26.7,26.8c11.2,0,17-3.6,20.7-8.9v7.4h29.1   v-18.6H312.8z M187,283.6h-16.2v-65.6H187c23.2,0,28.3,8.2,28.3,32.8C215.3,274.8,210.2,283.6,187,283.6z M187,200.2h-35.6v101.3   H187c33.7,0,47.7-17.3,47.7-50.7C234.7,217.3,220.6,200.2,187,200.2z M433.9,114.1c9.5,0,13.7,4.5,14.3,14.9h-28.5   C420.3,119.1,424.6,114.1,433.9,114.1z M467.5,134.6c0-22.3-9.2-38.3-33.4-38.3c-24.7,0-34,17.1-34,39.9c0,15.5,4.9,39.8,39.3,39.8   c5.7,0,11.3,0,22.9-2.7v-17.6c-10.3,2.4-17,2.4-21.5,2.4c-14.9,0-19.5-5.5-20.9-14.9h47.4V134.6z M349.7,158.1   c-12.4,0-17.7-6.7-17.7-22.1c0-15.2,5.4-21.9,17.7-21.9s17.7,6.7,17.7,21.9C367.4,151.4,362.1,158.1,349.7,158.1z M367.4,70.2V107   c-5.1-7.4-12.5-10.7-21.8-10.7c-23.1,0-33.1,17.9-33.1,39.8c0,21.9,10,39.9,33.1,39.9c9.2,0,16.7-3.3,21.8-10.9v9.4h19.4V70.2   H367.4z M264.4,158.1c-13.1,0-17.7-5.7-17.7-22.1c0-16.4,4.6-21.9,17.7-21.9s17.7,5.5,17.7,21.9   C282.2,152.4,277.5,158.1,264.4,158.1z M264.4,176c24.1,0,37.1-16.5,37.1-39.9c0-23.4-13-39.8-37.1-39.8s-37.1,16.4-37.1,39.8   C227.3,159.4,240.3,176,264.4,176z M126,123.8c0,26.8,12.5,52.1,45.7,52.1c28.5,0,42.6-17.7,43.5-40.1h-19.4   c-2.5,15.3-7.6,22.2-24.1,22.2c-17.7,0-26.4-8-26.4-34.3s8.6-34.3,26.4-34.3c16.5,0,21.6,6.9,24.1,22.2h19.4   c-0.9-22.3-15-40.1-43.5-40.1C138.6,71.7,126,97,126,123.8z"
   clip-path="url(#SVGID_2_)"
   id="path11029" />
	<g
   style="clip-path:url(#SVGID_2_);"
   clip-path="url(#SVGID_2_)"
   id="g11039">
		<defs
   id="defs11032">
			<rect
   id="SVGID_5_"
   x="66.3"
   y="382"
   width="462.3"
   height="163.9" />
		</defs>
		<clipPath
   id="SVGID_4_">
			<use
   xlink:href="#SVGID_5_"
   style="overflow:visible;"
   id="use11034" />
		</clipPath>
		<path
   class="st4"
   d="M69.3,545.9V382h-6v163.9H69.3z M528.7,542.9H66.3v6h462.3V542.9z M525.7,382v163.9h6V382H525.7z M66.3,385    h462.3v-6H66.3V385z M66.3,545.9h-3v3h3V545.9z M528.7,545.9v3h3v-3H528.7z M528.7,382h3v-3h-3V382z M66.3,382v-3h-3v3H66.3z"
   clip-path="url(#SVGID_4_)"
   id="path11037" />
	</g>
	<path
   class="st1"
   d="M145.1,413.7h2.7v-2h-2.7V413.7z M146.9,399.2c-3.9,0-5.3,2.4-5.3,5.3h2.7c0-1.7,0.5-2.7,2.6-2.7   c1.9,0,2.6,0.7,2.6,2.4c0,1.4-0.6,2.3-1.7,2.3h-2.7v3.5h2.7v-1.6c2.3,0.4,4.4-1.3,4.4-4.2C152.3,401.3,150.6,399.2,146.9,399.2z    M139.1,405.4v-2.5h-2.9V399h-2.7v3.9h-1.7v2.5h1.7v8.3h5.6v-2.5h-2.9v-5.8H139.1z M124.6,411.6c-1.4,0-2-0.7-2-1.5s0.5-1.5,2-1.5   s2,0.7,2,1.5S126.1,411.6,124.6,411.6z M129.3,411.1v-8.2h-8.2v2.4h5.5v2.3c-0.5-0.8-1.3-1.3-2.9-1.3c-2.6,0-3.8,1.8-3.8,3.8   s1.2,3.8,3.8,3.8c1.6,0,2.4-0.5,2.9-1.3v1.1h4.1v-2.6H129.3z M117.9,402.9h-7.1V399h-2.7v14.7h2.7v-8.3h4.4v8.3h2.7V402.9z    M103.5,399.4l-2.9,11.5h-0.3l-2.8-11.5H93l-2.8,11.5h-0.3L87,399.4h-2.8l3.7,14.3h4.5l2.7-11.5h0.3l2.8,11.5h4.5l3.7-14.3H103.5z"
   clip-path="url(#SVGID_2_)"
   id="path11041" />
	<path
   class="st1"
   d="M497.9,513.8v4h4.3v-4H497.9z M480.4,516c2.4,1.6,4.8,2.1,7.3,2.1c3.9,0,6.9-1.9,6.9-5.3   c0-3.3-1.9-4.3-6.8-5.3c-2.6-0.6-3.1-1-3.1-1.8c0-0.8,0.6-1.2,1.7-1.2c1.8,0,4.4,0.5,6.8,1.7v-4c-1.6-1.1-4.3-1.7-6.5-1.7   c-3.5,0-6.4,1.6-6.4,4.9c0,2.6,1.5,4.7,6.7,5.4c2.6,0.4,3.2,0.9,3.2,1.8c0,0.8-0.7,1.5-2.2,1.5c-2.4,0-4.7-0.6-7.7-2.5V516z    M476.9,504.7v-4h-4.5v-6.1h-4.3v6.1h-2.6v4h2.6v13h8.8v-4h-4.5v-9.1H476.9z M448.2,509.2c0,5.2,2.5,8.8,7.8,8.8   c4.9,0,7.4-3.3,7.4-7.3h-4.3c-0.1,1.9-0.7,3.3-3.1,3.3c-2.9,0-3.6-1.6-3.6-4.9c0-3.3,0.7-4.9,3.6-4.9c2.4,0,2.9,1.4,3.1,3.3h4.3   c0-3.9-2.5-7.3-7.4-7.3C450.8,500.4,448.2,504,448.2,509.2z M438.3,504.4c2.1,0,3,1,3.2,3.3h-6.3   C435.3,505.5,436.3,504.4,438.3,504.4z M445.8,508.9c0-4.9-2-8.5-7.4-8.5c-5.5,0-7.5,3.8-7.5,8.8c0,3.4,1.1,8.8,8.7,8.8   c1.3,0,2.5,0,5.1-0.6v-3.9c-2.3,0.5-3.8,0.5-4.8,0.5c-3.3,0-4.3-1.2-4.6-3.3h10.5V508.9z M423.4,519.1h-3.6v4h7.9v-22.3h-4.3V519.1   z M423.4,494.6v3.3h4.3v-3.3H423.4z M411.9,514.1c-2.9,0-3.9-1.3-3.9-4.9c0-3.6,1-4.9,3.9-4.9s3.9,1.2,3.9,4.9   C415.8,512.9,414.8,514.1,411.9,514.1z M411.9,518.1c5.3,0,8.2-3.7,8.2-8.8s-2.9-8.8-8.2-8.8s-8.2,3.6-8.2,8.8   S406.6,518.1,411.9,518.1z M401.9,500.7h-10.6v17h4.3v-13h6.3V500.7z M380.3,514.1c-2.7,0-3.9-1.5-3.9-4.9c0-3.4,1.2-4.9,3.9-4.9   c2.7,0,3.9,1.5,3.9,4.9C384.2,512.6,383,514.1,380.3,514.1z M381.1,500.4c-2,0-3.7,0.7-4.8,2.4v-2H372V523h4.3v-7.4   c1.1,1.7,2.8,2.4,4.8,2.4c5.1,0,7.3-4,7.3-8.8C388.5,504.4,386.3,500.4,381.1,500.4z M348.4,504.4c2.1,0,3,1,3.2,3.3h-6.3   C345.4,505.5,346.4,504.4,348.4,504.4z M355.9,508.9c0-4.9-2-8.5-7.4-8.5c-5.5,0-7.5,3.8-7.5,8.8c0,3.4,1.1,8.8,8.7,8.8   c1.3,0,2.5,0,5.1-0.6v-3.9c-2.3,0.5-3.8,0.5-4.8,0.5c-3.3,0-4.3-1.2-4.6-3.3h10.5V508.9z M340.1,500.7H335l-4.5,6.5h-2.4v-12.6   h-4.3v23.1h4.3v-6.5h2.4l4.5,6.5h5.1l-5.8-8.5L340.1,500.7z M311.2,514.5c-2.2,0-3.1-1.1-3.1-2.4c0-1.3,0.9-2.4,3.1-2.4   s3.1,1.1,3.1,2.4C314.3,513.5,313.4,514.5,311.2,514.5z M318.6,513.6v-12.9h-12.9v3.8h8.6v3.6c-0.8-1.2-2.1-2-4.6-2   c-4,0-5.9,2.9-5.9,5.9c0,3,1.9,5.9,5.9,5.9c2.5,0,3.8-0.8,4.6-2v1.6h6.4v-4.1H318.6z M300.6,500.7h-23.8v17h4.3v-13h5.4v13h4.3v-13   h5.4v13h4.3V500.7z M252.8,514.1c-2.9,0-3.9-1.3-3.9-4.9c0-3.6,1-4.9,3.9-4.9c2.9,0,3.9,1.2,3.9,4.9   C256.7,512.9,255.7,514.1,252.8,514.1z M252.8,518.1c5.3,0,8.2-3.7,8.2-8.8s-2.9-8.8-8.2-8.8c-5.3,0-8.2,3.6-8.2,8.8   S247.5,518.1,252.8,518.1z M242.1,504.7v-4h-4.5v-6.1h-4.3v6.1h-2.6v4h2.6v13h8.8v-4h-4.5v-9.1H242.1z M215.5,500.7h-10.6v17h4.3   v-13h6.3V500.7z M194.3,504.4c2.1,0,3,1,3.2,3.3h-6.3C191.3,505.5,192.3,504.4,194.3,504.4z M201.8,508.9c0-4.9-2-8.5-7.4-8.5   c-5.5,0-7.5,3.8-7.5,8.8c0,3.4,1.1,8.8,8.7,8.8c1.3,0,2.5,0,5.1-0.6v-3.9c-2.3,0.5-3.8,0.5-4.8,0.5c-3.3,0-4.3-1.2-4.6-3.3h10.5   V508.9z M183.9,500.7h-11.2v-6.1h-4.3v23.1h4.3v-13h6.9v13h4.3V500.7z M164.6,504.7v-4H160v-6.1h-4.3v6.1h-2.6v4h2.6v13h8.8v-4H160   v-9.1H164.6z M143.7,504.4c2.1,0,3,1,3.2,3.3h-6.3C140.7,505.5,141.6,504.4,143.7,504.4z M151.1,508.9c0-4.9-2-8.5-7.4-8.5   c-5.5,0-7.5,3.8-7.5,8.8c0,3.4,1.1,8.8,8.7,8.8c1.3,0,2.5,0,5.1-0.6v-3.9c-2.3,0.5-3.8,0.5-4.8,0.5c-3.3,0-4.3-1.2-4.6-3.3h10.5   V508.9z M124.9,512.5c-2.9,0-3.9-1.5-3.9-4.1c0-2.5,1-4,3.9-4s3.9,1.5,3.9,4C128.8,511.1,127.8,512.5,124.9,512.5z M128.8,500.7   v1.8c-1-1.3-2.4-2.1-4.8-2.1c-4.9,0-7.3,3.7-7.3,8c0,4.3,2.4,8,7.3,8c2.4,0,3.8-0.9,4.8-2v4.6h-9.2v4h13.5v-22.3H128.8z    M105.8,514.1c-2.9,0-3.9-1.3-3.9-4.9c0-3.6,1-4.9,3.9-4.9s3.9,1.2,3.9,4.9C109.7,512.9,108.7,514.1,105.8,514.1z M105.8,518.1   c5.3,0,8.2-3.7,8.2-8.8s-2.9-8.8-8.2-8.8s-8.2,3.6-8.2,8.8S100.5,518.1,105.8,518.1z M95.1,504.7v-4h-4.5v-6.1h-4.3v6.1h-2.6v4h2.6   v13h8.8v-4h-4.5v-9.1H95.1z M469.3,467.7h-5.1l-4.5,6.5h-2.4v-12.6H453v23.1h4.3v-6.5h2.4l4.5,6.5h5.1l-5.8-8.5L469.3,467.7z    M449.9,467.7h-10.6v17h4.3v-13h6.3V467.7z M428.3,481.1c-2.9,0-3.9-1.3-3.9-4.9s1-4.9,3.9-4.9s3.9,1.2,3.9,4.9   S431.2,481.1,428.3,481.1z M428.3,485.1c5.3,0,8.2-3.7,8.2-8.8s-2.9-8.8-8.2-8.8s-8.2,3.6-8.2,8.8S422.9,485.1,428.3,485.1z    M414,467.7l-3,12.6h-0.5l-2.8-12.6h-7.3l-2.8,12.6H397l-3-12.6h-4.4l4.2,17h7.3l2.7-12.6h0.5l2.7,12.6h7.3l4.1-17H414z M359.6,483   c2.4,1.6,4.8,2.1,7.3,2.1c3.9,0,6.9-1.9,6.9-5.3c0-3.3-1.9-4.3-6.8-5.3c-2.6-0.6-3.1-1-3.1-1.8c0-0.8,0.6-1.2,1.7-1.2   c1.8,0,4.4,0.5,6.8,1.7v-4c-1.6-1.1-4.3-1.7-6.5-1.7c-3.5,0-6.4,1.6-6.4,4.9c0,2.6,1.5,4.7,6.7,5.4c2.6,0.4,3.2,0.9,3.2,1.8   c0,0.8-0.7,1.5-2.2,1.5c-2.4,0-4.7-0.6-7.7-2.5V483z M356.9,467.7h-10.6v17h4.3v-13h6.3V467.7z M335.8,471.4c2.1,0,3,1,3.2,3.3   h-6.3C332.7,472.5,333.7,471.4,335.8,471.4z M343.2,475.9c0-4.9-2-8.5-7.4-8.5c-5.5,0-7.5,3.8-7.5,8.8c0,3.4,1.1,8.8,8.7,8.8   c1.3,0,2.5,0,5.1-0.6v-3.9c-2.3,0.5-3.8,0.5-4.8,0.5c-3.3,0-4.3-1.2-4.6-3.3h10.5V475.9z M317.1,481.1c-2.7,0-3.9-1.5-3.9-4.9   c0-3.4,1.2-4.9,3.9-4.9c2.7,0,3.9,1.5,3.9,4.9C321,479.6,319.9,481.1,317.1,481.1z M321,461.6v8.2c-1.1-1.7-2.8-2.4-4.8-2.4   c-5.1,0-7.3,4-7.3,8.8c0,4.9,2.2,8.8,7.3,8.8c2,0,3.7-0.7,4.8-2.4v2.1h4.3v-23.1H321z M298.2,481.1c-2.9,0-3.9-1.3-3.9-4.9   s1-4.9,3.9-4.9c2.9,0,3.9,1.2,3.9,4.9S301.1,481.1,298.2,481.1z M298.2,485.1c5.3,0,8.2-3.7,8.2-8.8s-2.9-8.8-8.2-8.8   c-5.3,0-8.2,3.6-8.2,8.8S292.9,485.1,298.2,485.1z M272.3,476.2c0,5.2,2.5,8.8,7.8,8.8c4.9,0,7.4-3.3,7.4-7.3h-4.3   c-0.1,1.9-0.7,3.3-3.1,3.3c-2.9,0-3.6-1.6-3.6-4.9c0-3.3,0.7-4.9,3.6-4.9c2.4,0,2.9,1.4,3.1,3.3h4.3c0-3.9-2.5-7.3-7.4-7.3   C274.8,467.4,272.3,471,272.3,476.2z M248.2,481.1c-2.7,0-3.9-1.5-3.9-4.9c0-3.4,1.2-4.9,3.9-4.9s3.9,1.5,3.9,4.9   C252.1,479.6,251,481.1,248.2,481.1z M252.1,461.6v8.2c-1.1-1.7-2.8-2.4-4.8-2.4c-5.1,0-7.3,4-7.3,8.8c0,4.9,2.2,8.8,7.3,8.8   c2,0,3.7-0.7,4.8-2.4v2.1h4.3v-23.1H252.1z M237,467.7h-15.5v17h4.3v-13h6.9v13h4.3V467.7z M208.7,481.5c-2.2,0-3.1-1.1-3.1-2.4   s0.9-2.4,3.1-2.4c2.2,0,3.1,1.1,3.1,2.4S210.9,481.5,208.7,481.5z M216.1,480.6v-12.9h-12.9v3.8h8.6v3.6c-0.8-1.2-2.1-2-4.6-2   c-4,0-5.9,2.9-5.9,5.9s1.9,5.9,5.9,5.9c2.5,0,3.8-0.8,4.6-2v1.6h6.4v-4.1H216.1z M171.6,483c2.4,1.6,4.8,2.1,7.3,2.1   c3.9,0,6.9-1.9,6.9-5.3c0-3.3-1.9-4.3-6.8-5.3c-2.6-0.6-3.1-1-3.1-1.8c0-0.8,0.6-1.2,1.7-1.2c1.8,0,4.4,0.5,6.8,1.7v-4   c-1.6-1.1-4.3-1.7-6.5-1.7c-3.5,0-6.4,1.6-6.4,4.9c0,2.6,1.5,4.7,6.7,5.4c2.6,0.4,3.2,0.9,3.2,1.8c0,0.8-0.7,1.5-2.2,1.5   c-2.4,0-4.7-0.6-7.7-2.5V483z M168.1,471.7v-4h-4.5v-6.1h-4.3v6.1h-2.6v4h2.6v13h8.8v-4h-4.5v-9.1H168.1z M140.8,483   c2.4,1.6,4.8,2.1,7.3,2.1c3.9,0,6.9-1.9,6.9-5.3c0-3.3-1.9-4.3-6.8-5.3c-2.6-0.6-3.1-1-3.1-1.8c0-0.8,0.6-1.2,1.7-1.2   c1.8,0,4.4,0.5,6.8,1.7v-4c-1.6-1.1-4.3-1.7-6.5-1.7c-3.5,0-6.4,1.6-6.4,4.9c0,2.6,1.5,4.7,6.7,5.4c2.6,0.4,3.2,0.9,3.2,1.8   c0,0.8-0.7,1.5-2.2,1.5c-2.4,0-4.7-0.6-7.7-2.5V483z M132.7,467.7v17h4.3v-17H132.7z M132.7,461.6v3.3h4.3v-3.3H132.7z    M128.4,471.7v-4h-4.5v-6.1h-4.3v6.1H117v4h2.6v13h8.8v-4h-4.5v-9.1H128.4z M114.3,467.7h-10.6v17h4.3v-13h6.3V467.7z M91.1,481.5   c-2.2,0-3.1-1.1-3.1-2.4s0.9-2.4,3.1-2.4c2.2,0,3.1,1.1,3.1,2.4S93.3,481.5,91.1,481.5z M98.4,480.6v-12.9H85.6v3.8h8.6v3.6   c-0.8-1.2-2.1-2-4.6-2c-4,0-5.9,2.9-5.9,5.9s1.9,5.9,5.9,5.9c2.5,0,3.8-0.8,4.6-2v1.6h6.4v-4.1H98.4z M405.3,438.4   c2.1,0,3,1,3.2,3.3h-6.3C402.3,439.5,403.3,438.4,405.3,438.4z M412.8,442.9c0-4.9-2-8.5-7.4-8.5c-5.5,0-7.5,3.8-7.5,8.8   c0,3.4,1.1,8.8,8.7,8.8c1.3,0,2.5,0,5.1-0.6v-3.9c-2.3,0.5-3.8,0.5-4.8,0.5c-3.3,0-4.3-1.2-4.6-3.3h10.5V442.9z M396.1,434.7h-10.6   v17h4.3v-13h6.3V434.7z M374.9,438.4c2.1,0,3,1,3.2,3.3h-6.3C371.9,439.5,372.8,438.4,374.9,438.4z M382.3,442.9   c0-4.9-2-8.5-7.4-8.5c-5.5,0-7.5,3.8-7.5,8.8c0,3.4,1.1,8.8,8.7,8.8c1.3,0,2.5,0,5.1-0.6v-3.9c-2.3,0.5-3.8,0.5-4.8,0.5   c-3.3,0-4.3-1.2-4.6-3.3h10.5V442.9z M364.4,434.7h-11.2v-6.1h-4.3v23.1h4.3v-13h6.9v13h4.3V434.7z M341.9,434.7l-3,12.6h-0.5   l-2.8-12.6h-7.3l-2.8,12.6h-0.5l-3-12.6h-4.4l4.2,17h7.3l2.7-12.6h0.5l2.7,12.6h7.3l4.1-17H341.9z M301.3,434.7h-15.5v17h4.3v-13   h6.9v13h4.3V434.7z M274.8,448.1c-2.9,0-3.9-1.3-3.9-4.9c0-3.6,1-4.9,3.9-4.9c2.9,0,3.9,1.2,3.9,4.9   C278.8,446.9,277.7,448.1,274.8,448.1z M274.8,452.1c5.3,0,8.2-3.7,8.2-8.8s-2.9-8.8-8.2-8.8c-5.3,0-8.2,3.6-8.2,8.8   S269.5,452.1,274.8,452.1z M259.2,434.7v17h4.3v-17H259.2z M259.2,428.6v3.3h4.3v-3.3H259.2z M254.9,438.7v-4h-4.5v-6.1h-4.3v6.1   h-2.6v4h2.6v13h8.8v-4h-4.5v-9.1H254.9z M236.6,434.7v17h4.3v-17H236.6z M236.6,428.6v3.3h4.3v-3.3H236.6z M232.3,438.7v-4h-4.5   v-6.1h-4.3v6.1h-2.6v4h2.6v13h8.8v-4h-4.5v-9.1H232.3z M211.4,438.4c2.1,0,3,1,3.2,3.3h-6.3C208.4,439.5,209.3,438.4,211.4,438.4z    M218.8,442.9c0-4.9-2-8.5-7.4-8.5c-5.5,0-7.5,3.8-7.5,8.8c0,3.4,1.1,8.8,8.7,8.8c1.3,0,2.5,0,5.1-0.6v-3.9   c-2.3,0.5-3.8,0.5-4.8,0.5c-3.3,0-4.3-1.2-4.6-3.3h10.5V442.9z M193.2,448.1c-2.7,0-3.9-1.5-3.9-4.9c0-3.4,1.2-4.9,3.9-4.9   s3.9,1.5,3.9,4.9C197.2,446.6,196,448.1,193.2,448.1z M194.1,434.4c-2,0-3.7,0.7-4.8,2.4v-2H185V457h4.3v-7.4   c1.1,1.7,2.8,2.4,4.8,2.4c5.1,0,7.3-4,7.3-8.8C201.5,438.4,199.3,434.4,194.1,434.4z M180.9,434.7h-23.8v17h4.3v-13h5.4v13h4.3v-13   h5.4v13h4.3V434.7z M145.8,448.1c-2.9,0-3.9-1.3-3.9-4.9c0-3.6,1-4.9,3.9-4.9c2.9,0,3.9,1.2,3.9,4.9   C149.7,446.9,148.7,448.1,145.8,448.1z M145.8,452.1c5.3,0,8.2-3.7,8.2-8.8s-2.9-8.8-8.2-8.8c-5.3,0-8.2,3.6-8.2,8.8   S140.4,452.1,145.8,452.1z M119.9,443.2c0,5.2,2.5,8.8,7.8,8.8c4.9,0,7.4-3.3,7.4-7.3h-4.3c-0.1,1.9-0.7,3.3-3.1,3.3   c-2.9,0-3.6-1.6-3.6-4.9c0-3.3,0.7-4.9,3.6-4.9c2.4,0,2.9,1.4,3.1,3.3h4.3c0-3.9-2.5-7.3-7.4-7.3   C122.4,434.4,119.9,438,119.9,443.2z M91.1,443.3l2.8-9.7h0.5l2.9,9.7H91.1z M99.8,451.7h4.6l-6.8-22.4h-6.6L84,451.7h4.6l1.3-4.5   h8.5L99.8,451.7z"
   clip-path="url(#SVGID_2_)"
   id="path11043" />
	<g
   style="clip-path:url(#SVGID_2_);"
   clip-path="url(#SVGID_2_)"
   id="g11053">
		<defs
   id="defs11046">
			<rect
   id="SVGID_7_"
   x="28.9"
   y="567.8"
   width="257.3"
   height="134.7" />
		</defs>
		<clipPath
   id="SVGID_6_">
			<use
   xlink:href="#SVGID_7_"
   style="overflow:visible;"
   id="use11048" />
		</clipPath>
		<path
   class="st6"
   d="M31.9,702.5V567.8h-6v134.7H31.9z M286.1,699.5H28.9v6h257.3V699.5z M283.1,567.8v134.7h6V567.8H283.1z     M28.9,570.8h257.3v-6H28.9V570.8z M28.9,702.5h-3v3h3V702.5z M286.1,702.5v3h3v-3H286.1z M286.1,567.8h3v-3h-3V567.8z     M28.9,567.8v-3h-3v3H28.9z"
   clip-path="url(#SVGID_6_)"
   id="path11051" />
	</g>
	<path
   class="st1"
   d="M109.8,602.7h2.7v-2h-2.7V602.7z M111.6,588.2c-3.9,0-5.3,2.4-5.3,5.3h2.7c0-1.7,0.5-2.7,2.6-2.7   c1.9,0,2.6,0.7,2.6,2.4c0,1.4-0.6,2.3-1.7,2.3h-2.7v3.5h2.7v-1.6c2.3,0.4,4.4-1.3,4.4-4.2C116.9,590.3,115.3,588.2,111.6,588.2z    M103.5,591.9h-9.9v10.8h2.7v-8.3h4.4v8.3h2.7V591.9z M86.9,594.2c1.3,0,1.9,0.6,2,2.1h-4C85,594.9,85.6,594.2,86.9,594.2z    M91.7,597.1c0-3.2-1.3-5.4-4.7-5.4c-3.5,0-4.8,2.4-4.8,5.6c0,2.2,0.7,5.6,5.5,5.6c0.8,0,1.6,0,3.2-0.4v-2.5   c-1.4,0.3-2.4,0.3-3,0.3c-2.1,0-2.8-0.8-2.9-2.1h6.7V597.1z M80.3,591.9h-7.1V588h-2.7v14.7h2.7v-8.3h4.4v8.3h2.7V591.9z    M65.8,588.4l-2.9,11.5h-0.3l-2.8-11.5h-4.5l-2.8,11.5h-0.3l-2.9-11.5h-2.8l3.7,14.3h4.5l2.7-11.5h0.3l2.8,11.5H65l3.7-14.3H65.8z"
   clip-path="url(#SVGID_2_)"
   id="path11055" />
	<g
   style="clip-path:url(#SVGID_2_);"
   clip-path="url(#SVGID_2_)"
   id="g11065">
		<defs
   id="defs11058">
			<rect
   id="SVGID_9_"
   x="308.9"
   y="567.8"
   width="257.3"
   height="134.7" />
		</defs>
		<clipPath
   id="SVGID_8_">
			<use
   xlink:href="#SVGID_9_"
   style="overflow:visible;"
   id="use11060" />
		</clipPath>
		<path
   class="st7"
   d="M311.9,702.5V567.8h-6v134.7H311.9z M566.1,699.5H308.9v6h257.3V699.5z M563.1,567.8v134.7h6V567.8H563.1z     M308.9,570.8h257.3v-6H308.9V570.8z M308.9,702.5h-3v3h3V702.5z M566.1,702.5v3h3v-3H566.1z M566.1,567.8h3v-3h-3V567.8z     M308.9,567.8v-3h-3v3H308.9z"
   clip-path="url(#SVGID_8_)"
   id="path11063" />
	</g>
	<path
   class="st1"
   d="M376.1,602.7h2.7v-2h-2.7V602.7z M377.9,588.2c-3.9,0-5.3,2.4-5.3,5.3h2.7c0-1.7,0.5-2.7,2.6-2.7   c1.9,0,2.6,0.7,2.6,2.4c0,1.4-0.6,2.3-1.7,2.3h-2.7v3.5h2.7v-1.6c2.3,0.4,4.4-1.3,4.4-4.2C383.2,590.3,381.6,588.2,377.9,588.2z    M367.2,591.9l-1.9,8H365l-1.8-8h-4.7l-1.8,8h-0.3l-1.9-8h-2.8l2.6,10.8h4.6l1.7-8h0.3l1.7,8h4.6l2.6-10.8H367.2z M345.8,600.4   c-1.8,0-2.5-0.8-2.5-3.1c0-2.3,0.7-3.1,2.5-3.1s2.5,0.8,2.5,3.1C348.3,599.6,347.6,600.4,345.8,600.4z M345.8,602.9   c3.4,0,5.2-2.3,5.2-5.6c0-3.3-1.8-5.6-5.2-5.6s-5.2,2.3-5.2,5.6C340.6,600.6,342.4,602.9,345.8,602.9z M335.7,588.4v6.1h-6.3v-6.1   h-2.7v14.3h2.7V597h6.3v5.7h2.7v-14.3H335.7z"
   clip-path="url(#SVGID_2_)"
   id="path11067" />
</g>
<text
   transform="matrix(1 0 0 1 43.1709 643.5752)"
   id="text11075"
   style="-inkscape-font-specification:'Gosha Sans Bold';font-family:'Gosha Sans';font-weight:bold;font-style:normal;font-stretch:normal;font-variant:normal;"><tspan
     x="0"
     y="0"
     class="st13 st14 st15"
     id="tspan11071"
     style="-inkscape-font-specification:'Gosha Sans Bold';font-family:'Gosha Sans';font-weight:bold;font-style:normal;font-stretch:normal;font-variant:normal;">{{short_month}} {{day}}-{{day+1}},</tspan><tspan
     x="0"
     y="34"
     class="st13 st14 st15"
     id="tspan11073"
     style="-inkscape-font-specification:'Gosha Sans Bold';font-family:'Gosha Sans';font-weight:bold;font-style:normal;font-stretch:normal;font-variant:normal;">noon-to-noon</tspan></text>

<text
   transform="matrix(1 0 0 1 324.1274 643.5752)"
   id="text11081"
   style="-inkscape-font-specification:'Gosha Sans Bold';font-family:'Gosha Sans';font-weight:bold;font-style:normal;font-stretch:normal;font-variant:normal;"><tspan
     x="0"
     y="0"
     class="st13 st14 st15"
     id="tspan11077"
     style="-inkscape-font-specification:'Gosha Sans Bold';font-family:'Gosha Sans';font-weight:bold;font-style:normal;font-stretch:normal;font-variant:normal;">codeday.org</tspan><tspan
     x="0"
     y="34"
     class="st13 st14 st15"
     id="tspan11079"
     style="-inkscape-font-specification:'Gosha Sans Bold';font-family:'Gosha Sans';font-weight:bold;font-style:normal;font-stretch:normal;font-variant:normal;">/{{url}}</tspan></text>

</svg>