<?xml version="1.0" encoding="UTF-8" standalone="no"?>
<!-- Generator: Adobe Illustrator 23.0.6, SVG Export Plug-In . SVG Version: 6.00 Build 0)  -->

<svg
   xmlns:dc="http://purl.org/dc/elements/1.1/"
   xmlns:cc="http://creativecommons.org/ns#"
   xmlns:rdf="http://www.w3.org/1999/02/22-rdf-syntax-ns#"
   xmlns:svg="http://www.w3.org/2000/svg"
   xmlns="http://www.w3.org/2000/svg"
   xmlns:xlink="http://www.w3.org/1999/xlink"
   xmlns:sodipodi="http://sodipodi.sourceforge.net/DTD/sodipodi-0.dtd"
   xmlns:inkscape="http://www.inkscape.org/namespaces/inkscape"
   version="1.1"
   id="Layer_1"
   x="0px"
   y="0px"
   viewBox="0 0 595 842"
   style="enable-background:new 0 0 595 842;"
   xml:space="preserve"
   sodipodi:docname="ArtistsMeetRed.svg"
   inkscape:version="0.92.3 (2405546, 2018-03-11)"><metadata
   id="metadata10968"><rdf:RDF><cc:Work
       rdf:about=""><dc:format>image/svg+xml</dc:format><dc:type
         rdf:resource="http://purl.org/dc/dcmitype/StillImage" /></cc:Work></rdf:RDF></metadata><defs
   id="defs10966" /><sodipodi:namedview
   pagecolor="#ffffff"
   bordercolor="#666666"
   borderopacity="1"
   objecttolerance="10"
   gridtolerance="10"
   guidetolerance="10"
   inkscape:pageopacity="0"
   inkscape:pageshadow="2"
   inkscape:window-width="1600"
   inkscape:window-height="863"
   id="namedview10964"
   showgrid="false"
   inkscape:zoom="1.1211401"
   inkscape:cx="444.40445"
   inkscape:cy="318.89965"
   inkscape:window-x="0"
   inkscape:window-y="18"
   inkscape:window-maximized="0"
   inkscape:current-layer="Layer_1" />
<style
   type="text/css"
   id="style10937">
	.st0{clip-path:url(#SVGID_2_);fill-rule:evenodd;clip-rule:evenodd;fill:#F43737;}
	.st1{clip-path:url(#SVGID_2_);fill:#FFFFFF;}
	.st2{clip-path:url(#SVGID_2_);fill:#504CF1;}
	.st3{clip-path:url(#SVGID_4_);fill-rule:evenodd;clip-rule:evenodd;}
	.st4{clip-path:url(#SVGID_4_);fill:#FFFFFF;}
	.st5{clip-path:url(#SVGID_4_);}
	.st6{clip-path:url(#SVGID_6_);fill:#FFFFFF;}
	.st7{clip-path:url(#SVGID_8_);fill:#FFFFFF;}
	.st8{clip-path:url(#SVGID_10_);fill:#FFFFFF;}
	.st9{clip-path:url(#SVGID_12_);fill-rule:evenodd;clip-rule:evenodd;}
	.st10{clip-path:url(#SVGID_12_);fill:#FFFFFF;}
	.st11{clip-path:url(#SVGID_12_);fill:#504CF1;}
	.st12{clip-path:url(#SVGID_12_);}
	.st13{fill:#FFFFFF;}
	.st14{font-family:'GoshaSans-Bold';}
	.st15{font-size:43.0179px;}
</style>
<g
   id="g10955">
	<defs
   id="defs10940">
		<rect
   id="SVGID_1_"
   width="595"
   height="842" />
	</defs>
	<clipPath
   id="SVGID_2_">
		<use
   xlink:href="#SVGID_1_"
   style="overflow:visible;"
   id="use10942" />
	</clipPath>
	<rect
   class="st0"
   width="595"
   height="842"
   clip-path="url(#SVGID_2_)"
   id="rect10945" />
	<path
   class="st1"
   d="M404.1,356.8V381h26.3v-24.2H404.1z M351.6,277v48.5c0,16.2-7.3,23.2-23,23.2c-15.8,0-23-7.1-23-23.2V277   h-26.3v49.5c0,27.7,12.5,46.5,44.2,46.5c12.1,0,22-4.4,28.1-11.1v27.3H293v24.2h84.8V277H351.6z M205.7,361.2   c-13.7,0-19-6.5-19-14.5c0-8.1,5.3-14.5,19-14.5c13.7,0,19,6.5,19,14.5C224.7,354.7,219.4,361.2,205.7,361.2z M251,355.8V277h-78.8   v23.2h52.5v22.2c-5-7.5-12.9-12.1-28.1-12.1c-24.6,0-36.2,17.8-36.2,36.4c0,18.6,11.5,36.4,36.2,36.4c15.2,0,23-4.8,28.1-12.1V381   h39.4v-25.3H251z M80.4,356.8h-22v-88.9h22c31.5,0,38.4,11.1,38.4,44.4C118.8,344.8,111.9,356.8,80.4,356.8z M80.4,243.6H32.1V381   h48.3c45.7,0,64.6-23.4,64.6-68.7C145.1,266.9,126.1,243.6,80.4,243.6z M445.4,126.2c12.9,0,18.6,6.1,19.4,20.2h-38.6   C427,132.9,432.9,126.2,445.4,126.2z M491.1,153.9c0-30.3-12.5-51.9-45.2-51.9c-33.5,0-46.1,23.2-46.1,54.1   c0,21,6.7,53.9,53.3,53.9c7.7,0,15.4,0,31.1-3.6v-23.8c-13.9,3.2-23,3.2-29.1,3.2c-20.2,0-26.5-7.5-28.3-20.2h64.2V153.9z    M331.3,185.8c-16.8,0-24-9.1-24-29.9c0-20.6,7.3-29.7,24-29.7c16.8,0,24,9.1,24,29.7C355.3,176.7,348.1,185.8,331.3,185.8z    M355.3,66.6v49.9c-6.9-10.1-17-14.5-29.5-14.5c-31.3,0-44.8,24.2-44.8,53.9c0,29.7,13.5,54.1,44.8,54.1c12.5,0,22.6-4.4,29.5-14.7   V208h26.3V66.6H355.3z M215.7,185.8c-17.8,0-24-7.7-24-29.9c0-22.2,6.3-29.7,24-29.7s24,7.5,24,29.7   C239.7,178.1,233.5,185.8,215.7,185.8z M215.7,210c32.7,0,50.3-22.4,50.3-54.1c0-31.7-17.6-53.9-50.3-53.9s-50.3,22.2-50.3,53.9   C165.4,187.6,183,210,215.7,210z M28.1,139.3c0,36.4,17,70.7,62,70.7c38.6,0,57.8-24,59-54.3h-26.3c-3.4,20.8-10.3,30.1-32.7,30.1   c-24,0-35.8-10.9-35.8-46.5s11.7-46.5,35.8-46.5c22.4,0,29.3,9.3,32.7,30.1h26.3c-1.2-30.3-20.4-54.3-59-54.3   C45.1,68.6,28.1,103,28.1,139.3z"
   clip-path="url(#SVGID_2_)"
   id="path10947" />
	<path
   class="st2"
   d="M259.4,514.7c3.1,2.1,6.2,2.8,9.5,2.8c5,0,8.9-2.5,8.9-6.9c0-4.3-2.5-5.6-8.9-7c-3.4-0.7-4-1.3-4-2.4   c0-1,0.7-1.5,2.3-1.5c2.4,0,5.8,0.7,8.9,2.2v-5.2c-2.1-1.5-5.6-2.2-8.5-2.2c-4.6,0-8.3,2-8.3,6.4c0,3.4,1.9,6.1,8.7,7.1   c3.4,0.6,4.2,1.2,4.2,2.4c0,1.1-0.9,1.9-2.9,1.9c-3.2,0-6.1-0.8-10-3.2V514.7z M255.9,494.9h-13.8V517h5.6v-17h8.3V494.9z    M228.3,499.6c2.8,0,4,1.3,4.1,4.3h-8.2C224.4,501,225.7,499.6,228.3,499.6z M238,505.5c0-6.5-2.7-11.1-9.6-11.1   c-7.1,0-9.8,4.9-9.8,11.5c0,4.5,1.4,11.5,11.4,11.5c1.6,0,3.3,0,6.6-0.8v-5.1c-3,0.7-4.9,0.7-6.2,0.7c-4.3,0-5.6-1.6-6-4.3H238   V505.5z M204,512.3c-3.6,0-5.1-1.9-5.1-6.4c0-4.4,1.5-6.3,5.1-6.3s5.1,1.9,5.1,6.3C209.2,510.3,207.6,512.3,204,512.3z    M209.2,486.9v10.6c-1.5-2.2-3.6-3.1-6.3-3.1c-6.7,0-9.5,5.2-9.5,11.5c0,6.3,2.9,11.5,9.5,11.5c2.7,0,4.8-0.9,6.3-3.1v2.7h5.6   v-30.1H209.2z M179.4,512.3c-3.8,0-5.1-1.6-5.1-6.4s1.3-6.3,5.1-6.3c3.8,0,5.1,1.6,5.1,6.3S183.2,512.3,179.4,512.3z M179.4,517.4   c7,0,10.7-4.8,10.7-11.5c0-6.8-3.7-11.5-10.7-11.5c-7,0-10.7,4.7-10.7,11.5C168.7,512.7,172.5,517.4,179.4,517.4z M145.6,505.9   c0,6.8,3.3,11.5,10.2,11.5c6.4,0,9.7-4.3,9.7-9.5h-5.6c-0.2,2.5-0.9,4.3-4,4.3c-3.8,0-4.7-2.1-4.7-6.4c0-4.3,0.9-6.3,4.7-6.3   c3.1,0,3.8,1.8,4,4.3h5.6c0-5.1-3.3-9.5-9.7-9.5C148.9,494.4,145.6,499.2,145.6,505.9z"
   clip-path="url(#SVGID_2_)"
   id="path10949" />
	<path
   class="st2"
   d="M297.5,471.7c3.1,2.1,6.2,2.8,9.5,2.8c5,0,8.9-2.5,8.9-6.9c0-4.3-2.5-5.6-8.9-7c-3.4-0.7-4-1.3-4-2.4   c0-1,0.7-1.5,2.3-1.5c2.4,0,5.8,0.7,8.9,2.2v-5.2c-2.1-1.5-5.6-2.2-8.5-2.2c-4.6,0-8.3,2-8.3,6.4c0,3.4,1.9,6.1,8.7,7.1   c3.4,0.6,4.2,1.2,4.2,2.4c0,1.1-0.9,1.9-2.9,1.9c-3.2,0-6.1-0.8-10-3.2V471.7z M293,457v-5.2h-5.9v-8h-5.6v8h-3.4v5.2h3.4v17H293   v-5.2h-5.9V457H293z M257.4,471.7c3.1,2.1,6.2,2.8,9.5,2.8c5,0,8.9-2.5,8.9-6.9c0-4.3-2.5-5.6-8.9-7c-3.4-0.7-4-1.3-4-2.4   c0-1,0.7-1.5,2.3-1.5c2.4,0,5.8,0.7,8.9,2.2v-5.2c-2.1-1.5-5.6-2.2-8.5-2.2c-4.6,0-8.3,2-8.3,6.4c0,3.4,1.9,6.1,8.7,7.1   c3.4,0.6,4.2,1.2,4.2,2.4c0,1.1-0.9,1.9-2.9,1.9c-3.2,0-6.1-0.8-10-3.2V471.7z M246.9,451.9V474h5.6v-22.1H246.9z M246.9,443.9v4.3   h5.6v-4.3H246.9z M241.3,457v-5.2h-5.9v-8h-5.6v8h-3.4v5.2h3.4v17h11.5v-5.2h-5.9V457H241.3z M222.9,451.9h-13.8V474h5.6v-17h8.3   V451.9z M192.6,469.8c-2.9,0-4-1.4-4-3.1s1.1-3.1,4-3.1s4,1.4,4,3.1S195.5,469.8,192.6,469.8z M202.2,468.6v-16.8h-16.8v4.9h11.2   v4.7c-1.1-1.6-2.8-2.6-6-2.6c-5.2,0-7.7,3.8-7.7,7.7s2.5,7.7,7.7,7.7c3.2,0,4.9-1,6-2.6v2.1h8.4v-5.4H202.2z"
   clip-path="url(#SVGID_2_)"
   id="path10951" />
	<path
   class="st1"
   d="M241.7,597.8v5.2h5.6v-5.2H241.7z M230.6,572.9V603h5.6v-30.1H230.6z M216.2,598.3c-3.8,0-5.1-1.6-5.1-6.4   s1.3-6.3,5.1-6.3c3.8,0,5.1,1.6,5.1,6.3S220,598.3,216.2,598.3z M216.2,603.4c7,0,10.7-4.8,10.7-11.5s-3.7-11.5-10.7-11.5   c-7,0-10.7,4.7-10.7,11.5S209.3,603.4,216.2,603.4z M191.6,598.3c-3.8,0-5.1-1.6-5.1-6.4s1.3-6.3,5.1-6.3c3.8,0,5.1,1.6,5.1,6.3   S195.4,598.3,191.6,598.3z M191.6,603.4c7,0,10.7-4.8,10.7-11.5s-3.7-11.5-10.7-11.5c-7,0-10.7,4.7-10.7,11.5   S184.6,603.4,191.6,603.4z M157.8,591.9c0,6.8,3.3,11.5,10.2,11.5c6.4,0,9.7-4.3,9.7-9.5h-5.6c-0.2,2.5-0.9,4.3-4,4.3   c-3.8,0-4.7-2.1-4.7-6.4s0.9-6.3,4.7-6.3c3.1,0,3.8,1.8,4,4.3h5.6c0-5.1-3.3-9.5-9.7-9.5C161.1,580.4,157.8,585.2,157.8,591.9z    M131.6,580.9v10.3c0,3.4-1.5,4.9-4.9,4.9s-4.9-1.5-4.9-4.9v-10.3h-5.6v10.5c0,5.9,2.7,9.9,9.4,9.9c2.6,0,4.7-0.9,6-2.4v5.8h-12.5   v5.2h18.1v-29H131.6z M105.6,572.9V603h5.6v-30.1H105.6z M95.3,572.9V603h5.6v-30.1H95.3z M78.8,598.8c-2.9,0-4-1.4-4-3.1   s1.1-3.1,4-3.1c2.9,0,4,1.4,4,3.1S81.8,598.8,78.8,598.8z M88.5,597.6v-16.8H71.7v4.9h11.2v4.7c-1.1-1.6-2.8-2.6-6-2.6   c-5.2,0-7.7,3.8-7.7,7.7s2.5,7.7,7.7,7.7c3.2,0,4.9-1,6-2.6v2.2h8.4v-5.4H88.5z M56.5,585.6c2.8,0,4,1.3,4.1,4.3h-8.2   C52.6,587,53.8,585.6,56.5,585.6z M66.2,591.5c0-6.5-2.7-11.1-9.6-11.1c-7.1,0-9.8,4.9-9.8,11.5c0,4.5,1.4,11.5,11.4,11.5   c1.6,0,3.3,0,6.6-0.8v-5.1c-3,0.7-4.9,0.7-6.2,0.7c-4.3,0-5.6-1.6-6-4.3h13.7V591.5z M44.4,580.9H30.6V603h5.6v-17h8.3V580.9z    M408.5,553.1c-3.8,0-5.1-1.9-5.1-5.3c0-3.3,1.3-5.2,5.1-5.2s5.1,1.9,5.1,5.2C413.6,551.4,412.2,553.1,408.5,553.1z M413.6,537.9   v2.4c-1.3-1.6-3.2-2.8-6.3-2.8c-6.5,0-9.5,4.9-9.5,10.4c0,5.6,3.1,10.4,9.5,10.4c3.1,0,5-1.2,6.3-2.6v6h-12v5.2h17.6v-29H413.6z    M393.7,537.9h-20.2V560h5.6v-17h9v17h5.6V537.9z M362.7,537.9V560h5.6v-22.1H362.7z M362.7,529.9v4.3h5.6v-4.3H362.7z    M357.8,537.9h-14.6v-8h-5.6V560h5.6v-17h9v17h5.6V537.9z M332.6,543v-5.2h-5.9v-8h-5.6v8h-3.4v5.2h3.4v17h11.5v-5.2h-5.9V543   H332.6z M305.4,542.6c2.8,0,4,1.3,4.1,4.3h-8.2C301.5,544,302.8,542.6,305.4,542.6z M315.1,548.5c0-6.5-2.7-11.1-9.6-11.1   c-7.1,0-9.8,4.9-9.8,11.5c0,4.5,1.4,11.5,11.4,11.5c1.6,0,3.3,0,6.6-0.8v-5.1c-3,0.7-4.9,0.7-6.2,0.7c-4.3,0-5.6-1.6-6-4.3h13.7   V548.5z M291.8,537.9h-31V560h5.6v-17h7.1v17h5.6v-17h7.1v17h5.6V537.9z M246.1,555.3c-3.8,0-5.1-1.6-5.1-6.4s1.3-6.3,5.1-6.3   c3.8,0,5.1,1.6,5.1,6.3S249.9,555.3,246.1,555.3z M246.1,560.4c7,0,10.7-4.8,10.7-11.5s-3.7-11.5-10.7-11.5   c-7,0-10.7,4.7-10.7,11.5S239.1,560.4,246.1,560.4z M213.9,557.7c3.1,2.1,6.2,2.8,9.5,2.8c5,0,8.9-2.5,8.9-6.9c0-4.3-2.5-5.6-8.9-7   c-3.4-0.7-4-1.3-4-2.4c0-1,0.7-1.5,2.3-1.5c2.4,0,5.8,0.7,8.9,2.2v-5.2c-2.1-1.5-5.6-2.2-8.5-2.2c-4.6,0-8.3,2-8.3,6.4   c0,3.4,1.9,6.1,8.7,7.1c3.4,0.6,4.2,1.2,4.2,2.4c0,1.1-0.9,1.9-2.9,1.9c-3.2,0-6.1-0.8-10-3.2V557.7z M183.6,542.6   c2.8,0,4,1.3,4.1,4.3h-8.2C179.7,544,180.9,542.6,183.6,542.6z M193.3,548.5c0-6.5-2.7-11.1-9.6-11.1c-7.1,0-9.8,4.9-9.8,11.5   c0,4.5,1.4,11.5,11.4,11.5c1.6,0,3.3,0,6.6-0.8v-5.1c-3,0.7-4.9,0.7-6.2,0.7c-4.3,0-5.6-1.6-6-4.3h13.7V548.5z M172.8,537.9h-6.7   l-5.8,8.5h-3.1v-16.5h-5.6V560h5.6v-8.5h3.1l5.8,8.5h6.7l-7.6-11.1L172.8,537.9z M135,555.8c-2.9,0-4-1.4-4-3.1s1.1-3.1,4-3.1   s4,1.4,4,3.1S137.9,555.8,135,555.8z M144.7,554.6v-16.8h-16.8v4.9h11.2v4.7c-1.1-1.6-2.8-2.6-6-2.6c-5.2,0-7.7,3.8-7.7,7.7   s2.5,7.7,7.7,7.7c3.2,0,4.9-1,6-2.6v2.2h8.4v-5.4H144.7z M121.3,537.9h-31V560h5.6v-17h7.1v17h5.6v-17h7.1v17h5.6V537.9z M59,555.3   c-3.8,0-5.1-1.6-5.1-6.4s1.3-6.3,5.1-6.3c3.8,0,5.1,1.6,5.1,6.3S62.8,555.3,59,555.3z M59,560.4c7,0,10.7-4.8,10.7-11.5   S66,537.4,59,537.4c-7,0-10.7,4.7-10.7,11.5S52,560.4,59,560.4z M45.1,543v-5.2h-5.9v-8h-5.6v8h-3.4v5.2h3.4v17h11.5v-5.2h-5.9V543   H45.1z M125.4,500v-5.2h-5.9v-8h-5.6v8h-3.4v5.2h3.4v17h11.5v-5.2h-5.9V500H125.4z M98.2,499.6c2.8,0,4,1.3,4.1,4.3h-8.2   C94.3,501,95.5,499.6,98.2,499.6z M107.9,505.5c0-6.5-2.7-11.1-9.6-11.1c-7.1,0-9.8,4.9-9.8,11.5c0,4.5,1.4,11.5,11.4,11.5   c1.6,0,3.3,0,6.6-0.8v-5.1c-3,0.7-4.9,0.7-6.2,0.7c-4.3,0-5.6-1.6-6-4.3h13.7V505.5z M75.6,499.6c2.8,0,4,1.3,4.1,4.3h-8.2   C71.6,501,72.9,499.6,75.6,499.6z M85.3,505.5c0-6.5-2.7-11.1-9.6-11.1c-7.1,0-9.8,4.9-9.8,11.5c0,4.5,1.4,11.5,11.4,11.5   c1.6,0,3.3,0,6.6-0.8v-5.1c-3,0.7-4.9,0.7-6.2,0.7c-4.3,0-5.6-1.6-6-4.3h13.7V505.5z M62,494.9H31V517h5.6v-17h7.1v17h5.6v-17h7.1   v17H62V494.9z M153,456.6c2.8,0,4,1.3,4.1,4.3H149C149.1,458,150.4,456.6,153,456.6z M162.8,462.5c0-6.5-2.7-11.1-9.6-11.1   c-7.1,0-9.8,4.9-9.8,11.5c0,4.5,1.4,11.5,11.4,11.5c1.6,0,3.3,0,6.6-0.8v-5.1c-3,0.7-4.9,0.7-6.2,0.7c-4.3,0-5.6-1.6-6-4.3h13.7   V462.5z M141,451.9h-13.8V474h5.6v-17h8.3V451.9z M113.4,456.6c2.8,0,4,1.3,4.1,4.3h-8.2C109.4,458,110.7,456.6,113.4,456.6z    M123.1,462.5c0-6.5-2.7-11.1-9.6-11.1c-7.1,0-9.8,4.9-9.8,11.5c0,4.5,1.4,11.5,11.4,11.5c1.6,0,3.3,0,6.6-0.8v-5.1   c-3,0.7-4.9,0.7-6.2,0.7c-4.3,0-5.6-1.6-6-4.3h13.7V462.5z M99.8,451.9H85.1v-8h-5.6V474h5.6v-17h9v17h5.6V451.9z M70.1,444.8   l-5.9,23.5h-0.7l-5.6-23.5h-9.3L43,468.3h-0.7l-5.9-23.5h-5.8l7.5,29.2h9.2l5.6-23.5h0.7l5.6,23.5h9.2l7.5-29.2H70.1z"
   clip-path="url(#SVGID_2_)"
   id="path10953" />
</g>


<text
   xml:space="preserve"
   style="font-style:normal;font-variant:normal;font-weight:normal;font-stretch:normal;font-size:48px;line-height:1.25;font-family:'Merriweather Sans';-inkscape-font-specification:'Merriweather Sans';text-align:end;letter-spacing:0px;word-spacing:0px;text-anchor:end;fill:#000000;fill-opacity:1;stroke:none"
   x="27.849106"
   y="689.07312"
   id="text99313"><tspan
     sodipodi:role="line"
     id="tspan99311"
     x="27.849106"
     y="689.07312"
     style="font-style:normal;font-variant:normal;font-weight:bold;font-stretch:normal;font-size:43.01789856px;font-family:'Gosha Sans';-inkscape-font-specification:'Gosha Sans Bold';text-align:start;text-anchor:start;fill:#ffffff;fill-opacity:1">{{month}} {{day}}-{{day+1}},</tspan><tspan
     sodipodi:role="line"
     x="27.849106"
     y="749.07312"
     style="font-style:normal;font-variant:normal;font-weight:bold;font-stretch:normal;font-size:43.01789856px;font-family:'Gosha Sans';-inkscape-font-specification:'Gosha Sans Bold';text-align:start;text-anchor:start;fill:#ffffff;fill-opacity:1"
     id="tspan99317">noon-to-noon</tspan><tspan
     sodipodi:role="line"
     x="27.849106"
     y="809.07312"
     style="font-style:normal;font-variant:normal;font-weight:bold;font-stretch:normal;font-size:43.01789856px;font-family:'Gosha Sans';-inkscape-font-specification:'Gosha Sans Bold';text-align:start;text-anchor:start;fill:#ffffff;fill-opacity:1"
     id="tspan99319">codeday.org/{{url}}</tspan></text>
</svg>