<?xml version="1.0" encoding="UTF-8" standalone="no"?>
<svg
   xmlns:dc="http://purl.org/dc/elements/1.1/"
   xmlns:cc="http://creativecommons.org/ns#"
   xmlns:rdf="http://www.w3.org/1999/02/22-rdf-syntax-ns#"
   xmlns:svg="http://www.w3.org/2000/svg"
   xmlns="http://www.w3.org/2000/svg"
   xmlns:sodipodi="http://sodipodi.sourceforge.net/DTD/sodipodi-0.dtd"
   xmlns:inkscape="http://www.inkscape.org/namespaces/inkscape"
   width="1080"
   height="1080"
   viewBox="0 0 1080 1080"
   fill="none"
   version="1.1"
   id="svg19577"
   sodipodi:docname="Instagram Post - 3.svg"
   inkscape:version="0.92.3 (2405546, 2018-03-11)">
  <metadata
     id="metadata19581">
    <rdf:RDF>
      <cc:Work
         rdf:about="">
        <dc:format>image/svg+xml</dc:format>
        <dc:type
           rdf:resource="http://purl.org/dc/dcmitype/StillImage" />
      </cc:Work>
    </rdf:RDF>
  </metadata>
  <sodipodi:namedview
     pagecolor="#ffffff"
     bordercolor="#666666"
     borderopacity="1"
     objecttolerance="10"
     gridtolerance="10"
     guidetolerance="10"
     inkscape:pageopacity="0"
     inkscape:pageshadow="2"
     inkscape:window-width="1600"
     inkscape:window-height="881"
     id="namedview19579"
     showgrid="false"
     inkscape:zoom="0.43703704"
     inkscape:cx="416.11727"
     inkscape:cy="737.09569"
     inkscape:window-x="0"
     inkscape:window-y="0"
     inkscape:window-maximized="0"
     inkscape:current-layer="g19539" />
  <g
     clip-path="url(#clip0)"
     id="g19547">
    <rect
       width="1080"
       height="1080"
       id="rect19521"
       fill="url(#paint0_linear)" />
    <path
       d="M68.5876 761.768V766.808H79.7236C79.0516 770.792 76.3156 773.72 71.7076 773.72C65.5156 773.72 62.4916 770.888 62.4916 762.68C62.4916 754.472 65.2756 751.64 71.1316 751.64C75.8356 751.64 77.9476 753.848 78.5716 757.352H84.7636C84.2836 750.632 79.1956 745.88 71.1316 745.88C60.7636 745.88 56.2516 753.32 56.2516 762.68C56.2516 772.04 60.7636 779.48 70.2676 779.48C75.9796 779.48 78.0916 776.312 78.9556 774.44H79.7236V779H85.9636V761.768H68.5876ZM112.213 766.136C112.213 758.936 109.237 753.8 101.461 753.8C93.4932 753.8 90.5172 759.32 90.5172 766.664C90.5172 771.656 92.1012 779.48 103.189 779.48C105.013 779.48 106.837 779.48 110.581 778.616V772.952C107.269 773.72 105.109 773.72 103.669 773.72C98.8692 773.72 97.3812 771.944 96.9492 768.92H112.213V766.136ZM101.365 759.56C104.437 759.56 105.781 761 105.973 764.36H96.8052C96.9972 761.144 98.3892 759.56 101.365 759.56ZM131.736 760.04V754.28H125.16V745.4H118.92V754.28H115.08V760.04H118.92V779H131.736V773.24H125.16V760.04H131.736ZM171.978 754.28V765.8C171.978 769.64 170.25 771.32 166.506 771.32C162.762 771.32 161.034 769.64 161.034 765.8V754.28H154.794V766.04C154.794 772.616 157.77 777.08 165.306 777.08C168.186 777.08 170.538 776.024 171.978 774.44V780.92H158.058V786.68H178.218V754.28H171.978ZM194.719 779.48C202.495 779.48 206.671 774.152 206.671 766.616C206.671 759.08 202.495 753.8 194.719 753.8C186.943 753.8 182.767 759.08 182.767 766.616C182.767 774.152 186.943 779.48 194.719 779.48ZM194.719 773.72C190.495 773.72 189.007 771.896 189.007 766.616C189.007 761.336 190.495 759.56 194.719 759.56C198.943 759.56 200.431 761.336 200.431 766.616C200.431 771.896 198.943 773.72 194.719 773.72ZM234.421 768.44V754.28H228.181V767.96C228.181 772.28 226.693 773.72 222.709 773.72C218.725 773.72 217.237 772.28 217.237 767.96V754.28H210.997V768.44C210.997 776.456 215.413 779.48 222.709 779.48C230.005 779.48 234.421 776.456 234.421 768.44ZM255.422 754.28H239.966V779H246.206V760.04H255.422V754.28ZM294.158 760.04V754.28H287.582V745.4H281.342V754.28H277.502V760.04H281.342V779H294.158V773.24H287.582V760.04H294.158ZM300.399 745.4V750.2H306.639V745.4H300.399ZM300.399 754.28V779H306.639V754.28H300.399ZM311.158 766.616C311.158 774.152 314.854 779.48 322.534 779.48C329.638 779.48 333.334 774.632 333.334 768.92H327.094C326.902 771.656 326.134 773.72 322.63 773.72C318.406 773.72 317.398 771.416 317.398 766.616C317.398 761.816 318.406 759.56 322.63 759.56C326.134 759.56 326.902 761.624 327.094 764.36H333.334C333.334 758.648 329.638 753.8 322.534 753.8C314.854 753.8 311.158 759.08 311.158 766.616ZM361.611 754.28H354.123L347.643 763.784H344.139V745.4H337.899V779H344.139V769.544H347.643L354.123 779H361.611L353.115 766.664L361.611 754.28ZM384.51 766.136C384.51 758.936 381.534 753.8 373.758 753.8C365.79 753.8 362.814 759.32 362.814 766.664C362.814 771.656 364.398 779.48 375.486 779.48C377.31 779.48 379.134 779.48 382.878 778.616V772.952C379.566 773.72 377.406 773.72 375.966 773.72C371.166 773.72 369.678 771.944 369.246 768.92H384.51V766.136ZM373.662 759.56C376.734 759.56 378.078 761 378.27 764.36H369.102C369.294 761.144 370.686 759.56 373.662 759.56ZM404.033 760.04V754.28H397.457V745.4H391.217V754.28H387.377V760.04H391.217V779H404.033V773.24H397.457V760.04H404.033ZM409.091 776.408C412.595 778.76 416.003 779.48 419.747 779.48C425.363 779.48 429.731 776.648 429.731 771.752C429.731 767 426.995 765.464 419.795 763.976C415.955 763.16 415.331 762.488 415.331 761.288C415.331 760.184 416.147 759.56 417.875 759.56C420.515 759.56 424.307 760.328 427.811 762.056V756.296C425.459 754.664 421.571 753.8 418.355 753.8C413.219 753.8 409.091 756.056 409.091 761C409.091 764.792 411.251 767.768 418.787 768.92C422.627 769.544 423.491 770.216 423.491 771.608C423.491 772.808 422.531 773.72 420.227 773.72C416.675 773.72 413.459 772.856 409.091 770.12V776.408ZM466.506 753.8C463.53 753.8 461.13 754.856 459.498 757.256V745.4H453.258V779H459.498V775.976C461.13 778.424 463.53 779.48 466.506 779.48C473.946 779.48 477.162 773.672 477.162 766.616C477.162 759.56 473.946 753.8 466.506 753.8ZM465.21 773.72C461.226 773.72 459.498 771.56 459.498 766.616C459.498 761.72 461.226 759.56 465.21 759.56C469.194 759.56 470.922 761.72 470.922 766.616C470.922 771.56 469.194 773.72 465.21 773.72ZM502.448 766.136C502.448 758.936 499.472 753.8 491.696 753.8C483.728 753.8 480.752 759.32 480.752 766.664C480.752 771.656 482.336 779.48 493.424 779.48C495.248 779.48 497.072 779.48 500.816 778.616V772.952C497.504 773.72 495.344 773.72 493.904 773.72C489.104 773.72 487.616 771.944 487.184 768.92H502.448V766.136ZM491.6 759.56C494.672 759.56 496.016 761 496.208 764.36H487.04C487.232 761.144 488.624 759.56 491.6 759.56ZM522.21 751.16V745.4H509.154V755H505.314V760.76H509.154V779H515.394V760.76H522.21V755H515.394V751.16H522.21ZM536.813 779.48C544.589 779.48 548.765 774.152 548.765 766.616C548.765 759.08 544.589 753.8 536.813 753.8C529.037 753.8 524.861 759.08 524.861 766.616C524.861 774.152 529.037 779.48 536.813 779.48ZM536.813 773.72C532.589 773.72 531.101 771.896 531.101 766.616C531.101 761.336 532.589 759.56 536.813 759.56C541.037 759.56 542.525 761.336 542.525 766.616C542.525 771.896 541.037 773.72 536.813 773.72ZM568.266 754.28H552.81V779H559.05V760.04H568.266V754.28ZM592.588 766.136C592.588 758.936 589.612 753.8 581.836 753.8C573.868 753.8 570.892 759.32 570.892 766.664C570.892 771.656 572.476 779.48 583.564 779.48C585.388 779.48 587.212 779.48 590.956 778.616V772.952C587.644 773.72 585.484 773.72 584.044 773.72C579.244 773.72 577.756 771.944 577.324 768.92H592.588V766.136ZM581.74 759.56C584.812 759.56 586.156 761 586.348 764.36H577.18C577.372 761.144 578.764 759.56 581.74 759.56ZM631.798 760.04V754.28H625.222V745.4H618.982V754.28H615.142V760.04H618.982V779H631.798V773.24H625.222V760.04H631.798ZM659.897 754.28H643.577V745.4H637.337V779H643.577V760.04H653.657V779H659.897V754.28ZM685.916 766.136C685.916 758.936 682.94 753.8 675.164 753.8C667.196 753.8 664.22 759.32 664.22 766.664C664.22 771.656 665.804 779.48 676.892 779.48C678.716 779.48 680.54 779.48 684.284 778.616V772.952C680.972 773.72 678.812 773.72 677.372 773.72C672.572 773.72 671.084 771.944 670.652 768.92H685.916V766.136ZM675.068 759.56C678.14 759.56 679.484 761 679.676 764.36H670.508C670.7 761.144 672.092 759.56 675.068 759.56ZM707.15 754.28V765.8C707.15 769.64 705.422 771.32 701.678 771.32C697.934 771.32 696.206 769.64 696.206 765.8V754.28H689.966V766.04C689.966 772.616 692.942 777.08 700.478 777.08C703.358 777.08 705.71 776.024 707.15 774.44V780.92H693.23V786.68H713.39V754.28H707.15ZM757.959 773V754.28H739.239V759.8H751.719V765.08C750.519 763.304 748.647 762.2 745.047 762.2C739.191 762.2 736.455 766.424 736.455 770.84C736.455 775.256 739.191 779.48 745.047 779.48C748.647 779.48 750.519 778.328 751.719 776.6V779H761.079V773H757.959ZM747.207 774.296C743.943 774.296 742.695 772.76 742.695 770.84C742.695 768.92 743.943 767.384 747.207 767.384C750.471 767.384 751.719 768.92 751.719 770.84C751.719 772.76 750.471 774.296 747.207 774.296ZM781.078 754.28H765.622V779H771.862V760.04H781.078V754.28ZM805.401 766.136C805.401 758.936 802.425 753.8 794.649 753.8C786.681 753.8 783.705 759.32 783.705 766.664C783.705 771.656 785.289 779.48 796.377 779.48C798.201 779.48 800.025 779.48 803.769 778.616V772.952C800.457 773.72 798.297 773.72 796.857 773.72C792.057 773.72 790.569 771.944 790.137 768.92H805.401V766.136ZM794.553 759.56C797.625 759.56 798.969 761 799.161 764.36H789.993C790.185 761.144 791.577 759.56 794.553 759.56ZM828.435 776.408C831.939 778.76 835.347 779.48 839.091 779.48C844.707 779.48 849.075 776.648 849.075 771.752C849.075 767 846.339 765.464 839.139 763.976C835.299 763.16 834.675 762.488 834.675 761.288C834.675 760.184 835.491 759.56 837.219 759.56C839.859 759.56 843.651 760.328 847.155 762.056V756.296C844.803 754.664 840.915 753.8 837.699 753.8C832.563 753.8 828.435 756.056 828.435 761C828.435 764.792 830.595 767.768 838.131 768.92C841.971 769.544 842.835 770.216 842.835 771.608C842.835 772.808 841.875 773.72 839.571 773.72C836.019 773.72 832.803 772.856 828.435 770.12V776.408ZM864.375 779.48C872.151 779.48 876.327 774.152 876.327 766.616C876.327 759.08 872.151 753.8 864.375 753.8C856.599 753.8 852.423 759.08 852.423 766.616C852.423 774.152 856.599 779.48 864.375 779.48ZM864.375 773.72C860.151 773.72 858.663 771.896 858.663 766.616C858.663 761.336 860.151 759.56 864.375 759.56C868.599 759.56 870.087 761.336 870.087 766.616C870.087 771.896 868.599 773.72 864.375 773.72ZM880.383 745.4V779H886.623V745.4H880.383ZM908.572 745.4V757.256C906.94 754.856 904.54 753.8 901.564 753.8C894.124 753.8 890.908 759.56 890.908 766.616C890.908 773.672 894.124 779.48 901.564 779.48C904.54 779.48 906.94 778.424 908.572 775.976V779H914.812V745.4H908.572ZM902.86 773.72C898.876 773.72 897.148 771.56 897.148 766.616C897.148 761.72 898.876 759.56 902.86 759.56C906.844 759.56 908.572 761.72 908.572 766.616C908.572 771.56 906.844 773.72 902.86 773.72ZM949.829 779.48C957.605 779.48 961.781 774.152 961.781 766.616C961.781 759.08 957.605 753.8 949.829 753.8C942.053 753.8 937.877 759.08 937.877 766.616C937.877 774.152 942.053 779.48 949.829 779.48ZM949.829 773.72C945.605 773.72 944.117 771.896 944.117 766.616C944.117 761.336 945.605 759.56 949.829 759.56C954.053 759.56 955.541 761.336 955.541 766.616C955.541 771.896 954.053 773.72 949.829 773.72ZM989.531 768.44V754.28H983.291V767.96C983.291 772.28 981.803 773.72 977.819 773.72C973.835 773.72 972.347 772.28 972.347 767.96V754.28H966.107V768.44C966.107 776.456 970.523 779.48 977.819 779.48C985.115 779.48 989.531 776.456 989.531 768.44ZM1010.27 760.04V754.28H1003.69V745.4H997.451V754.28H993.611V760.04H997.451V779H1010.27V773.24H1003.69V760.04H1010.27ZM1016.03 770.36H1022.27V746.36H1016.03V770.36ZM1016.03 774.2V779H1022.27V774.2H1016.03Z"
       id="path19525"
       fill="white" />
    <g
       clip-path="url(#clip1)"
       id="g19539">
      <path
         d="M269.466 676.48V622.72H256.986V688H294.234V676.48H269.466ZM345.324 676V638.56H307.884V649.6H332.844V660.16C330.444 656.608 326.7 654.4 319.5 654.4C307.788 654.4 302.316 662.848 302.316 671.68C302.316 680.512 307.788 688.96 319.5 688.96C326.7 688.96 330.444 686.656 332.844 683.2V688H351.564V676H345.324ZM323.82 678.592C317.292 678.592 314.796 675.52 314.796 671.68C314.796 667.84 317.292 664.768 323.82 664.768C330.348 664.768 332.844 667.84 332.844 671.68C332.844 675.52 330.348 678.592 323.82 678.592ZM360.182 682.816C367.19 687.52 374.006 688.96 381.494 688.96C392.726 688.96 401.462 683.296 401.462 673.504C401.462 664 395.99 660.928 381.59 657.952C373.91 656.32 372.662 654.976 372.662 652.576C372.662 650.368 374.294 649.12 377.75 649.12C383.03 649.12 390.614 650.656 397.622 654.112V642.592C392.918 639.328 385.142 637.6 378.71 637.6C368.438 637.6 360.182 642.112 360.182 652C360.182 659.584 364.502 665.536 379.574 667.84C387.254 669.088 388.982 670.432 388.982 673.216C388.982 675.616 387.062 677.44 382.454 677.44C375.35 677.44 368.918 675.712 360.182 670.24V682.816ZM439.596 650.08V638.56H426.444V620.8H413.964V638.56H406.284V650.08H413.964V688H439.596V676.48H426.444V650.08H439.596ZM484.753 663.232C484.753 678.304 492.145 688.96 507.505 688.96C521.713 688.96 529.105 679.264 529.105 667.84H516.625C516.241 673.312 514.705 677.44 507.697 677.44C499.249 677.44 497.233 672.832 497.233 663.232C497.233 653.632 499.249 649.12 507.697 649.12C514.705 649.12 516.241 653.248 516.625 658.72H529.105C529.105 647.296 521.713 637.6 507.505 637.6C492.145 637.6 484.753 648.16 484.753 663.232ZM583.356 638.56H550.716V620.8H538.236V688H550.716V650.08H570.876V688H583.356V638.56ZM635.48 676V638.56H598.04V649.6H623V660.16C620.6 656.608 616.856 654.4 609.656 654.4C597.944 654.4 592.472 662.848 592.472 671.68C592.472 680.512 597.944 688.96 609.656 688.96C616.856 688.96 620.6 686.656 623 683.2V688H641.72V676H635.48ZM613.976 678.592C607.448 678.592 604.952 675.52 604.952 671.68C604.952 667.84 607.448 664.768 613.976 664.768C620.504 664.768 623 667.84 623 671.68C623 675.52 620.504 678.592 613.976 678.592ZM696.489 638.56H651.369V688H663.849V650.08H684.009V688H696.489V638.56ZM705.066 663.232C705.066 678.304 712.458 688.96 727.818 688.96C742.026 688.96 749.418 679.264 749.418 667.84H736.938C736.554 673.312 735.018 677.44 728.01 677.44C719.562 677.44 717.546 672.832 717.546 663.232C717.546 653.632 719.562 649.12 728.01 649.12C735.018 649.12 736.554 653.248 736.938 658.72H749.418C749.418 647.296 742.026 637.6 727.818 637.6C712.458 637.6 705.066 648.16 705.066 663.232ZM800.02 662.272C800.02 647.872 794.068 637.6 778.516 637.6C762.58 637.6 756.628 648.64 756.628 663.328C756.628 673.312 759.796 688.96 781.972 688.96C785.62 688.96 789.268 688.96 796.756 687.232V675.904C790.132 677.44 785.812 677.44 782.932 677.44C773.332 677.44 770.356 673.888 769.492 667.84H800.02V662.272ZM778.324 649.12C784.468 649.12 787.156 652 787.54 658.72H769.204C769.588 652.288 772.372 649.12 778.324 649.12ZM811.494 670.72H823.974V622.72H811.494V670.72ZM811.494 678.4V688H823.974V678.4H811.494Z"
         id="path19533"
         fill="white" />
      <g
         id="g19537"
         style="fill:#000000;fill-opacity:0.10196079;stroke:none;stroke-opacity:0.02352941;stroke-linejoin:round"
         filter="url(#filter0_d)">
        <path
           d="M332.8 307.808C330.3 308.608 326.8 310.108 325.2 311.208C321.5 313.908 313.8 323.108 312.2 326.808C311.4 328.508 309.6 331.408 308.1 333.308C303.8 338.708 299 349.808 299 354.108C299 360.208 302.6 372.808 305.4 377.008C306.8 379.108 308 381.408 308 382.108C308 383.008 302.3 383.408 284.3 383.608C248.9 384.008 200 383.408 200 382.608C200 381.708 207.9 371.008 208.8 370.708C209.2 370.508 213 371.308 217.3 372.308C221.5 373.308 225 373.808 225 373.508C225 373.208 222.7 371.408 220 369.608C217.2 367.908 215 366.008 215 365.508C215 365.008 215.7 363.308 216.5 361.808C217.3 360.208 218 357.408 218 355.508C218 353.208 219.3 350.008 222 346.008C225.1 341.108 229 332.808 229 330.808C229 329.508 225.2 330.808 221.5 333.408C219.1 335.008 216.9 336.408 216.5 336.408C215.5 336.408 210 332.108 210 331.308C210 330.908 211.9 329.308 214.3 327.908L218.5 325.208L214.1 325.708C210.9 326.108 208.5 325.708 205.6 324.308C201 322.108 198.9 321.908 197.3 323.508C196.4 324.408 195.3 324.408 193 323.408C190.6 322.408 189.3 322.408 187.4 323.308C185.6 324.108 183.1 324.108 178.5 323.408C168.4 321.808 162.9 323.408 150 332.008C136.1 341.208 135.5 342.108 133.9 359.108C132.6 371.808 132.7 372.508 137.4 379.608L139.2 382.408L121.4 382.508C111.5 382.608 57.7 382.608 1.8 382.408L-100 382.208V385.308C-100 388.008 -99.6 388.408 -97.2 388.408C-95.7 388.508 -40.3 388.708 26 389.008C141.8 389.408 146.7 389.508 151 391.408C158.2 394.408 169 397.408 172.9 397.408C174.9 397.408 178.3 396.708 180.5 395.908C182.7 395.108 186.4 394.508 188.6 394.408C191.6 394.408 193.1 393.808 194.1 392.308C195.5 390.308 196.2 390.308 254.3 390.108L313 390.008L319.8 398.308C323.5 402.908 328.2 409.208 330.4 412.308C332.5 415.408 336.6 421.108 339.5 424.908C343 429.608 345.5 434.308 346.9 438.708C348 442.408 349.5 446.408 350.1 447.708C353.4 454.108 359.1 456.808 363.2 454.008C364.4 453.108 366.9 452.408 368.7 452.408C371.1 452.408 372.4 451.708 373.9 449.508C376.9 445.308 376.5 441.408 372.1 430.308C368.7 422.008 368 419.008 367.4 410.208C366.9 401.708 367 399.208 368.3 396.808C369.1 395.108 369.8 393.108 369.7 392.208C369.5 390.808 376.7 390.608 443.5 390.308L517.4 389.908L518.6 394.408C519.2 396.908 520.2 401.108 520.9 403.908C521.6 406.608 522.9 409.608 523.9 410.408C525.1 411.408 526.6 415.808 528.3 423.908C530.4 433.808 530.8 437.508 530.3 445.108C530 450.108 530 455.408 530.4 456.808C530.7 458.208 533 460.908 535.5 462.708C539.7 466.008 540.3 466.108 547.1 465.808C553.3 465.508 555 465.008 558.5 462.508C565 457.808 565.6 455.408 563.9 440.608C562.4 428.108 562.4 427.808 564.8 417.908C566.1 412.408 568 406.308 569 404.408C570 402.408 571.3 399.108 571.9 396.908C572.5 394.708 573.3 392.408 573.8 391.708C574.6 390.408 588.9 390.208 656.2 390.308L691.8 390.408L692.9 393.608C693.4 395.408 694.2 399.208 694.5 402.108C695.2 407.608 697.6 410.708 700.6 410.208C702.1 410.008 703.1 411.808 706.1 419.908C709.7 429.608 709.8 430.308 709.9 443.708C710 451.408 710.5 458.408 711.1 459.508C712.6 462.508 720.9 467.408 724.3 467.408C725.8 467.408 728 466.908 729 466.408C730.2 465.708 732.4 465.708 734.9 466.308C738.8 467.108 739.2 467.008 743.5 463.008C747.4 459.308 748 458.208 748 454.608C748 452.408 747.3 447.508 746.4 443.708C744.4 435.508 743.8 406.308 745.6 405.708C749.4 404.408 750.4 402.508 750.8 395.908L751.2 389.208L755.8 389.808C758.2 390.108 768.4 390.408 778.3 390.408H796.2L795.6 393.908C795.3 395.808 794.7 399.108 794.3 401.108C793.7 404.608 793.8 404.808 795.3 403.508C796.8 402.308 797 402.508 797 406.008C797 408.208 795.7 415.508 794.1 422.208C792.5 429.008 791.6 434.208 792 433.708C792.5 433.308 793.8 429.208 794.9 424.708C796.9 416.408 801.6 405.408 803.1 405.408C804.3 405.408 803.3 420.908 801.9 425.108C801.3 427.008 801 429.408 801.3 430.508C801.6 431.608 801 435.508 799.9 439.208C797.3 448.308 797.5 452.008 800.6 456.108C802.5 458.608 803.9 459.408 806.3 459.408C808.1 459.408 810.1 459.808 810.9 460.308C813.2 461.708 821.5 457.108 822.8 453.708C823.4 452.208 824.4 447.908 825.1 444.108C825.7 440.408 826.6 437.408 827.1 437.408C828.4 437.408 832.8 427.508 834.6 420.408C835.4 416.808 837.1 412.308 838.3 410.408C841.4 405.308 849 398.008 852.7 396.508C854.5 395.808 856.3 394.008 857 392.308C858.4 389.108 860.4 389.408 859.6 392.708C859.3 394.008 859.5 393.808 860.2 392.108L861.4 389.408H894.8H928.1L932.7 392.908C935.3 394.908 938 396.208 938.7 396.008C939.4 395.708 941.8 396.108 944 396.908C949.1 398.708 962.7 398.208 968.9 395.908C972.2 394.808 973.5 394.708 974.1 395.508C974.6 396.308 976.8 395.608 981.4 393.008L988.1 389.408H1060.8C1100.8 389.408 1144 389.108 1156.8 388.708L1180 388.108V385.408V382.808L1081.2 383.208C970.3 383.708 978 384.208 981.9 376.508C983.1 374.308 984 371.108 984 369.408C984 367.808 984.5 366.408 985.1 366.408C985.9 366.408 986.1 364.508 985.7 360.408C985.2 354.908 984.5 353.208 978 342.408C977.5 341.608 976.6 339.508 975.8 337.708C975 335.608 973.3 334.008 971 333.008C965.9 330.808 961.3 330.108 960.5 331.408C960.1 332.108 957 332.208 951.6 331.908L943.3 331.408L937.4 335.308C925.5 343.008 922.1 349.208 921.3 363.908C920.9 369.408 921.3 372.308 922.9 376.408C924.1 379.408 925 382.208 925 382.708C925 383.108 912.1 383.308 896.3 383.208L867.5 382.908L867.2 375.508C867 370.208 867.4 367.108 868.5 364.708C870.3 360.908 870.1 358.108 866.8 344.708C865.2 338.008 864 335.508 860.8 331.908C858.6 329.408 855.2 326.708 853.4 325.908C851.5 325.108 849.5 323.408 848.8 321.908C848.1 320.308 846.3 319.008 843.9 318.208C840.6 317.308 839.3 317.408 834.3 319.408C831.1 320.608 826.3 322.408 823.7 323.408C820.8 324.408 817 327.008 814.5 329.508C812.2 331.908 808.6 335.208 806.6 336.708C802.8 339.708 801.5 343.208 800 353.508C799.5 356.708 798.6 360.208 797.9 361.508C797.1 363.008 797.1 363.908 797.7 364.108C798.4 364.408 798.4 365.808 797.8 368.408C797.2 370.608 797.1 373.208 797.5 374.108C798.3 375.908 798.3 378.208 797.5 382.008C797.1 384.008 796.5 384.108 789.3 383.908C785 383.708 775.8 383.508 768.8 383.508L756 383.408V380.408C756 378.708 755.4 376.308 754.6 375.108C753.5 373.508 753.2 370.008 753.4 361.408C753.8 339.808 749.9 333.508 732.8 327.808C726.7 325.908 726 325.108 726 320.708C726 316.808 723 314.408 718.2 314.408C713.2 314.408 708.3 316.908 703 322.108C700.4 324.808 696.6 328.208 694.6 329.708C692 331.808 691 333.408 691 335.408C691 337.408 690.4 338.508 689 338.908C683.6 340.608 681.6 354.108 684.4 370.108C685.4 375.508 686.6 380.708 687.1 381.608C688.2 383.708 694 383.408 634 384.008C611.7 384.308 589.8 384.208 585.3 383.808C576.1 383.208 575.7 382.808 578.4 376.308C582.3 366.708 580.6 345.608 575.4 339.508C574.1 337.908 573 335.508 573 334.208C573 332.908 572.3 330.808 571.4 329.608C569.8 327.208 562.4 323.108 557.7 322.008C555.6 321.508 554.4 320.208 553 316.908C551 312.208 548.6 310.408 544.6 310.408C541.7 310.408 536.5 314.508 534.5 318.408C533.7 319.908 530.6 322.608 527.6 324.208C521.9 327.508 518 331.908 518 335.208C518 336.408 517.1 337.508 516 337.908C515 338.208 513.1 340.108 511.9 342.008C510.1 344.908 509.8 347.008 509.8 353.408C510 362.708 511.4 372.408 513.5 378.408C514.3 380.808 514.9 382.908 514.7 383.108C514.3 383.408 412.4 383.808 384.2 383.508L367.8 383.408L368 374.108C368.2 364.608 367.9 361.508 365.4 350.408C363.1 340.208 361.2 336.008 358.2 334.108C356.7 333.208 353.5 330.608 351 328.408C347.2 325.108 346.7 324.108 347.6 322.708C348.2 321.708 349.9 320.808 351.4 320.608C354.7 320.208 354.7 319.108 351.6 317.608C350 316.908 349 315.508 348.8 313.808C348.2 308.308 340.9 305.508 332.8 307.808Z"
           id="path19535"
           style="fill:#000000;fill-opacity:0.10196079;stroke:none;stroke-opacity:0.02352941;stroke-linejoin:round"
           fill="white" />
      </g>
    </g>
    <path
       d="M531.021 1007.98L527.792 1011.06C528.876 1012.17 531.317 1014.33 531.317 1014.33C531.317 1014.33 536.461 1018.88 538.679 1022.11L540.545 1024.81L542.349 1022.06C544.492 1018.8 549.74 1014.1 549.74 1014.1C549.74 1014.1 551.968 1012.1 552.974 1011.08L549.682 1008.07L540.465 1017.11L531.021 1007.98Z"
       id="path19541"
       fill="white" />
    <path
       d="M547.756 990C546.556 990 545.387 990.219 544.29 990.622V990.62C544.276 990.625 544.262 990.631 544.248 990.637C544.18 990.662 544.114 990.69 544.047 990.717C543.91 990.771 543.774 990.828 543.64 990.888C543.563 990.922 543.488 990.957 543.413 990.993C543.284 991.055 543.157 991.119 543.032 991.185C542.963 991.222 542.894 991.258 542.826 991.296C542.663 991.386 542.503 991.482 542.346 991.582C542.32 991.598 542.292 991.613 542.266 991.629C542.195 991.675 542.128 991.726 542.058 991.774V997.498L543.778 996.096C543.941 995.94 544.111 995.792 544.29 995.657C545.276 994.91 546.488 994.48 547.756 994.48C550.959 994.48 553.564 997.111 553.564 1000.34C553.564 1002.45 552.886 1004.13 551.748 1005.71L555.048 1008.73C556.811 1006.43 558 1003.8 558 1000.34C558 994.641 553.405 990 547.756 990Z"
       id="path19543"
       fill="white" />
    <path
       d="M537.248 996.122L538.942 997.503V991.774C538.903 991.748 538.866 991.72 538.827 991.694C538.77 991.657 538.714 991.619 538.657 991.583C538.499 991.483 538.338 991.387 538.174 991.296C538.093 991.25 538.009 991.208 537.926 991.164C537.818 991.107 537.709 991.051 537.598 990.999C537.505 990.954 537.412 990.911 537.318 990.87C537.212 990.823 537.105 990.779 536.998 990.736C536.902 990.697 536.807 990.658 536.71 990.622C536.692 990.616 536.676 990.608 536.658 990.602V990.605C535.576 990.214 534.425 990 533.244 990C527.596 990 523 994.641 523 1000.34C523 1003.8 524.099 1006.42 525.753 1008.67L529.016 1005.57C528.019 1004.06 527.435 1002.41 527.435 1000.34C527.435 997.111 530.041 994.48 533.244 994.48C534.49 994.48 535.682 994.894 536.658 995.618C536.839 995.751 537.011 995.898 537.176 996.053C537.194 996.07 537.213 996.087 537.231 996.104C537.237 996.109 537.242 996.116 537.248 996.122Z"
       id="path19545"
       fill="white" />
    <text
       xml:space="preserve"
       style="font-style:normal;font-variant:normal;font-weight:normal;font-stretch:normal;font-size:36.24159622px;line-height:1.25;font-family:'Merriweather Sans';-inkscape-font-specification:'Merriweather Sans';text-align:center;letter-spacing:0px;word-spacing:0px;text-anchor:middle;fill:#ffffff;fill-opacity:1;stroke:none;stroke-width:0.75503325"
       x="540.18958"
       y="954.01007"
       id="text20246"><tspan
         sodipodi:role="line"
         id="tspan20244"
         x="540.18958"
         y="954.01007"
         style="font-style:normal;font-variant:normal;font-weight:bold;font-stretch:normal;font-size:36px;font-family:'Gosha Sans';-inkscape-font-specification:'Gosha Sans Bold';text-align:center;text-anchor:middle;fill:#ffffff;fill-opacity:1;stroke-width:0.75503325">codeday.org/{{url}}</tspan></text>
    <text
       xml:space="preserve"
       style="font-style:normal;font-variant:normal;font-weight:normal;font-stretch:normal;font-size:80px;line-height:1.25;font-family:'Merriweather Sans';-inkscape-font-specification:'Merriweather Sans';text-align:start;letter-spacing:0px;word-spacing:0px;text-anchor:start;fill:#ffffff;fill-opacity:1;stroke:none;stroke-width:1.68131554"
       x="29.647499"
       y="110.2"
       id="text20954"><tspan
         sodipodi:role="line"
         id="tspan20952"
         x="29.647499"
         y="110.2"
         style="font-style:normal;font-variant:normal;font-weight:bold;font-stretch:normal;font-size:80px;font-family:'Gosha Sans';-inkscape-font-specification:'Gosha Sans Bold';text-align:start;text-anchor:start;fill:#ffffff;fill-opacity:1;stroke-width:1.68131554">CodeDay </tspan><tspan
         sodipodi:role="line"
         x="29.647499"
         y="210.57295"
         style="font-style:normal;font-variant:normal;font-weight:bold;font-stretch:normal;font-size:80px;font-family:'Gosha Sans';-inkscape-font-specification:'Gosha Sans Bold';text-align:start;text-anchor:start;fill:#ffffff;fill-opacity:1;stroke-width:1.68131554"
         id="tspan20956">{{name}}</tspan></text>
    <text
       xml:space="preserve"
       style="font-style:normal;font-variant:normal;font-weight:normal;font-stretch:normal;font-size:36.83836365px;line-height:1.25;font-family:'Merriweather Sans';-inkscape-font-specification:'Merriweather Sans';text-align:end;letter-spacing:0px;word-spacing:0px;text-anchor:end;fill:#ffffff;fill-opacity:1;stroke:none;stroke-width:0.76746589;"
       x="1042.0365"
       y="75.020927"
       id="text20960"><tspan
         sodipodi:role="line"
         id="tspan20958"
         x="1042.0365"
         y="75.020927"
         style="font-style:normal;font-variant:normal;font-weight:bold;font-stretch:normal;font-size:36px;font-family:'Gosha Sans';-inkscape-font-specification:'Gosha Sans Bold';stroke-width:0.76746589;fill:#ffffff;fill-opacity:1;">{{short_month}}. {{day}}-{{day+1}}, {{year}}</tspan></text>
    <text
       xml:space="preserve"
       style="font-style:normal;font-variant:normal;font-weight:normal;font-stretch:normal;font-size:23.95904732px;line-height:1.25;font-family:'Merriweather Sans';-inkscape-font-specification:'Merriweather Sans';text-align:end;letter-spacing:0px;word-spacing:0px;text-anchor:end;fill:#ffffff;fill-opacity:1;stroke:none;stroke-width:0.49914682;"
       x="1042.0237"
       y="114.13612"
       id="text20964"><tspan
         sodipodi:role="line"
         id="tspan20962"
         x="1042.0237"
         y="114.13612"
         style="font-style:normal;font-variant:normal;font-weight:bold;font-stretch:normal;font-size:24px;font-family:'Gosha Sans';-inkscape-font-specification:'Gosha Sans Bold';stroke-width:0.49914682;fill:#ffffff;fill-opacity:1;">{{current_event.venue['name']}}</tspan></text>
  </g>
  <defs
     id="defs19575">
    <filter
       id="filter0_d"
       x="-120"
       y="291"
       width="1320"
       height="200.408"
       filterUnits="userSpaceOnUse"
       color-interpolation-filters="sRGB">
      <feFlood
         flood-opacity="0"
         result="BackgroundImageFix"
         id="feFlood19549" />
      <feColorMatrix
         in="SourceAlpha"
         type="matrix"
         values="0 0 0 0 0 0 0 0 0 0 0 0 0 0 0 0 0 0 127 0"
         id="feColorMatrix19551" />
      <feOffset
         dy="4"
         id="feOffset19553" />
      <feGaussianBlur
         stdDeviation="10"
         id="feGaussianBlur19555" />
      <feColorMatrix
         type="matrix"
         values="0 0 0 0 0 0 0 0 0 0 0 0 0 0 0 0 0 0 0.25 0"
         id="feColorMatrix19557" />
      <feBlend
         mode="normal"
         in2="BackgroundImageFix"
         result="effect1_dropShadow"
         id="feBlend19559" />
      <feBlend
         mode="normal"
         in="SourceGraphic"
         in2="effect1_dropShadow"
         result="shape"
         id="feBlend19561" />
    </filter>
    <linearGradient
       id="paint0_linear"
       x1="1080"
       y1="0"
       x2="0"
       y2="1080"
       gradientUnits="userSpaceOnUse">
      <stop
         stop-color="#FF8057"
         id="stop19564" />
      <stop
         offset="1"
         stop-color="#E7667D"
         id="stop19566" />
    </linearGradient>
    <clipPath
       id="clip0">
      <rect
         width="1080"
         height="1080"
         fill="white"
         id="rect19569" />
    </clipPath>
    <clipPath
       id="clip1">
      <rect
         width="1280"
         height="640"
         fill="white"
         transform="translate(-100 67)"
         id="rect19572" />
    </clipPath>
  </defs>
</svg>
